<svg width="27" height="40" viewBox="0 0 27 40" fill="none" xmlns="http://www.w3.org/2000/svg">
<path d="M26.196 32.681C26.196 33.193 25.7694 33.7049 25.172 33.7049H0V0H25.172C25.684 0 26.196 0.426645 26.196 1.02395V32.681Z" fill="#09435B"/>
<path d="M9.27705 18.7051L9.95968 15.3772L8.59442 18.7051H7.6558V15.7186L6.71718 18.7051H6.11988L7.74113 13.8413C7.05849 14.0973 6.63185 14.6093 6.63185 15.4626C6.63185 15.8039 6.71718 15.8892 6.71718 15.9745C6.20521 15.9745 5.94922 15.8039 5.94922 15.2919C5.94922 14.4386 7.14382 13.5 8.2531 13.5C8.42376 13.5 8.59442 13.5 8.76508 13.5853V17.6811L10.301 13.5853H11.4103L10.301 18.7904H9.27705V18.7051Z" fill="white"/>
<path d="M12.6908 18.1939C13.0321 18.1939 13.6294 17.7673 13.8854 17.2553H14.2267C13.8001 18.0233 13.1175 18.7059 12.2642 18.7059C11.5816 18.7059 11.2402 18.1939 11.2402 17.5966C11.2402 16.658 11.5816 15.1221 12.9468 15.1221C13.5441 15.1221 13.8854 15.3781 13.8854 15.89C13.8854 16.7433 12.9468 17.2553 12.2642 17.3406C12.2642 17.426 12.2642 17.5966 12.2642 17.6819C12.0935 18.0233 12.3495 18.1939 12.6908 18.1939ZM13.0321 15.4634C12.6055 15.4634 12.3495 16.2313 12.1789 16.914C12.8615 16.914 13.2881 16.3167 13.2881 15.8047C13.2881 15.7194 13.2028 15.4634 13.0321 15.4634Z" fill="white"/>
<path d="M16.7011 17.5961C16.7011 17.6814 16.7011 17.7668 16.7011 17.8521C16.7011 18.0228 16.7864 18.1081 17.0424 18.1081C17.2984 18.1081 17.4691 17.8521 17.7251 17.6814H17.9811C17.6397 18.0228 17.1278 18.7907 16.5305 18.7907C16.0185 18.7907 15.6772 18.5347 15.6772 18.0228C15.6772 17.9374 15.6772 17.7668 15.6772 17.6814L15.9332 16.4015C15.9332 16.3162 15.9332 16.3162 15.9332 16.2309C15.9332 15.9749 15.7625 15.8042 15.5918 15.8042C15.4212 15.8042 15.3359 15.8895 15.1652 15.9749L14.5679 18.8761H13.5439L14.3119 15.2922H15.3359L15.2505 15.6336C15.5065 15.4629 15.8478 15.2922 16.1891 15.2922C16.5305 15.2922 17.0424 15.7189 17.0424 16.1455C17.0424 16.2309 17.0424 16.2309 17.0424 16.3162L16.7011 17.5961Z" fill="white"/>
<path d="M20.199 17.5961C20.199 17.6814 20.199 17.7668 20.199 17.8521C20.199 18.0228 20.2844 18.1081 20.455 18.1081C20.5404 18.1081 20.5404 18.1081 20.6257 18.1081C20.455 18.7054 20.1137 18.7907 19.8577 18.7907C19.4311 18.7907 19.1751 18.5347 19.1751 18.1934C18.8338 18.5347 18.4925 18.7907 18.1511 18.7907C17.6392 18.7907 17.2979 18.5347 17.2979 18.0228C17.2979 17.9374 17.2979 17.7668 17.2979 17.6814L17.8098 15.2922H18.8338L18.3218 17.6814C18.3218 17.7668 18.3218 17.8521 18.3218 17.9374C18.3218 18.1081 18.4071 18.1934 18.6631 18.1934C18.8338 18.1934 19.0044 18.1081 19.1751 17.9374C19.1751 17.8521 19.1751 17.7668 19.1751 17.6814L19.6871 15.2922H20.711L20.199 17.5961Z" fill="white"/>
<path d="M4.15717 15.5483C4.58382 15.975 5.18112 15.8043 5.43711 16.4016C5.69309 16.9136 5.35178 17.5109 4.75448 17.5109C4.2425 17.5109 4.07184 17.1696 4.07184 16.9136C4.07184 16.6576 4.2425 16.4016 4.58382 16.487C4.8398 16.487 4.8398 16.7429 4.8398 16.7429C4.49849 16.8283 4.58382 17.1696 4.8398 17.2549C5.09579 17.2549 5.35178 17.0843 5.35178 16.7429C5.26645 16.487 5.09579 16.231 4.49849 16.4016C3.90119 16.5723 2.79191 17.5962 1.85329 17.5962C1.34132 17.5962 1 17.3402 1 16.9989C1 16.5723 1.25599 16.4016 1.51197 16.3163C1.85329 16.3163 2.02395 16.487 2.02395 16.7429C2.02395 16.9989 1.85329 17.1696 1.85329 17.1696C1.85329 17.1696 1.85329 16.9136 1.68263 16.8283C1.51197 16.8283 1.34132 16.9136 1.42664 17.1696C1.51197 17.3402 1.76796 17.5109 2.36526 17.2549C2.96257 16.7429 3.38921 15.8897 4.15717 15.5483ZM3.38921 16.5723C3.81586 16.3163 4.07184 16.1456 4.41316 16.0603H4.49849C4.32783 15.975 4.2425 15.975 4.15717 15.8897C3.81586 16.0603 3.6452 16.231 3.38921 16.5723C3.30388 16.5723 3.30388 16.5723 3.21855 16.6576C3.30388 16.6576 3.38921 16.5723 3.38921 16.5723Z" fill="#E4B713"/>
<path d="M24.2109 17.0848C24.8082 17.3407 25.0641 17.2554 25.1495 16.9994C25.2348 16.8288 25.0641 16.6581 24.8935 16.6581C24.7228 16.7434 24.7228 16.9994 24.7228 16.9994C24.7228 16.9994 24.5522 16.9141 24.5522 16.5728C24.5522 16.3168 24.7228 16.1461 25.0642 16.1461C25.3201 16.1461 25.5761 16.4021 25.5761 16.8288C25.5761 17.1701 25.2348 17.4261 24.7228 17.4261C23.7842 17.4261 22.6749 16.3168 22.0776 16.2315C21.4803 16.0608 21.3097 16.3168 21.2243 16.5728C21.139 16.9141 21.395 17.1701 21.7363 17.0848C21.9923 17.0848 22.0776 16.6581 21.7363 16.5728C21.7363 16.5728 21.7363 16.4021 21.9923 16.3168C22.2483 16.3168 22.5043 16.4875 22.5043 16.7434C22.5043 16.9994 22.3336 17.3407 21.8216 17.3407C21.3097 17.3407 20.883 16.7434 21.139 16.2315C21.395 15.5488 22.0776 15.8048 22.419 15.3782C23.0163 15.8901 23.4429 16.7434 24.2109 17.0848ZM23.1869 16.6581C23.1016 16.5728 23.1016 16.5728 23.0163 16.4875C22.7603 16.2315 22.5896 15.9755 22.2483 15.8048C22.163 15.8901 21.9923 15.9755 21.907 15.9755H21.9923C22.2483 16.0608 22.5896 16.2315 23.0163 16.4875C23.1016 16.5728 23.1869 16.6581 23.1869 16.6581Z" fill="#E4B713"/>
<path d="M24.2333 4.0103C23.38 3.83965 22.6973 2.8157 22.5267 1.96241C22.5267 1.87708 22.5267 1.70642 22.5267 1.62109H22.1854H19.2842H19.1135H4.0103H3.66899C3.66899 1.79175 3.66899 1.87708 3.66899 1.96241C3.49833 2.8157 2.8157 3.83965 1.96241 4.0103C1.87708 4.0103 1.70642 4.0103 1.62109 4.0103V4.35162V13.5672H1.96241V4.35162C2.98636 4.18096 3.83965 2.98636 4.0103 1.87708H19.1135H19.2842H22.1854C22.356 2.90103 23.2093 4.18096 24.2333 4.35162V13.6525H24.5746V4.43695V4.0103C24.4893 4.0103 24.4039 4.0103 24.2333 4.0103Z" fill="#E4B713"/>
<path d="M24.2336 20.0522V29.3531C23.2097 29.5238 22.3564 30.7184 22.1857 31.8276H19.2846H19.1139H4.01067C3.84002 30.8037 2.98673 29.5238 1.96278 29.3531V20.0522H1.53613V29.2678V29.6091C1.70679 29.6091 1.79212 29.6091 1.87745 29.6091C2.73074 29.7797 3.41337 30.8037 3.58403 31.657C3.58403 31.7423 3.58403 31.913 3.58403 31.9983H3.92534H18.9432H19.1139H22.1857H22.5271C22.5271 31.8276 22.5271 31.7423 22.5271 31.657C22.6977 30.8037 23.3804 29.7797 24.2336 29.6091C24.319 29.6091 24.4896 29.6091 24.575 29.6091V29.2678V20.0522H24.2336Z" fill="#E4B713"/>
<path d="M21.1616 39.9337H21.0763L0.255987 34.046C0.085329 33.9607 0 33.7901 0 33.6194C0 33.4487 0.170658 33.2781 0.426645 33.2781H21.1616C21.4176 33.2781 21.5882 33.4487 21.5882 33.7047V39.5924C21.5882 39.6778 21.5029 39.8484 21.4176 39.9337C21.3322 39.9337 21.2469 39.9337 21.1616 39.9337Z" fill="#09435B"/>
<path d="M21.1617 39.5928L0.426758 33.7051H21.1617V39.5928Z" fill="#DCDDB3"/>
</svg>