<svg width="82" height="38" viewBox="0 0 82 38" fill="none" xmlns="http://www.w3.org/2000/svg">
<g clip-path="url(#clip0_1580_13406)">
<path d="M11.1118 11.8089L10.5272 14.2853H11.0447L11.6293 11.8089H11.1118ZM71.8607 17.487L70.2363 9.34207H60.0205L56.2159 25.503H34.3706C34.2173 24.439 33.7381 23.5181 33.0098 22.8406H54.1698L58.5159 4.37019H25.5875L25.0747 6.55553H6.04699L5.4624 9.03192H24.4902L23.8385 11.8089H14.2839L13.6993 14.2853H23.2539L22.6022 17.0623H11.3801L10.7955 19.5387H22.0177L21.2414 22.8406H25.6785C24.6291 23.5181 23.7139 24.439 23.0622 25.503H18.8024L18.2179 27.9794H22.1039C21.5529 31.1286 23.5941 33.6336 26.8045 33.6336C30.015 33.6336 33.235 31.1286 34.1646 27.9794H57.524C56.9729 31.1286 59.0142 33.6336 62.2246 33.6336C65.4351 33.6336 68.6551 31.1286 69.5846 27.9794H75.6317L77.0884 21.7956L71.8607 17.487ZM27.3843 31.1572C25.4245 31.1572 24.2027 29.5683 24.6627 27.6168C25.1227 25.6653 27.0872 24.0764 29.047 24.0764C31.0068 24.0764 32.2287 25.6653 31.7687 27.6168C31.3135 29.5683 29.3441 31.1572 27.3843 31.1572ZM62.8092 31.1572C60.8494 31.1572 59.6275 29.5683 60.0875 27.6168C60.5475 25.6653 62.5121 24.0764 64.4719 24.0764C66.4317 24.0764 67.6536 25.6653 67.1936 27.6168C66.7336 29.5683 64.769 31.1572 62.8092 31.1572ZM73.7294 25.503H69.7955C69.4696 23.227 67.644 21.6 65.0565 21.6C62.6702 21.6 60.2792 22.9837 58.8273 24.9877L61.9275 11.8185H68.0226L69.4792 19.1188L74.2997 23.0887L73.7294 25.503Z" fill="#16161A"/>
<path d="M75.9864 14.8056L74.0266 4.97161H62.8093L63.9785 -0.000259399H22.1855L21.6728 2.18507H2.64021L0 13.398H3.01397L1.77292 18.6562H6.56939L5.33314 23.9096H14.7392L12.7554 32.3503H17.9784C18.448 33.7865 19.2865 35.051 20.4221 36.01C21.9698 37.3126 23.9584 38.0045 26.1817 38.0045C28.3044 38.0045 30.4751 37.3699 32.4636 36.1675C34.0976 35.1798 35.5111 33.8724 36.5988 32.3503H53.3985C53.8681 33.7865 54.7066 35.051 55.8422 36.01C57.3899 37.3126 59.3785 38.0045 61.6018 38.0045C63.7245 38.0045 65.8952 37.3699 67.8837 36.1675C69.5177 35.1798 70.9312 33.8724 72.0189 32.3503H79.034L81.9952 19.7632L75.9864 14.8056Z" fill="#16161A"/>
<path d="M29.0521 24.0763C27.0923 24.0763 25.1229 25.6652 24.6677 27.6167C24.2077 29.5683 25.4296 31.1572 27.3894 31.1572C29.3492 31.1572 31.3186 29.5683 31.7738 27.6167C32.2338 25.6652 31.0119 24.0763 29.0521 24.0763Z" fill="#16161A"/>
<path d="M64.472 24.0763C62.5122 24.0763 60.5429 25.6652 60.0876 27.6167C59.6276 29.5683 60.8495 31.1572 62.8093 31.1572C64.7691 31.1572 66.7385 29.5683 67.1937 27.6167C67.6537 25.6652 66.4318 24.0763 64.472 24.0763Z" fill="#16161A"/>
<path d="M74.4053 15.7461L72.6037 6.69937H60.6245L61.7936 1.72749H23.5608L23.0481 3.91283H4.01557L2.18994 11.6712H5.20391L3.96765 16.9246H8.76412L7.52787 22.178H18.75L18.5871 22.8651H16.7758L14.9502 30.6188H19.3633C19.8137 33.9302 22.4683 36.2729 26.1867 36.2729C29.905 36.2729 33.6569 33.9302 35.6694 30.6188H54.7834C55.2338 33.9302 57.8884 36.2729 61.6068 36.2729C65.3251 36.2729 69.077 33.9302 71.0895 30.6188H77.6637L80.0643 20.4126L74.4053 15.7461Z" fill="white"/>
<path d="M71.8607 17.4868L70.2363 9.34188H60.0205L56.2159 25.5029H34.3706C34.2173 24.4388 33.7381 23.5179 33.0098 22.8404H54.1698L58.5159 4.37001H25.5875L25.0747 6.55534H6.04699L5.4624 9.03174H24.4902L23.8385 11.8087H14.2839L13.6993 14.2851H23.2539L22.6022 17.0621H11.3801L10.7955 19.5385H22.0177L21.2414 22.8404H25.6785C24.6291 23.5179 23.7139 24.4388 23.0622 25.5029H18.8024L18.2179 27.9793H22.1039C21.5529 31.1284 23.5941 33.6334 26.8045 33.6334C30.015 33.6334 33.235 31.1284 34.1646 27.9793H57.524C56.9729 31.1284 59.0142 33.6334 62.2246 33.6334C65.4351 33.6334 68.6551 31.1284 69.5846 27.9793H75.6317L77.0884 21.7954L71.8607 17.4868ZM27.3843 31.1571C25.4245 31.1571 24.2027 29.5681 24.6627 27.6166C25.1227 25.6651 27.0872 24.0762 29.047 24.0762C31.0068 24.0762 32.2287 25.6651 31.7687 27.6166C31.3135 29.5681 29.3441 31.1571 27.3843 31.1571ZM62.8092 31.1571C60.8494 31.1571 59.6275 29.5681 60.0875 27.6166C60.5475 25.6651 62.5121 24.0762 64.4719 24.0762C66.4317 24.0762 67.6536 25.6651 67.1936 27.6166C66.7336 29.5681 64.769 31.1571 62.8092 31.1571ZM73.7294 25.5029H69.7955C69.4696 23.2269 67.644 21.5998 65.0565 21.5998C62.6702 21.5998 60.2792 22.9835 58.8273 24.9875L61.9275 11.8183H68.0226L69.4792 19.1186L74.2997 23.0885L73.7294 25.5029Z" fill="#16161A"/>
<path d="M7.23535 14.285H11.0495L11.6341 11.8086H7.81994L7.23535 14.285Z" fill="#16161A"/>
<path d="M30.4941 8.05388H34.7731L34.5192 9.137H31.5339L31.1794 10.6352H33.9777L33.7237 11.7184H30.9254L30.3504 14.1661H29.0566L30.4941 8.05388Z" fill="white"/>
<path d="M36.1959 11.7184L35.6209 14.1614H34.3271L35.7647 8.05388H38.4576C39.7945 8.05388 40.3407 8.78868 40.1203 9.72866C39.9286 10.5494 39.3728 10.9931 38.8888 11.1744C39.1667 11.2842 39.5501 11.5991 39.2913 12.6965L39.2195 12.9971C39.1236 13.4075 39.0182 13.8751 39.0326 14.1614H37.7772C37.734 13.8942 37.8203 13.4409 37.9736 12.792L37.9928 12.7013C38.1509 12.0333 38.0551 11.7184 37.068 11.7184H36.1959ZM36.4403 10.6686H37.5519C38.2803 10.6686 38.6205 10.3919 38.7451 9.88135C38.8601 9.38512 38.6013 9.10837 37.9544 9.10837H36.8092L36.4403 10.6686Z" fill="white"/>
<path d="M45.0989 11.5275H42.1664L41.8022 13.0782H45.0366L44.6245 14.1614H40.2593L41.6968 8.05388H46.0476L45.7937 9.137H42.7318L42.4251 10.4444H45.3576L45.0989 11.5275Z" fill="white"/>
<path d="M50.5662 11.5275H47.6336L47.2695 13.0782H50.5039L50.0918 14.1614H45.7266L47.1641 8.05388H51.5149L51.261 9.137H48.1991L47.8924 10.4444H50.8249L50.5662 11.5275Z" fill="white"/>
<path d="M28.424 15.8028H29.665C30.5802 15.8028 31.0354 16.3992 30.815 17.3249C30.5994 18.2362 29.8615 18.9233 28.8983 18.9233H27.686L28.424 15.8028ZM28.4958 18.3794H29.0037C29.6027 18.3794 29.9765 17.9356 30.1202 17.3249C30.24 16.8143 30.101 16.3467 29.4877 16.3467H28.975L28.4958 18.3794Z" fill="white"/>
<path d="M33.5081 17.5778H32.0083L31.8214 18.3698H33.4745L33.2637 18.9233H31.0308L31.7639 15.8028H33.9872L33.8579 16.3563H32.2958L32.1376 17.0243H33.6374L33.5081 17.5778Z" fill="white"/>
<path d="M34.5671 15.8028H35.2427L34.639 18.3698H36.2011L35.995 18.9233H33.834L34.5671 15.8028Z" fill="white"/>
<path d="M37.8878 15.8028L37.1546 18.9233H36.479L37.2121 15.8028H37.8878Z" fill="white"/>
<path d="M38.654 18.9233L38.2803 15.8028H39.0086L39.1332 17.2438C39.1715 17.678 39.1907 18.0501 39.1907 18.3698H39.2003C39.3344 18.0788 39.5453 17.6971 39.7992 17.2533L40.6282 15.8028H41.3182L39.4494 18.9233H38.654Z" fill="white"/>
<path d="M43.4413 17.5778H41.9415L41.7546 18.3698H43.4077L43.1969 18.9233H40.9688L41.7019 15.8028H43.9252L43.7958 16.3563H42.229L42.0708 17.0243H43.5706L43.4413 17.5778Z" fill="white"/>
<path d="M44.7206 17.678L44.4283 18.9282H43.7671L44.5002 15.8076H45.8802C46.5654 15.8076 46.8433 16.1846 46.7283 16.6665C46.6277 17.0864 46.345 17.3106 46.1006 17.4061C46.2444 17.4633 46.4408 17.6256 46.3067 18.1838L46.2683 18.3365C46.2204 18.5465 46.1629 18.785 46.1725 18.9329H45.5304C45.5065 18.7993 45.5496 18.5655 45.6311 18.2315L45.6406 18.1838C45.7221 17.8403 45.6742 17.6828 45.1663 17.6828H44.7206V17.678ZM44.8452 17.1389H45.4154C45.7844 17.1389 45.9617 17.0005 46.024 16.7381C46.0815 16.4852 45.9521 16.342 45.6167 16.342H45.0321L44.8452 17.1389Z" fill="white"/>
<path d="M47.5139 18.9233L47.7726 17.8211C47.7822 17.7877 47.7822 17.7543 47.7678 17.7209L47.1401 15.8028H47.9068C48.0362 16.2752 48.2039 16.9002 48.2806 17.239C48.4962 16.9098 48.9897 16.2561 49.3347 15.8028H50.0439L48.501 17.7114C48.4818 17.7352 48.4674 17.7495 48.4531 17.8116L48.1895 18.9233H47.5139Z" fill="white"/>
</g>
<defs>
<clipPath id="clip0_1580_13406">
<rect width="82" height="38" fill="white"/>
</clipPath>
</defs>
</svg>
