<svg width="65" height="72" viewBox="0 0 65 72" fill="none" xmlns="http://www.w3.org/2000/svg">
<path d="M23.2938 0.0334826C23.3434 0.0832796 23.3683 0.133084 23.4179 0.133084C23.9887 0.382092 24.3361 0.805409 24.485 1.40304C24.5098 1.52755 24.5347 1.65205 24.6587 1.75165C24.6836 2.02556 24.6587 2.29947 24.758 2.54848C24.7332 2.72279 24.758 2.8722 24.8325 3.07141C25.1551 3.0216 25.4032 2.8224 25.7011 2.72279C25.9244 2.67299 26.0733 2.49868 26.3215 2.54848C26.3711 2.34927 26.5696 2.32438 26.7185 2.27458H26.7434C26.8178 2.24968 26.9419 2.17497 27.0163 2.19987C27.0412 2.15007 27.066 2.10026 27.1156 2.10026C27.2397 2.02556 27.3886 1.92596 27.5127 1.85125C27.612 1.85125 27.6864 1.80146 27.736 1.75165C27.7857 1.75165 27.8105 1.75165 27.8601 1.75165C27.9346 1.65205 28.0587 1.62715 28.1827 1.62715C28.4061 1.47774 28.6543 1.37813 28.9024 1.30343C29.0265 1.25363 29.1754 1.12912 29.2995 1.17892C29.2995 1.15402 29.3243 1.15403 29.3491 1.12912C29.4484 1.05443 29.5725 1.02952 29.6966 0.979718C29.771 0.954816 29.8455 0.905019 29.8951 0.880116C30.1185 0.805409 30.3418 0.73071 30.59 0.656003C30.6396 0.656003 30.6644 0.656003 30.6893 0.656003C30.8382 0.506597 31.0615 0.506597 31.26 0.456792C32.1783 0.282483 33.0965 0.157979 34.0147 0.0583773C34.2629 0.083272 34.4862 0.0583773 34.7344 0.0334826C35.057 0.0583773 35.3797 0.0832796 35.7023 0.0832796C36.0001 0.0832796 36.2731 0.133077 36.5461 0.232686C36.5709 0.232686 36.5709 0.257588 36.5957 0.257588C36.5957 0.257588 36.5957 0.257588 36.6205 0.257588C36.819 0.182881 36.9679 0.307393 37.1665 0.382092C37.8365 0.606206 38.5066 0.830304 39.1766 1.05442C39.3752 1.27852 39.6234 1.42794 39.9212 1.47774C40.1445 1.65204 40.343 1.80145 40.5664 1.97576C41.1124 2.42398 41.6087 2.922 42.0802 3.44492C42.1299 3.56942 42.1795 3.71883 42.3036 3.79354C42.4525 4.09235 42.651 4.29156 42.9985 4.14216C43.197 4.11725 43.3707 4.11725 43.5692 4.09235C43.6437 4.09235 43.7181 4.11725 43.7926 4.11725C45.6042 3.96785 47.3911 3.99275 49.1282 4.46587C49.3764 4.54057 49.5749 4.68998 49.8231 4.66507C49.8976 4.73977 49.972 4.76468 50.0465 4.76468C50.0961 4.83939 50.1705 4.88919 50.2698 4.88919C50.4187 5.01369 50.5428 5.1631 50.6917 5.26271C51.3866 5.68602 51.9574 6.20894 52.3048 6.95598C52.3296 7.13028 52.4041 7.27969 52.5033 7.42909C52.8756 8.40024 52.826 9.39628 52.8011 10.3923C52.7515 10.6164 52.6274 10.8405 52.6522 11.0896C52.5778 11.1892 52.5282 11.3137 52.5282 11.4382C52.4041 11.7619 52.4289 11.7868 52.8756 11.7619C53.0245 11.7619 53.1734 11.7619 53.3223 11.7619C53.769 11.9362 54.2405 11.8366 54.6872 11.8615C54.8361 11.8864 54.985 11.8864 55.1339 11.9113C55.4069 11.986 55.6799 11.9362 55.9529 11.9611C56.0522 11.9611 56.1762 11.9611 56.2755 11.9611C56.474 12.0109 56.6478 12.0358 56.8463 11.986C57.7645 11.986 58.6579 12.0856 59.5762 11.9611C59.6506 11.986 59.7499 11.9611 59.8243 11.9113C59.8988 11.8864 59.9732 11.8864 60.0477 11.8615C60.2959 11.8864 60.5192 11.8117 60.7426 11.6623C61.1396 11.6125 61.5119 11.5378 61.8841 11.3884C62.1323 11.3884 62.3308 11.2888 62.4549 11.0896C63.0257 10.8156 63.4724 10.4421 63.7206 9.8694C63.8943 9.74489 63.8943 9.54568 63.8943 9.37138C63.9439 9.14727 63.9439 8.92316 63.9191 8.69905C63.9439 8.57454 63.9191 8.45004 63.8447 8.35043C63.6461 7.6532 63.1498 7.20498 62.4797 7.03067C60.7922 6.65716 59.3528 6.90617 58.0623 8.52474C57.7397 8.72395 57.6901 9.07256 57.5164 9.34648C57.4171 9.54569 57.5412 9.64529 57.7149 9.62039C58.0127 9.62039 58.3105 9.49588 58.509 9.27177C58.6579 9.07256 58.8565 9.04766 59.055 9.12236C59.1295 9.32157 59.2287 9.52078 59.3528 9.69509C59.4024 10.0188 59.7251 10.2429 59.7002 10.5915C59.6754 10.6164 59.6258 10.6662 59.601 10.6911C59.3528 10.716 59.2039 11.0148 58.9806 11.0148C57.9879 11.1145 57.6901 11.239 57.1441 10.1931C57.1193 10.1184 57.0697 10.0686 57.02 9.9939C56.8215 9.62039 56.9456 9.24687 56.9952 8.84845C57.4419 7.95202 58.112 7.27969 58.9557 6.78167C59.2039 6.73186 59.4024 6.60737 59.5762 6.48285C59.7002 6.45796 59.8491 6.48285 59.9484 6.40815C60.544 6.03463 61.2141 6.08444 61.8841 6.08444C62.6038 6.05954 63.125 6.45795 63.671 6.83147C64.1921 7.35439 64.5147 7.95201 64.6636 8.67415C64.7381 8.99786 64.5892 9.27177 64.614 9.57058C64.4651 10.1682 64.068 10.5915 63.6213 10.965C63.4972 11.0647 63.3235 11.1145 63.2243 11.2639C63.1498 11.2888 63.0505 11.3137 63.0009 11.3884C62.9016 11.3884 62.8272 11.4382 62.7775 11.5129C61.4622 11.9362 60.0973 12.1852 58.7076 12.2848C57.9382 12.3346 57.1441 12.3097 56.3748 12.3346C56.2507 12.3097 56.1266 12.2848 55.9777 12.2848C55.4566 12.235 54.9354 12.235 54.4142 12.1603C53.8186 12.0856 53.223 12.0358 52.6274 12.0607C52.3793 11.9611 52.1807 12.0358 52.1063 12.3097C51.6347 13.7291 50.8158 14.9243 49.8479 16.02C49.7983 16.0698 49.7735 16.1445 49.7487 16.2192C49.5253 16.518 49.2275 16.7421 48.9793 17.016C47.9867 18.0868 46.7706 18.6346 45.3312 18.6097C45.2568 18.535 45.1823 18.535 45.0831 18.5599C44.2393 18.3856 43.5196 18.0121 43.0729 17.2401C43.0729 17.1405 43.0233 17.0658 42.9488 17.016C42.8496 16.5927 42.7503 16.1943 42.7999 15.771C42.8496 15.2231 43.1225 14.7749 43.3955 14.3018C43.7678 14.0528 44.0159 13.6544 44.3386 13.3555C45.5298 12.5836 46.8451 12.1105 48.2596 11.8864C49.3268 11.7121 50.3939 11.5627 51.4858 11.6872C51.6844 11.7121 51.8085 11.6125 51.8829 11.4382C52.007 11.1643 52.0815 10.9152 52.1063 10.6164C52.2304 10.3425 52.2055 10.0686 52.1559 9.79469C52.1559 9.71999 52.1559 9.64529 52.1559 9.57058C52.1807 9.39628 52.2055 9.24687 52.1063 9.09747C52.0815 9.02276 52.0814 8.94806 52.0566 8.87335C51.9574 8.07652 51.6596 7.3793 51.188 6.75677C51.0143 6.50776 50.8406 6.25875 50.6421 6.00974C50.2946 5.56152 49.9224 5.1631 49.4012 4.93898C48.5574 4.56547 47.664 4.39116 46.7458 4.34136C45.7531 4.26666 44.7356 4.29155 43.7181 4.29155C43.4203 4.41607 43.0729 4.36626 42.7751 4.44097C42.7503 4.66507 42.924 4.78958 42.9985 4.96389C43.1722 5.2378 43.3211 5.51172 43.4452 5.83543C43.8919 6.95598 44.1152 8.12632 44.0656 9.34648C44.0159 10.218 43.9167 11.0896 43.5196 11.8864C43.0233 12.9571 42.1299 13.6295 41.0875 14.1275C40.6905 14.1275 40.3182 14.1275 39.946 14.3018C39.8467 14.2769 39.7723 14.3018 39.7226 14.3765C39.2759 14.3765 38.8044 14.4014 38.3577 14.4014C38.1343 14.3516 37.911 14.3018 37.6876 14.252C37.1168 14.0528 36.6453 13.7291 36.1986 13.3555C36.149 13.2559 36.0745 13.1812 35.9753 13.1563C35.9008 13.0816 35.8264 12.982 35.7519 12.9073C35.7271 12.7579 35.6278 12.6583 35.5037 12.5836C35.33 12.2599 35.2556 11.9113 35.1563 11.5627C35.1563 11.488 35.1563 11.4133 35.1811 11.3386C35.3052 11.1643 35.2804 10.965 35.2804 10.7658C35.4045 10.3923 35.5534 10.0188 35.6775 9.64529C35.7767 9.54569 35.8512 9.44608 35.876 9.29667C36.0249 9.14727 36.1986 8.99786 36.3475 8.84845C36.3723 8.82356 36.422 8.79865 36.4468 8.77375C36.5957 8.72395 36.7198 8.64924 36.7942 8.49984C37.092 8.40024 37.365 8.32553 37.6628 8.22593C37.7869 8.25083 37.911 8.22593 38.0103 8.15122C38.3329 8.12632 38.6059 8.25083 38.8788 8.35043C39.5489 8.62434 39.7723 8.99786 39.6482 9.71999C39.5489 9.7947 39.4744 9.8943 39.3752 9.969C39.3256 10.0935 39.2511 10.1433 39.127 10.1931C39.0774 10.2429 39.0526 10.2927 39.0029 10.3425C38.5562 10.4421 38.1592 10.7409 37.638 10.6413C37.6876 10.3674 37.9854 10.1931 37.8613 9.8943C37.7621 9.69509 37.638 9.54569 37.4146 9.52078C37.3402 9.44608 37.2657 9.42118 37.1665 9.49588C36.5957 9.62039 36.3971 9.9441 36.3723 10.6911C36.2234 10.9899 36.3227 11.239 36.4964 11.488C36.5461 11.7619 36.6205 12.0109 36.8687 12.1852C37.2409 12.7828 37.8365 12.7828 38.4321 12.7828C38.8292 12.7828 39.2263 12.7081 39.6234 12.6832C40.6408 12.6085 41.4598 12.1105 42.105 11.3386C42.6262 10.7409 43.0729 10.0935 43.3955 9.34648C43.5444 9.02276 43.5941 8.69905 43.5444 8.35043C43.3707 7.13028 43.0977 5.95993 42.4028 4.93898C42.2291 4.68998 42.0554 4.54057 41.7576 4.61528C41.0627 4.93899 40.3182 5.06349 39.5985 5.2876C38.3577 5.66111 37.2409 6.30855 36.149 6.98088C36.0497 7.05558 35.9504 7.15519 35.8512 7.25479C35.8264 7.25479 35.8015 7.25479 35.8015 7.30459C35.4789 7.42909 35.1811 7.6034 34.9329 7.82751L34.9081 7.85241C34.6848 7.95202 34.4862 8.10142 34.3125 8.25083C34.2381 8.30063 34.1636 8.32553 34.0892 8.37533C33.9403 8.42513 33.7914 8.52474 33.6921 8.62434C33.5928 8.62434 33.4936 8.67415 33.4439 8.77375C33.2206 8.82355 33.0469 8.94806 32.8731 9.09747C32.7739 9.09747 32.6994 9.12237 32.6498 9.22197C32.3272 9.29667 32.0542 9.47098 31.7812 9.67019C31.7316 9.69509 31.6571 9.71999 31.6075 9.74489C31.3841 9.84449 31.1111 9.8694 31.0367 10.1433C30.6396 10.2429 30.2674 10.4421 29.8951 10.5417C29.3988 10.6662 28.9273 10.9152 28.4061 10.965C28.0338 10.9899 27.6616 11.1145 27.2893 11.1892C27.066 11.1892 26.8178 11.2141 26.5945 11.2888C26.5448 11.2888 26.52 11.2888 26.4704 11.2888C24.9069 11.4631 23.3683 11.488 21.8544 11.0646C21.6311 11.0148 21.4822 10.8405 21.2588 10.7907C20.6632 10.3425 20.6632 10.3425 19.9187 10.9152C19.8939 10.9152 19.8691 10.9152 19.8443 10.9401C19.5961 11.0398 19.3479 11.1643 19.1494 11.3386C18.8268 11.5378 18.4545 11.6374 18.1071 11.7868C17.8093 11.9113 17.4866 11.8864 17.2385 12.0856C17.1144 12.0856 16.9903 12.1105 16.891 12.1852C16.5188 12.235 16.1962 12.4093 15.8735 12.5338C15.7743 12.5338 15.6998 12.5338 15.6254 12.6085C15.5509 12.6334 15.4765 12.6583 15.402 12.6832C15.0546 12.7828 14.7072 12.8326 14.3597 12.982C14.1364 13.0318 13.913 13.0816 13.6897 13.1314C13.5656 13.1065 13.4415 13.1314 13.3422 13.2061C13.243 13.231 13.1189 13.231 12.9948 13.2559C12.8955 13.231 12.8211 13.2559 12.7714 13.3057C12.6225 13.3057 12.4488 13.3057 12.2999 13.4054C11.5554 13.4552 11.5554 13.4552 11.8532 14.2271C11.9277 14.75 12.0021 15.2978 12.1014 15.8208C12.1014 16.4931 12.1758 17.1654 12.1014 17.8626C11.8532 19.9045 11.2328 21.7721 10.1408 23.5152C10.0912 23.5899 10.0664 23.6397 10.0168 23.7144C9.74377 24.1875 9.74377 24.1875 10.1408 24.5361C10.7116 25.0093 11.1832 25.582 11.5058 26.2543C11.605 26.4535 11.7291 26.6527 11.8532 26.827C11.9028 26.9764 11.9525 27.1507 12.0021 27.3002C12.424 29.0183 12.2006 30.7365 11.8284 32.4298C11.7539 32.5045 11.7539 32.5792 11.7539 32.6788C11.5554 33.2515 11.3569 33.8242 11.1335 34.397C11.0591 34.4468 11.0342 34.5464 11.0342 34.6211C10.7364 35.144 10.5627 35.7416 10.3642 36.3143C9.7934 37.8582 9.12334 39.3523 8.27957 40.7965C8.22993 40.8961 8.1803 40.9957 8.13067 41.1203C7.98177 41.195 7.90731 41.3444 7.8825 41.5187C7.75841 41.693 7.60951 41.8673 7.58469 42.1163C7.28689 42.6392 7.28689 42.6392 7.83286 43.0127C7.8825 43.0874 7.93213 43.1372 8.00658 43.1621C8.08103 43.3115 8.20512 43.3863 8.37884 43.3863C10.4635 44.3574 12.5729 44.2329 14.7072 43.5357C15.4517 43.2866 16.221 43.0127 16.8662 42.5147C17.1392 42.3155 17.3626 42.1163 17.5611 41.8424C18.5538 40.5226 18.8516 39.0784 18.5538 37.4598C18.4545 36.9369 18.3801 36.4139 18.1815 35.9159C17.8093 34.9946 17.0399 34.5464 16.1714 34.397C15.005 34.1728 13.9875 34.5464 13.2926 35.5673C13.0444 35.9657 12.8707 36.4139 12.9452 36.912C13.0196 37.3851 13.243 37.5096 13.6648 37.2606C13.8634 37.1361 14.0123 36.9867 14.1612 36.7875C14.2604 36.6132 14.4094 36.4637 14.6327 36.5385C14.8809 36.6132 14.8809 36.8373 14.8809 37.0614C14.8809 38.0823 14.5334 38.3064 13.5656 38.0574C12.9203 37.8831 12.5977 37.41 12.3992 36.8373C12.1262 36.0653 12.1758 35.2934 12.5481 34.5464C12.6225 34.397 12.6722 34.2227 12.7466 34.0732C12.9203 33.9238 12.9948 33.7246 13.1189 33.5254C13.1933 33.4507 13.2678 33.3511 13.3422 33.2764C13.7889 32.9527 14.3101 32.7286 14.8064 32.5294C15.4268 32.3302 16.0224 32.4298 16.6181 32.629C16.767 32.7037 16.9407 32.7535 17.0896 32.8282C17.2385 32.9278 17.4122 33.0274 17.5611 33.127C17.8341 33.4009 18.1319 33.625 18.3552 33.9487C18.4297 34.123 18.4793 34.3223 18.653 34.4219C18.7275 34.5713 18.7771 34.7456 18.926 34.8701C18.9757 35.0693 19.0253 35.2685 19.1494 35.4428C19.2487 35.891 19.3479 36.3641 19.4224 36.8124C19.3976 36.9369 19.4224 37.0614 19.472 37.161C19.4472 37.7835 19.3976 38.3811 19.3727 39.0037C19.2983 39.0784 19.2735 39.1531 19.3231 39.2278C19.2238 39.676 19.1246 40.1491 19.0253 40.5973C18.9508 40.6471 18.9012 40.7218 18.9012 40.8214C18.8516 40.8961 18.8268 40.9708 18.7771 41.0456C18.4793 41.444 18.1815 41.8175 17.8837 42.2159C17.71 42.3653 17.5611 42.5147 17.3874 42.6392C17.2385 42.689 17.1392 42.7637 17.0399 42.8882C16.9159 42.938 16.7918 42.9878 16.6925 43.1123C16.4692 43.187 16.2706 43.2866 16.1217 43.461C15.9728 43.5108 15.7991 43.5855 15.6502 43.6353C15.5013 43.6602 15.3276 43.6851 15.2035 43.8096C14.8809 44.0088 14.5086 44.0586 14.1612 44.1582C12.8459 44.5068 11.5058 44.6064 10.1657 44.3823C9.37151 44.2329 8.55255 44.0337 7.85768 43.5855C7.03872 43.0874 7.06354 43.0625 6.76574 44.0088C6.69129 44.208 6.61683 44.4072 6.59202 44.6064C6.4183 45.5526 6.17013 46.4989 5.92196 47.4451C5.50007 49.1384 5.45044 50.8317 5.64897 52.5498C5.72342 53.1226 5.77306 53.7202 6.09568 54.2431C6.19495 55.0151 6.61683 55.6625 6.91464 56.3348C7.06354 56.6585 7.18762 57.0071 7.55988 57.1565C8.42847 58.0032 9.44596 58.4514 10.662 58.5261C10.7861 58.5261 10.935 58.5261 11.0591 58.5261C11.9277 58.4514 11.9277 58.4514 11.5554 57.6297C11.2824 56.6585 11.0094 55.6874 10.7364 54.7162C10.5379 54.019 10.5875 53.2969 10.4386 52.5997C10.5131 51.7779 10.6372 51.006 11.1335 50.3088C11.5058 49.9352 11.9028 49.6115 12.3992 49.3874C13.3174 48.9641 14.0619 49.238 14.732 49.8854C14.8064 49.9601 14.8809 50.0348 14.9801 50.1344C15.3772 50.7072 15.6006 51.3297 15.6502 52.002C15.675 52.1763 15.6502 52.3506 15.7743 52.4751C15.7743 52.5747 15.7743 52.6993 15.7743 52.7989C15.675 53.4214 15.5757 54.019 15.4765 54.6415C15.4765 54.7162 15.4517 54.7909 15.4517 54.8656C15.2531 55.0151 15.2531 55.2392 15.2531 55.4384C15.2283 55.5131 15.2035 55.5878 15.1787 55.6376C14.9305 56.3348 14.4094 56.8577 14.0371 57.4803C13.8634 57.6795 13.6897 57.8787 13.5159 58.0779C13.367 58.2024 13.2181 58.302 13.0444 58.4265C12.9452 58.4265 12.8707 58.5012 12.8211 58.551C12.4488 58.6008 12.5233 58.8498 12.6225 59.049C12.8707 59.5471 13.0941 60.0451 13.2926 60.568C13.6648 61.5142 13.9875 62.5103 14.2604 63.4814C14.4094 64.1288 14.5334 64.7763 14.6823 65.4237C14.9057 66.4197 14.8064 67.3909 14.4838 68.3371C14.4342 68.4616 14.3845 68.5861 14.4094 68.7106C14.2604 68.9348 14.1364 69.1589 14.0619 69.4079C13.9875 69.4577 13.9378 69.5324 13.913 69.632C13.7889 69.7316 13.6897 69.8561 13.6152 69.9806C13.4663 70.13 13.2926 70.2794 13.1437 70.4288C12.6473 70.7027 12.1758 71.0513 11.5802 71.1012C11.2576 71.2008 10.8605 71.2506 10.4635 71.1012C10.2897 71.0513 10.116 70.9517 9.9423 70.9517C9.7934 70.7525 9.57005 70.628 9.37151 70.5035C9.27225 70.3043 9.04889 70.2794 8.92481 70.1549C8.87517 69.9806 8.72627 69.9059 8.60219 69.8063C8.52774 69.632 8.45329 69.4577 8.35402 69.3083C7.98177 68.6608 7.70878 68.0134 7.60951 67.2664C7.48543 66.4197 7.43579 65.598 7.80805 64.7763C7.98176 64.4028 8.27957 64.1039 8.55256 63.7802C8.80072 63.6308 9.04889 63.4316 9.3467 63.3818C9.9423 63.2822 10.5131 63.3071 10.9598 63.8051C11.0342 63.8798 11.1335 63.9545 11.2328 64.0292C11.2824 64.1289 11.3321 64.2285 11.3817 64.3281C11.3817 64.4277 11.4065 64.5024 11.481 64.5522C11.5554 65.0502 11.5802 65.5482 11.481 66.0462C11.4065 66.1209 11.3321 66.1956 11.3321 66.3201C11.2576 66.4197 11.208 66.5194 11.1335 66.619C10.9846 66.619 10.8853 66.7186 10.7861 66.7933C10.6124 66.8929 10.4138 66.9178 10.2401 66.868C9.76859 66.7684 9.6445 66.4945 9.9423 66.1209C10.4138 65.4984 10.3394 64.8759 10.0416 64.2534C9.86785 63.8549 9.52042 63.6308 9.09853 64.0292C8.27957 64.5024 7.98177 65.2494 7.95695 66.1209C7.93213 66.9427 8.08103 67.7395 8.4781 68.4865C9.02408 69.7814 10.0912 70.2794 11.3569 70.3541C12.2006 70.4039 12.8955 69.9806 13.4167 69.2585C14.5086 67.7146 14.5334 66.0462 14.1115 64.3032C14.0123 63.9047 13.9626 63.4814 13.7641 63.1079C13.7393 62.7842 13.4415 62.5352 13.5159 62.1866C13.4911 61.9874 13.4415 61.7881 13.3174 61.6138C13.2181 61.3399 13.1189 61.066 13.0196 60.7921C12.9948 60.6178 12.9203 60.4684 12.8211 60.319C12.7466 60.1447 12.6722 59.9455 12.5977 59.7712C12.5977 59.5471 12.4488 59.3727 12.3744 59.1984C12.2006 58.8249 12.1758 58.8498 11.7043 58.9743C11.4561 58.9743 11.208 58.9992 10.9846 58.9992C10.3642 59.0241 9.7934 58.8498 9.22261 58.7004C8.80072 58.5759 8.45329 58.2522 8.08103 58.0281C7.65915 57.6297 7.23726 57.2064 6.81537 56.8079C6.66647 56.6336 6.7161 56.3846 6.51757 56.2352C6.49275 56.1107 6.46793 55.9862 6.36866 55.9115C6.36866 55.8119 6.34385 55.7372 6.2694 55.6874C6.07086 54.8656 5.67379 54.1186 5.52489 53.2969C5.4008 52.4004 5.32635 51.5289 5.35117 50.6325C5.37599 49.5617 5.50007 48.5159 5.79788 47.47C5.97159 46.8724 6.07086 46.2499 6.21976 45.6274C6.2694 45.4032 6.31903 45.1542 6.39348 44.9301C6.44312 44.8554 6.49275 44.7807 6.46793 44.6811C6.46793 44.6064 6.49275 44.5317 6.49275 44.457C6.61683 44.208 6.7161 43.9341 6.7161 43.6602C6.79055 43.5606 6.84019 43.4361 6.84019 43.3115C7.06354 43.0376 7.01391 42.8135 6.74092 42.6143C6.64165 42.5396 6.54238 42.4649 6.44312 42.3902C6.34385 42.2408 6.24458 42.1163 6.09568 42.0416C5.89714 41.8175 5.69861 41.5934 5.50007 41.3693C5.32635 40.921 4.97892 40.5973 4.73075 40.1989C4.06069 38.7547 3.71325 37.2855 3.6388 35.6918C3.58917 34.7207 3.56435 33.7495 3.61399 32.7784C3.6388 32.6788 3.66362 32.5543 3.68844 32.4547C3.76289 32.38 3.76289 32.3053 3.73807 32.2057C3.86216 31.6827 3.98624 31.1349 4.11032 30.612C4.35849 30.0642 4.5074 29.4914 4.55703 28.8938C4.38331 28.8938 4.25923 29.0183 4.11032 29.093C3.86216 29.0681 3.66362 29.1926 3.46508 29.2424C3.01838 29.3669 2.54686 29.4167 2.07534 29.4167C1.70308 29.3918 1.40528 29.1428 1.05784 29.1179C0.685588 28.844 0.362968 28.4954 0.164433 28.0721C0.0403479 27.4994 -0.133371 26.9266 0.164433 26.3539C0.288517 26.2294 0.362968 26.0551 0.387785 25.9057C0.437419 25.831 0.51187 25.7314 0.561503 25.6567C0.660771 25.5571 0.760039 25.4575 0.809673 25.333C1.05784 25.0342 1.30601 24.7353 1.55418 24.4614C1.62863 24.4116 1.7279 24.3867 1.80235 24.312C2.96875 23.316 4.33368 23.0172 5.82269 23.0919C6.74092 23.1417 6.74092 23.1417 6.98909 22.2452C6.98909 22.2203 6.98909 22.1705 6.98909 22.1456C7.16281 21.4733 7.46061 20.801 7.48543 20.0788C7.58469 19.7302 7.68396 19.4065 7.65915 19.033C7.68396 18.9334 7.68396 18.8089 7.70878 18.7093C7.80805 18.5599 7.80805 18.4105 7.78323 18.2362C7.80805 18.037 7.83286 17.8626 7.83286 17.6634C7.90731 17.5887 7.90731 17.514 7.8825 17.4144C7.95695 17.2401 7.95695 17.0409 7.93213 16.8417C8.00658 16.7172 8.00658 16.6176 7.93213 16.4931C7.98176 15.8706 7.8825 15.248 7.68396 14.6753C7.68396 14.6255 7.68396 14.5508 7.68396 14.501C7.41098 13.4303 7.43579 13.3804 6.36866 13.231C5.17745 13.0567 4.15996 12.484 3.14246 11.9113C2.79503 11.7121 2.47241 11.5129 2.12497 11.2888C2.07534 11.1892 2.00089 11.1394 1.92643 11.0896C1.77753 10.8903 1.62863 10.716 1.47973 10.5168C1.33083 10.218 1.23156 9.9192 1.05784 9.64529C0.611137 8.84845 0.685588 8.02672 0.958574 7.20499C1.28119 6.80657 1.65345 6.48285 2.05052 6.20894C2.12497 6.18404 2.19942 6.15915 2.24905 6.10934C3.44027 5.58642 4.63148 5.61132 5.82269 6.15914C6.29421 6.38324 6.74092 6.68207 7.23726 6.88128C7.28689 6.98088 7.36134 7.05558 7.46061 7.10538C7.48543 7.15519 7.53506 7.18009 7.55988 7.22989C7.78323 7.5287 8.05622 7.80261 8.35402 8.05162C8.40365 8.15122 8.4781 8.22593 8.55256 8.27573C9.09853 9.02276 9.66932 9.79469 10.2153 10.5417C10.3146 10.6911 10.4635 10.7907 10.6372 10.716C10.7613 10.7409 10.8605 10.7409 10.9598 10.6662C11.0342 10.6662 11.1087 10.6662 11.1832 10.6413C11.4313 10.6911 11.6547 10.6413 11.878 10.5417C12.2255 10.5666 12.5481 10.4421 12.8955 10.3923C13.243 10.4172 13.5159 10.2429 13.8137 10.1184C15.3772 9.42118 16.9407 8.64924 18.3552 7.6781C18.6779 7.45399 18.8019 7.22989 18.6779 6.88128C18.7275 6.40815 18.7523 5.93503 18.8268 5.46191C18.9012 5.01369 18.9757 4.56547 19.1494 4.14216C19.4472 3.39512 19.7698 2.62319 20.2661 1.97576C20.3902 1.90106 20.4647 1.77656 20.4647 1.62715C20.6632 1.42794 20.8369 1.22873 21.0355 1.05442C21.2092 0.905011 21.4077 0.780507 21.5814 0.631101C21.7055 0.581304 21.8296 0.506597 21.9041 0.382092C22.2763 0.0583773 22.7727 -0.0661268 23.2938 0.0334826ZM58.8317 10.7658C58.782 10.7658 58.7572 10.7409 58.7324 10.6911C58.7572 10.7409 58.8068 10.7658 58.8317 10.7658ZM59.2287 10.5417C59.2535 10.5666 59.2784 10.5915 59.3032 10.5915C59.328 10.5915 59.3528 10.5417 59.3776 10.5417C59.3528 10.5168 59.328 10.4919 59.3032 10.4919C59.2784 10.4919 59.2535 10.5168 59.2287 10.5417ZM45.8028 17.3895C45.8028 17.4144 45.8276 17.4393 45.8276 17.4642C45.8276 17.4393 45.8276 17.4144 45.8028 17.3895ZM44.4378 17.5638C44.4378 17.5887 44.4627 17.6385 44.4875 17.6385C44.5619 17.6385 44.5867 17.6136 44.5867 17.5389C44.5867 17.514 44.5371 17.4891 44.5371 17.4642C44.4875 17.4642 44.4378 17.4891 44.4378 17.5638ZM50.1705 14.4512C50.245 14.4263 50.3195 14.3765 50.2946 14.3018C50.2202 14.1773 50.1457 14.252 50.0713 14.3267C50.0465 14.3516 49.9968 14.4014 50.0216 14.4263C50.0465 14.4761 50.1209 14.4761 50.1705 14.4512ZM49.4012 14.9741C49.3764 14.9741 49.3516 14.9741 49.3268 14.9741C49.3764 14.9741 49.3764 14.9741 49.4012 14.9741ZM49.6246 15.0239C49.6494 15.0488 49.699 15.0737 49.7238 15.0986C49.699 15.0737 49.6742 15.0488 49.6246 15.0239ZM48.8304 15.4472L48.8056 15.4721C48.8056 15.4472 48.8056 15.4472 48.8304 15.4472ZM48.4582 15.8208C48.4085 15.8457 48.3837 15.8457 48.3589 15.8955C48.3837 15.8457 48.4085 15.8208 48.4582 15.8208C48.483 15.8457 48.5326 15.8457 48.5326 15.8706C48.5326 15.8457 48.483 15.8208 48.4582 15.8208ZM47.5648 16.767C47.5648 16.767 47.5896 16.7919 47.5896 16.8168C47.5648 16.7919 47.5648 16.767 47.5648 16.767ZM43.6437 16.8417C43.6437 16.9164 43.6933 16.9413 43.743 16.9413C43.8174 16.9413 43.867 16.8915 43.8919 16.8168C43.8919 16.7421 43.8422 16.7172 43.7926 16.7172C43.743 16.7172 43.6685 16.767 43.6437 16.8417ZM45.9268 16.7172C45.9268 16.7172 45.9517 16.6923 45.9765 16.6923C46.0013 16.6923 46.0509 16.6923 46.0758 16.7172C46.0509 16.6923 46.0261 16.6923 45.9765 16.6923C45.9517 16.6923 45.9268 16.6923 45.9268 16.7172ZM46.6217 16.5927C46.5969 16.6674 46.6714 16.7172 46.7458 16.7172C46.8203 16.7172 46.8947 16.6674 46.8947 16.5927C46.8947 16.518 46.8451 16.4931 46.7954 16.4931C46.721 16.4931 46.6465 16.518 46.6217 16.5927ZM45.4305 13.1314C44.4875 13.5797 43.8422 14.3267 43.3707 15.248C43.1225 15.771 43.2714 16.1196 43.7926 16.3437C44.2641 16.5429 44.7605 16.5678 45.2568 16.4931C46.721 16.2939 48.0115 15.7461 49.1531 14.7749C49.8976 14.1524 50.5924 13.4801 51.1384 12.6832C51.2625 12.5089 51.4114 12.3844 51.461 12.1105C49.3268 11.9611 47.3414 12.235 45.4305 13.1314ZM40.0949 13.3307C40.0949 13.2559 40.0701 13.1812 40.0204 13.1563C40.0701 13.2061 40.0949 13.2559 40.0949 13.3307ZM40.0701 13.8038C40.1445 13.8038 40.219 13.7789 40.2686 13.7789C40.219 13.7042 40.2686 13.5548 40.0949 13.5548C39.9708 13.5548 39.9708 13.6793 39.9708 13.754C40.0204 13.7789 40.0452 13.7789 40.0701 13.8038ZM40.8642 13.4552C40.8642 13.3555 40.7649 13.3555 40.6905 13.3805C40.6657 13.4552 40.6657 13.505 40.6408 13.5797C40.7401 13.5548 40.8642 13.5797 40.8642 13.4552ZM41.8072 13.3805C41.8072 13.4303 41.7328 13.4552 41.6832 13.4552C41.7328 13.4552 41.7824 13.4303 41.8072 13.3805ZM41.6583 13.4552V13.4801C41.6583 13.4801 41.6583 13.4801 41.6583 13.4552ZM40.6408 13.6793C40.5168 13.6544 40.4175 13.754 40.2934 13.7789C40.2934 13.8287 40.2934 13.8536 40.2686 13.9034C40.5168 14.0279 40.5664 14.003 40.6408 13.6793ZM39.6234 13.9034C39.5985 13.8038 39.6234 13.7291 39.6978 13.6793C39.8963 13.5797 39.8219 13.4552 39.7474 13.3307C39.6978 13.3555 39.6234 13.3555 39.5737 13.3805C39.5985 13.6295 39.2759 13.6793 39.3007 13.9283C39.3752 13.9283 39.4993 13.9283 39.6234 13.9034C39.6482 13.9781 39.673 14.0279 39.7474 14.0528C39.673 14.0279 39.6234 13.9781 39.6234 13.9034ZM39.0277 13.9034C39.0277 13.8785 39.0277 13.8785 39.0029 13.8785C39.0029 13.8785 39.0277 13.8785 39.0277 13.9034ZM38.8292 13.8287C38.8044 13.8038 38.8044 13.8038 38.7796 13.7789C38.8044 13.7789 38.8292 13.8038 38.8292 13.8287ZM37.8862 13.6295C37.911 13.6544 37.9358 13.7042 37.9606 13.7042C38.0103 13.7291 38.0599 13.6793 38.0599 13.6295C38.0599 13.6046 38.0103 13.5797 37.9854 13.5797C37.9358 13.5797 37.911 13.6046 37.8862 13.6295ZM37.1913 13.0567C37.2161 13.0567 37.2161 13.0567 37.2409 13.0816C37.2409 13.0816 37.2161 13.0567 37.1913 13.0567ZM38.5562 10.0437C38.7051 10.3425 38.8788 10.1682 39.0277 10.1184C39.0774 10.0935 39.127 10.0437 39.1518 10.0188C38.9285 9.69509 38.7548 9.969 38.5562 10.0437ZM38.3825 9.8445C38.3825 9.8196 38.3577 9.8196 38.3577 9.8196C38.3577 9.8196 38.3577 9.8196 38.3825 9.8445ZM38.4073 9.19707C38.3825 9.19707 38.3329 9.17217 38.3081 9.14727C38.3577 9.17217 38.3825 9.19707 38.4073 9.19707ZM39.2511 9.24687C39.2759 9.14727 39.1766 9.12236 39.1022 9.12236C39.0029 9.12236 38.9037 9.14727 38.9037 9.27177C38.9037 9.32158 38.9533 9.34648 39.0029 9.34648C39.1022 9.34648 39.2263 9.37138 39.2511 9.24687ZM14.186 37.4349C14.1612 37.41 14.1612 37.41 14.1364 37.3851C14.1612 37.41 14.186 37.41 14.186 37.4349ZM14.0867 37.3353L14.0619 37.3602C14.0867 37.3602 14.0867 37.3602 14.0867 37.3353ZM16.1217 32.8531C16.1465 32.8531 16.1465 32.878 16.1465 32.9029C16.1465 32.878 16.1217 32.878 16.1217 32.8531ZM15.675 33.2017C15.6502 33.2266 15.6502 33.2515 15.6254 33.2764C15.6254 33.2266 15.6502 33.2017 15.675 33.2017ZM14.5583 33.2266C14.5583 33.2515 14.5583 33.2764 14.5583 33.3262C14.5334 33.2764 14.5583 33.2515 14.5583 33.2266ZM17.3377 33.5503C17.2633 33.5005 17.1888 33.5752 17.1888 33.6499C17.1888 33.7246 17.2385 33.7246 17.2881 33.7246C17.3377 33.7246 17.3874 33.7246 17.437 33.6997C17.437 33.6748 17.4122 33.5752 17.3377 33.5503ZM17.6852 33.9238C17.71 33.8989 17.7348 33.874 17.7348 33.8491C17.7348 33.7744 17.6852 33.7744 17.6107 33.7744C17.5611 33.7744 17.5115 33.7744 17.4618 33.7495C17.4866 33.7993 17.5115 33.8491 17.5363 33.8989C17.5859 33.9238 17.6356 33.9487 17.6852 33.9238ZM16.9159 34.0981C16.891 34.123 16.8662 34.123 16.8414 34.148C16.8662 34.123 16.891 34.0981 16.9159 34.0981ZM18.4049 34.8452C18.4545 34.8203 18.4545 34.7954 18.4297 34.7456C18.4049 34.6958 18.3552 34.6709 18.3056 34.6958C18.2808 34.7207 18.2808 34.7705 18.256 34.7954C18.3056 34.8701 18.3552 34.8701 18.4049 34.8452ZM18.6779 35.2685C18.7027 35.2187 18.6779 35.1689 18.6034 35.144C18.5786 35.144 18.529 35.1689 18.5041 35.1938C18.4793 35.2436 18.5041 35.2934 18.5538 35.3183C18.653 35.3183 18.6779 35.3183 18.6779 35.2685ZM18.8764 35.7167C18.8764 35.642 18.8516 35.6171 18.7771 35.6171C18.7523 35.6171 18.7275 35.642 18.7027 35.6918C18.6779 35.7416 18.7027 35.7914 18.7771 35.7914C18.8268 35.7665 18.8516 35.7416 18.8764 35.7167ZM19.1246 36.912C19.1246 36.8871 19.0501 36.8622 19.0253 36.8871C19.0005 36.8871 19.0005 36.9369 18.9757 36.9867C19.0005 37.0116 19.0253 37.0365 19.0501 37.0365C19.1246 37.0116 19.1494 36.9618 19.1246 36.912ZM19.1246 38.4807C19.0997 38.4558 19.0998 38.406 19.0749 38.3811C19.0998 38.4309 19.0997 38.4558 19.1246 38.4807ZM19.1246 37.6839C19.0749 37.7088 19.0501 37.7337 19.0501 37.7835C19.0749 37.7337 19.0997 37.7088 19.1246 37.6839C19.1494 37.6839 19.199 37.7088 19.2238 37.7088C19.2238 37.7088 19.1742 37.7088 19.1246 37.6839ZM11.3569 54.6166C11.3569 54.6415 11.3569 54.6415 11.3569 54.6664C11.3321 54.6664 11.3321 54.6415 11.3569 54.6166ZM11.2824 52.2261C11.2824 52.2759 11.2824 52.3257 11.3321 52.3257C11.2824 52.3008 11.2576 52.2759 11.2824 52.2261C11.2824 52.2012 11.3072 52.1514 11.3321 52.1265C11.3072 52.1514 11.2824 52.1763 11.2824 52.2261ZM11.4313 51.504C11.4065 51.504 11.3817 51.5289 11.3569 51.5538C11.3817 51.5538 11.4065 51.5289 11.4313 51.504C11.481 51.4542 11.5058 51.4293 11.5554 51.3795C11.5058 51.4293 11.481 51.4791 11.4313 51.504ZM11.8036 51.6285C11.8284 51.6036 11.8532 51.5538 11.878 51.5538C11.8532 51.5787 11.8284 51.6036 11.8036 51.6285ZM11.3321 51.5289L11.3569 51.5538C11.3321 51.5538 11.3321 51.5289 11.3321 51.5289ZM11.9277 50.8317C11.878 50.8815 11.7788 50.9064 11.8284 50.9811C11.878 51.0558 11.9525 51.006 12.0021 50.9313C12.0517 50.9064 12.1014 50.8566 12.0517 50.8068C12.0269 50.7819 11.9773 50.8068 11.9277 50.8317ZM12.2751 50.5329C12.2503 50.5827 12.2751 50.6574 12.3247 50.6574C12.4488 50.6823 12.5233 50.5827 12.5977 50.4831C12.6225 50.4333 12.5977 50.3835 12.5233 50.3586C12.424 50.3586 12.3495 50.4333 12.2751 50.5329ZM13.1933 57.8289C13.8882 57.1814 14.4094 56.4344 14.8064 55.5629C14.8312 55.4882 14.8312 55.3637 14.8561 55.289C14.9305 55.2392 14.9553 55.1396 14.9553 55.0649C15.0546 54.9653 15.0546 54.8407 15.0546 54.7162C15.5509 53.6455 15.4765 52.5249 15.2779 51.4044C15.1787 50.9313 14.9057 50.5329 14.5831 50.1842C14.2853 49.8605 13.64 49.9352 13.243 50.3088C13.0196 50.508 12.8955 50.757 12.7963 51.0309C12.3495 52.2012 12.1014 53.3965 12.0766 54.6415C12.0766 54.8905 11.9773 55.1396 12.0517 55.3886C12.0517 56.3597 12.1262 57.306 12.4488 58.2273C12.7963 58.1526 12.9948 58.0032 13.1933 57.8289ZM10.1905 66.4197C10.2153 66.4197 10.2153 66.4197 10.2401 66.4197C10.2401 66.4197 10.2153 66.4197 10.1905 66.4197ZM10.8853 65.9715C10.8109 66.0213 10.7364 66.0462 10.7116 66.1458C10.662 66.1707 10.6124 66.1956 10.6124 66.2703C10.5875 66.2952 10.5379 66.345 10.5379 66.345C10.5875 66.3948 10.6372 66.3699 10.6868 66.345C10.7364 66.3201 10.7613 66.2952 10.8109 66.2454C10.8853 66.1956 10.9598 66.1458 10.9846 66.0462C11.0591 65.9964 11.0839 65.9466 11.0342 65.8968C10.9598 65.8221 10.935 65.9217 10.8853 65.9715ZM10.389 64.6518C10.389 64.7265 10.4386 64.7514 10.4883 64.7514C10.5131 64.7514 10.5627 64.7514 10.5875 64.7763C10.5875 64.7514 10.5627 64.7016 10.5627 64.6767C10.5379 64.6269 10.5131 64.5771 10.4386 64.5771C10.4386 64.5771 10.4138 64.6269 10.389 64.6518ZM8.45329 24.81C8.60219 24.6357 8.60219 24.4614 8.40365 24.3369C8.3292 24.2871 8.27957 24.2373 8.22993 24.2124C7.33653 23.5401 7.18762 23.5899 6.81537 24.6606C6.64165 25.1587 6.44312 25.6567 6.2694 26.1547C6.21976 26.2543 6.14531 26.3539 6.24458 26.5033C6.81537 26.2543 7.31171 25.9057 7.78323 25.5073C8.0314 25.2832 8.25475 25.0591 8.45329 24.81ZM10.6124 26.1049C10.5875 26.1049 10.5627 26.1049 10.5627 26.1298C10.5627 26.1298 10.5875 26.1049 10.6124 26.1049C10.6372 26.1298 10.662 26.1547 10.662 26.1547C10.6372 26.1547 10.6124 26.1298 10.6124 26.1049ZM10.8605 26.7772C10.8853 26.7772 10.9102 26.7025 10.8853 26.6776C10.8853 26.6527 10.8357 26.6527 10.8109 26.6278C10.7861 26.6527 10.7613 26.6776 10.7613 26.7025C10.7613 26.7772 10.7861 26.8021 10.8605 26.7772ZM11.3817 28.4705C11.3321 28.4705 11.2576 28.4705 11.208 28.4705C11.1583 28.5701 11.1335 28.7195 11.2576 28.7444C11.4313 28.7444 11.4065 28.595 11.3817 28.4705ZM11.605 29.1428C11.6795 29.0681 11.6547 28.9685 11.605 28.8938C11.5802 28.844 11.5306 28.8191 11.4561 28.844C11.3817 28.9187 11.3569 28.9934 11.4065 29.093C11.4561 29.1677 11.5306 29.2175 11.605 29.1428ZM11.3569 29.5412C11.3817 29.4914 11.3817 29.4416 11.3817 29.3918C11.3817 29.3918 11.3321 29.3669 11.3072 29.3669C11.3072 29.4167 11.2824 29.4665 11.2824 29.5164C11.2824 29.5413 11.2824 29.5911 11.2824 29.616C11.3321 29.5911 11.3569 29.5662 11.3569 29.5412ZM11.2824 29.616C11.2576 29.616 11.208 29.616 11.1832 29.616C11.2328 29.616 11.2576 29.616 11.2824 29.616ZM11.5802 30.3381C11.5802 30.2883 11.5554 30.2385 11.481 30.2385C11.4561 30.2385 11.4313 30.2883 11.4313 30.3132C11.4313 30.3381 11.4561 30.3879 11.4561 30.4128C11.5058 30.4128 11.5554 30.3879 11.5802 30.3381ZM11.4561 31.2096C11.4313 31.1598 11.4065 31.11 11.3569 31.1349C11.3321 31.1598 11.3072 31.2096 11.3072 31.2594C11.3072 31.2594 11.3569 31.3092 11.3817 31.3092C11.4313 31.3092 11.4561 31.2594 11.4561 31.2096ZM11.0591 32.7286C11.0839 32.7286 11.1335 32.7535 11.1335 32.7535C11.1335 32.7286 11.0839 32.7286 11.0591 32.7286ZM9.99194 36.5136C10.0168 36.5385 10.0416 36.5634 10.0416 36.5883C10.0416 36.5883 9.99194 36.5634 9.99194 36.5136ZM9.7934 37.1361C9.7934 37.1112 9.74377 37.0863 9.71895 37.0863C9.61968 37.0863 9.61968 37.161 9.59487 37.2357C9.59487 37.2855 9.59487 37.3353 9.59487 37.3851C9.6445 37.3602 9.69413 37.3602 9.74377 37.3353C9.7934 37.2855 9.81822 37.2108 9.7934 37.1361ZM9.57005 37.41C9.4956 37.3851 9.39633 37.3353 9.3467 37.3602C9.42115 37.3104 9.4956 37.3851 9.57005 37.41ZM9.17298 38.4309C9.24743 38.406 9.32188 38.3313 9.29706 38.2317C9.29706 38.1819 9.22261 38.1321 9.17298 38.157C9.09853 38.1819 8.99926 38.2317 9.02408 38.3562C9.04889 38.406 9.09853 38.4309 9.17298 38.4309ZM8.97444 38.8045C8.97444 38.7546 8.92481 38.7048 8.87518 38.7048C8.77591 38.7048 8.77591 38.7796 8.77591 38.8543C8.77591 38.9041 8.80072 38.9539 8.87518 38.9539C8.97444 38.9539 8.97444 38.8792 8.97444 38.8045ZM8.57737 39.3772C8.60219 39.427 8.62701 39.4519 8.67664 39.427C8.60219 39.4519 8.57737 39.4021 8.57737 39.3772ZM4.45776 28.8191C4.48258 28.7693 4.48258 28.7693 4.45776 28.8191V28.8191ZM2.32351 28.346V28.3211C2.32351 28.3211 2.32351 28.3211 2.32351 28.346ZM5.54971 28.1717C5.47526 28.2215 5.4008 28.2962 5.37599 28.3958C5.02855 29.1179 4.6563 29.8401 4.48258 30.6369C4.15996 31.5831 3.88697 32.5792 3.83734 33.5752C3.7877 35.0693 3.91179 36.5385 4.23441 37.9827C4.60666 39.7009 5.59934 41.0206 6.865 42.1412C6.91464 42.191 6.98909 42.2159 7.06354 42.2657C7.36134 41.7179 7.53506 41.1701 7.7336 40.6222C8.4781 38.655 9.27225 36.6879 9.86785 34.646C10.1905 33.5752 10.5379 32.5045 10.7116 31.3839C10.7861 30.9108 10.7613 30.4377 10.7861 29.9646C10.8109 28.6946 10.6124 27.4247 10.0416 26.2543C9.81822 25.8061 9.52042 25.4326 9.17298 25.0591C8.85036 25.2334 8.80072 25.6816 8.4781 25.8559C8.15548 26.0551 7.90731 26.329 7.65915 26.6278C7.55988 26.7523 7.36134 26.7523 7.31171 26.9515C6.7161 27.35 6.1205 27.7733 5.54971 28.1717ZM5.57452 27.6986C5.59934 27.6737 5.62416 27.6737 5.64897 27.6488C5.64897 27.6488 5.62416 27.6737 5.57452 27.6986ZM0.611137 25.9804C0.164433 26.6776 0.387785 27.4745 1.03303 27.7982C1.28119 27.9227 1.52936 27.9227 1.75272 27.8729C2.81984 27.6986 3.88697 27.4994 4.90447 27.076C5.103 27.0013 5.22709 26.9017 5.27672 26.6776C5.52489 25.7314 5.84751 24.7851 6.21976 23.8638C6.34385 23.5401 6.29421 23.4654 5.94678 23.4405C5.69861 23.4156 5.45044 23.4156 5.20227 23.3907C3.16728 23.3409 1.67827 24.2871 0.611137 25.9804ZM8.37884 13.505C8.30439 13.6793 8.37884 13.8287 8.40365 13.9532C8.85036 15.771 8.75109 17.5887 8.42847 19.4065C8.22993 20.5271 7.90731 21.6227 7.55988 22.7184C7.48543 22.9923 7.48543 23.1666 7.78323 23.2662C8.20512 23.4156 8.60219 23.5899 8.97444 23.814C9.19779 23.9385 9.37151 23.8887 9.52042 23.6895C9.74377 23.3658 9.99194 23.0421 10.1905 22.6935C10.9102 21.4733 11.3072 20.1037 11.5058 18.7093C11.5554 18.3109 11.5802 17.9124 11.6547 17.514C11.8036 16.518 11.6299 15.5717 11.4313 14.6255C11.4065 14.4761 11.3569 14.3267 11.2824 14.2022C10.9102 13.4801 10.9102 13.4552 10.2153 13.5299C9.84304 13.5797 9.44596 13.505 9.07371 13.4801C8.85036 13.4801 8.62701 13.4552 8.37884 13.505ZM23.8894 1.57734C23.8398 1.60225 23.815 1.62715 23.815 1.65205C23.815 1.62715 23.8646 1.60225 23.8894 1.57734ZM24.1376 2.54848C24.212 2.54848 24.2865 2.49868 24.2617 2.39908C24.2369 2.34928 24.1624 2.34928 24.1128 2.37418C24.0631 2.39908 24.0135 2.42398 24.0135 2.49868C24.0383 2.54849 24.088 2.54848 24.1376 2.54848ZM23.3931 10.5666C24.9317 10.8903 26.4952 10.8654 28.0338 10.467C28.8528 10.2678 29.6966 10.0686 30.4907 9.7698C31.6075 9.34647 32.6498 8.77375 33.6921 8.15122C35.2059 7.25478 36.6453 6.20894 38.2832 5.48681C39.4248 4.98879 40.5912 4.61528 41.8072 4.36626C42.0058 4.21686 41.9313 4.09235 41.8072 3.94294C40.7649 2.42398 39.3256 1.47773 37.5884 0.929914C37.2409 0.830304 36.8439 0.805409 36.5957 0.481694C36.5709 0.481694 36.5461 0.456792 36.5461 0.456792C36.5212 0.456792 36.5212 0.481694 36.4964 0.481694C36.422 0.631101 36.2979 0.556394 36.1986 0.556394C34.66 0.382085 33.1461 0.481702 31.6571 0.780515C31.3841 0.830312 31.0863 0.929914 30.7885 0.830312C30.7389 0.830312 30.7141 0.830304 30.6893 0.805409C30.6893 0.805409 30.6893 0.805409 30.6893 0.830312C30.5404 1.15402 30.2177 1.07932 29.9696 1.17892C29.8951 1.25363 29.8207 1.27853 29.7214 1.27853C29.6221 1.32834 29.5229 1.40304 29.4236 1.27853C29.4236 1.52755 29.2002 1.47774 29.0513 1.52755C28.8776 1.67695 28.6791 1.75165 28.4557 1.80145C28.3068 1.90105 28.1827 1.97576 28.009 1.97576C27.7609 2.17497 27.4879 2.27457 27.1901 2.37418C27.1653 2.37418 27.1156 2.39908 27.0908 2.39908C27.0412 2.44888 26.9667 2.49868 26.8923 2.52359C26.8426 2.54849 26.793 2.54848 26.7434 2.57338C26.6441 2.67299 26.5448 2.74769 26.4207 2.74769C26.2967 2.8722 26.1229 2.922 25.9492 2.99671C25.7755 3.07141 25.6018 3.14611 25.4281 3.22081C25.0558 3.37022 24.8573 3.59433 24.7828 4.04255C24.5595 5.51171 23.9887 6.80656 23.0953 8.00182C22.6734 8.57454 22.2515 9.12237 21.7055 9.59549C21.6311 9.67019 21.5566 9.76979 21.4822 9.8694C22.0281 10.3425 22.723 10.4172 23.3931 10.5666ZM24.3858 4.19195C24.4106 4.16705 24.3858 4.11725 24.3858 4.09235C24.2369 4.01765 24.1376 4.09235 24.0631 4.21686C24.1872 4.31646 24.2865 4.29156 24.3858 4.19195ZM23.8894 4.98879C23.815 5.01369 23.7405 5.03859 23.7405 5.1133C23.7405 5.1631 23.7901 5.188 23.8646 5.188C23.9391 5.188 24.0135 5.1382 24.0135 5.06349C23.9887 5.01369 23.9391 4.98879 23.8894 4.98879ZM23.4923 6.50776C23.5172 6.50776 23.542 6.53265 23.5668 6.53265C23.5668 6.50776 23.5172 6.50776 23.4923 6.50776C23.4427 6.53266 23.4179 6.55756 23.4179 6.58246C23.4179 6.53266 23.4675 6.50776 23.4923 6.50776ZM8.40365 13.1065C9.07371 13.1314 9.71895 13.1812 10.389 13.2061C10.7116 13.2061 10.7364 13.1314 10.5875 12.8575C10.2401 12.235 9.7934 11.7121 9.37151 11.1643C9.27225 11.0397 9.09853 10.9899 8.97444 10.965C8.37884 10.8903 7.78323 10.8156 7.18762 10.7658C7.16281 10.7907 7.13799 10.8405 7.11317 10.8654C7.53506 11.488 7.83286 12.1354 8.10585 12.8326C8.13067 13.0318 8.22993 13.1065 8.40365 13.1065ZM10.1657 11.5627C10.1905 11.5876 10.2401 11.5876 10.2401 11.6125C10.2401 11.5876 10.1905 11.5627 10.1657 11.5627ZM9.91749 11.239C9.99194 11.2141 9.99194 11.1643 9.96712 11.1145C9.9423 11.0646 9.89267 11.0398 9.81822 11.0646C9.7934 11.0646 9.7934 11.1144 9.7934 11.1643C9.81822 11.2141 9.86785 11.2639 9.91749 11.239ZM6.21976 10.6911C6.21976 10.716 6.24458 10.7658 6.24458 10.7907C6.24458 10.7658 6.24458 10.7409 6.21976 10.6911ZM2.52204 6.43305C2.52204 6.45795 2.54686 6.48286 2.54686 6.50776C2.54686 6.48286 2.54686 6.45795 2.52204 6.43305ZM3.01838 6.33345H2.99356C2.99356 6.33345 2.99356 6.33345 3.01838 6.33345ZM2.57167 6.50776C2.54686 6.50776 2.54686 6.53265 2.52204 6.53265C2.52204 6.53265 2.54686 6.53266 2.57167 6.50776ZM4.9541 6.80657C4.90447 6.80657 4.87965 6.83147 4.87965 6.88128C4.87965 6.85637 4.90447 6.83147 4.9541 6.80657ZM6.24458 7.32949C6.21976 7.35439 6.21976 7.40419 6.19495 7.40419C6.19495 7.40419 6.21976 7.35439 6.24458 7.32949ZM6.93945 7.45399C6.91464 7.45399 6.91464 7.5038 6.88982 7.5287C6.91464 7.5287 6.91464 7.47889 6.93945 7.45399ZM7.31171 8.17612C7.13799 8.17612 7.08836 8.27573 7.06354 8.42513C7.18762 8.40023 7.28689 8.37533 7.41098 8.42513C7.43579 8.30063 7.58469 8.15122 7.31171 8.17612ZM7.70878 8.57454C7.70878 8.40024 7.51024 8.49984 7.43579 8.42513C7.43579 8.52474 7.43579 8.64924 7.43579 8.74885L7.46061 8.72395C7.53506 8.69905 7.68396 8.69905 7.70878 8.57454ZM9.22261 10.0686C9.19779 10.0686 9.14816 10.1184 9.14816 10.0935C9.14816 10.0935 9.19779 10.0686 9.22261 10.0686ZM9.37151 10.3425C9.32188 10.3425 9.29706 10.3674 9.27225 10.3923C9.27225 10.3674 9.32188 10.3425 9.37151 10.3425ZM5.45044 9.7698C5.47526 9.79469 5.50007 9.8196 5.50007 9.8445C5.47526 9.8196 5.45044 9.79469 5.45044 9.7698ZM4.38331 9.74489C4.01106 9.62039 3.66362 9.39628 3.36582 9.12236C3.0432 8.82355 2.96875 8.47494 3.11765 8.15122C3.26655 7.82751 3.68844 7.6532 4.08551 7.72791C4.73075 7.87731 5.22709 8.22593 5.59934 8.74885C5.89714 9.17217 6.19495 9.62039 6.54238 10.0437C6.61683 10.1433 6.69129 10.2678 6.84019 10.2927C7.48543 10.467 8.13067 10.5666 8.77591 10.5915C8.85036 10.3674 8.72627 10.2927 8.65182 10.218C8.30439 9.8196 7.93213 9.44608 7.58469 9.04766C7.51024 8.97296 7.38616 8.92316 7.43579 8.77375C7.21244 8.77375 7.06354 8.69905 7.08836 8.45004C6.91464 8.52474 6.81537 8.37533 6.7161 8.30063C6.17013 7.90221 5.59934 7.5287 4.97892 7.25479C4.38331 6.98088 3.7877 6.78167 3.11765 6.88128C2.67094 6.83147 2.24905 6.88128 1.82717 7.00578C1.15711 7.20499 0.884124 7.6034 0.90894 8.30063C0.90894 8.64924 0.958574 9.02276 1.20674 9.32158C1.50455 10.0686 1.8768 10.8156 2.59649 11.2141C3.341 11.6374 4.03587 12.1354 4.85483 12.3844C5.02855 12.4342 5.20227 12.5089 5.4008 12.5836C5.50007 12.6832 5.59934 12.7579 5.74824 12.733C5.92196 12.7579 6.1205 12.7828 6.29421 12.7828C6.49275 12.8824 6.7161 12.9322 7.01391 12.8824C6.66647 12.2599 6.5672 11.5627 5.94678 11.1643C5.54971 10.5168 5.12782 9.969 4.38331 9.74489ZM4.08551 9.22197C4.11032 9.19707 4.13514 9.17217 4.13514 9.17217C4.13514 9.19707 4.11032 9.19707 4.08551 9.22197ZM18.2808 7.97692C17.9334 8.20103 17.5611 8.42513 17.2137 8.62434C16.0969 9.32157 14.8809 9.8445 13.6897 10.3923C13.1189 10.6413 12.4984 10.6911 11.9277 10.8156C11.6795 10.8654 11.4313 10.9152 11.208 10.965C11.1831 10.965 11.1583 10.965 11.1583 10.965C10.9598 10.9899 10.6868 10.8903 10.5875 11.0646C10.4883 11.2888 10.7116 11.4631 10.8605 11.6125C11.0094 11.9611 11.1831 12.3097 11.3321 12.6334C11.3569 12.8575 11.3569 13.0816 11.6547 13.1065C11.7291 13.1065 11.8036 13.1065 11.878 13.0816C11.9525 13.1065 12.0517 13.1065 12.1262 13.0567C14.5334 12.733 16.7918 11.986 18.926 10.8654C19.2735 10.6911 19.5465 10.4421 19.8443 10.1931C19.9932 10.0686 20.018 9.9441 19.8691 9.8196C19.7946 9.74489 19.745 9.67019 19.6705 9.62039C19.199 9.24687 18.9757 8.72395 18.7771 8.20103C18.6034 7.7528 18.6034 7.75281 18.2808 7.97692ZM19.4224 7.15518C19.199 7.30459 19.1494 7.454 19.2486 7.72791C19.472 8.30063 19.745 8.84845 20.2413 9.24687C20.5888 9.52078 20.688 9.52078 21.0107 9.22197C21.7552 8.47494 22.4252 7.65321 22.8471 6.70697C23.1449 6.05954 23.1945 5.3125 23.3186 4.59037C23.3683 4.36626 23.1945 4.41607 23.0456 4.46587C22.9464 4.59037 22.8471 4.68998 22.6982 4.71488H22.6734C22.6734 4.73978 22.6486 4.73978 22.6486 4.76468C22.5245 4.83939 22.4004 4.91409 22.2763 4.98879H22.2515C22.2267 5.01369 22.2019 5.0635 22.177 5.08839C21.8544 5.3125 21.507 5.53662 21.1844 5.73582C21.1596 5.76072 21.1347 5.76072 21.1099 5.76072C21.0851 5.78563 21.0603 5.81053 21.0355 5.83543C20.9858 5.86033 20.961 5.91013 20.9114 5.93503C20.7873 6.10933 20.6384 6.20894 20.4647 6.30855C20.1917 6.65716 19.7946 6.88127 19.4224 7.15518ZM21.8792 0.805409C21.3333 1.05442 20.8866 1.40304 20.5639 1.92595C20.1172 2.59829 19.745 3.29552 19.4224 4.01765C19.0501 4.93899 18.9508 5.93503 19.1246 6.90617C19.472 6.65716 19.7946 6.43305 20.1421 6.18404C20.3158 5.95993 20.5143 5.76072 20.7625 5.66111C20.7873 5.63621 20.8369 5.61132 20.8618 5.58642C20.8866 5.56151 20.9114 5.56151 20.9362 5.56151C20.961 5.51171 20.9858 5.46191 21.0355 5.41211C21.2588 5.2627 21.507 5.08839 21.7303 4.96389C21.8544 4.88919 21.9289 4.73978 22.1026 4.83938C22.1026 4.59037 22.3011 4.54057 22.45 4.49077C22.5741 4.34137 22.723 4.24176 22.9216 4.16705C23.3683 3.96785 23.4923 3.61924 23.4923 3.14612C23.4923 2.62319 23.4923 2.07536 23.3683 1.55244C23.2194 0.830304 22.5989 0.506597 21.8792 0.805409Z" fill="#AA9272"/>
</svg>
