<svg width="48" height="38" viewBox="0 0 48 38" fill="none" xmlns="http://www.w3.org/2000/svg">
<path d="M40.0004 35.5438C39.9472 35.2825 39.7342 35.1257 39.4681 35.1257L36.7 34.8121C36.5935 34.8121 36.4871 34.7076 36.4871 34.6031L34.8369 26.137C36.4871 25.5099 38.084 23.9943 38.0308 21.4336C38.0308 21.3291 38.0308 21.2768 38.0308 21.1723C37.8711 18.4548 36.3806 10.8771 36.3274 10.5636C36.3274 10.5113 36.2742 10.459 36.2742 10.4068C35.6886 9.36158 31.643 10.041 30.8445 10.1977C30.1525 10.3023 27.2247 10.9294 26.2133 11.8178C25.0422 11.0339 22.4871 10.459 21.7951 10.3023C20.9433 10.1455 16.8445 9.36158 16.3122 10.4068C16.2589 10.4068 16.2589 10.459 16.2589 10.459C16.1525 10.9294 14.2893 18.1935 14.0232 20.8065C14.0232 20.911 14.0232 21.0155 13.97 21.1201C13.97 21.2768 13.97 21.4336 13.97 21.5381C13.97 21.5904 13.97 21.6427 13.97 21.6949C13.97 21.7994 13.97 21.904 13.97 21.9562C13.97 22.0085 13.97 22.0607 13.97 22.113C13.97 22.2175 13.97 22.2698 14.0232 22.3743C14.1297 22.4266 14.1297 22.4788 14.1297 22.5833C14.1297 22.6356 14.1829 22.7401 14.1829 22.7924C14.1829 22.8446 14.2361 22.8969 14.2361 22.9492C14.2361 23.0014 14.2893 23.1059 14.2893 23.1582C14.2893 23.2105 14.3426 23.2627 14.3426 23.315C14.3958 23.3672 14.3958 23.4717 14.449 23.524C14.5023 23.5763 14.5023 23.6285 14.5555 23.6808C14.6087 23.733 14.6087 23.7853 14.662 23.8898C14.662 23.9421 14.7152 23.9943 14.7152 24.0466C14.7684 24.0989 14.7684 24.1511 14.8217 24.2034C14.8749 24.2556 14.8749 24.3079 14.9281 24.3602C14.9814 24.4124 15.0346 24.4647 15.0346 24.5169C15.1411 24.6215 15.1943 24.6737 15.1943 24.726C15.2475 24.7782 15.3008 24.8305 15.354 24.8828C15.4072 24.935 15.4604 24.9873 15.5137 25.0395C15.5669 25.0918 15.6201 25.1441 15.6734 25.1963C15.7266 25.2486 15.7798 25.3008 15.8331 25.3008C15.8863 25.3531 15.9395 25.4054 15.9928 25.4576C16.046 25.5099 16.0992 25.5099 16.1525 25.5621C16.2057 25.5621 16.2589 25.6144 16.3122 25.6144C16.3654 25.6667 16.4186 25.6667 16.4718 25.7189C16.5251 25.7712 16.5783 25.7712 16.6848 25.8234C16.738 25.8757 16.7912 25.8757 16.8445 25.928C16.8977 25.9802 17.0042 25.9802 17.0574 26.0325C17.1106 26.0325 17.1639 26.0847 17.2703 26.0847H17.3236L15.4937 34.4986C15.4937 34.6031 15.3872 34.7076 15.2808 34.7076L12.566 35.0212C12.2998 35.0734 12.0869 35.2302 12.0336 35.4393C11.9804 35.6483 12.0336 35.9096 12.1933 36.0664C12.7256 36.5367 13.8968 37.3206 15.8131 37.7387C16.5051 37.8955 17.1439 37.9477 17.7295 37.9477C18.6876 37.9477 19.4329 37.791 19.8587 37.6342C20.0717 37.5819 20.2846 37.3729 20.2846 37.1116C20.2846 36.8503 20.1781 36.6412 19.9652 36.4845L17.5165 35.1257C17.4101 35.0734 17.3568 34.9689 17.4101 34.8644L19.2399 26.4506H19.2931C19.2931 26.4506 19.2931 26.4506 19.3464 26.4506C19.3996 26.4506 19.3996 26.4506 19.4528 26.4506C19.5061 26.4506 19.6125 26.4506 19.6658 26.4506H19.719C19.8255 26.4506 19.9319 26.4506 19.9852 26.4506C21.316 26.2938 22.7532 25.6144 23.6582 24.1511V24.0989C23.7114 23.9943 23.7646 23.8898 23.8711 23.733C23.9243 23.5763 23.9776 23.4717 24.084 23.315C24.1373 23.2627 24.1373 23.1582 24.1905 23.1059C24.8293 21.3814 25.7342 17.4619 26.2665 14.9534C26.6924 17.4619 27.3312 21.1723 27.8635 22.8446C27.8635 22.8969 27.9167 23.0014 27.9167 23.0537V23.1059C27.9167 23.1059 27.9167 23.1059 27.9167 23.1582C28.662 25.3008 30.6316 26.6073 32.8673 26.5551L34.4643 34.9689C34.4643 35.0734 34.411 35.178 34.3578 35.2302L31.9624 36.5367C31.7494 36.6412 31.643 36.9025 31.643 37.1116C31.643 37.3729 31.8559 37.5819 32.0688 37.6342C32.4947 37.791 33.2932 37.9477 34.3578 37.9477C34.8901 37.9477 35.4757 37.8955 36.1145 37.791C38.0308 37.4251 39.2551 36.6412 39.7875 36.1709C40.0004 36.0664 40.0536 35.8051 40.0004 35.5438ZM26.7456 13.1243C27.065 13.1766 27.4909 13.2288 27.9167 13.2288C29.2475 13.2288 30.8445 12.9675 31.3768 12.863C32.7076 12.6017 33.932 12.2881 34.8369 11.9223C35.2095 11.7655 35.5289 11.6088 35.7418 11.5042C36.008 12.9675 36.6468 16.1554 36.9662 18.6638C35.7951 18.8729 32.0688 19.5523 28.0232 20.1271C27.4909 17.6709 26.9586 14.5353 26.7456 13.1243ZM24.5631 18.5593C23.8711 18.4025 19.9852 17.5664 15.6201 16.5212C16.046 14.5353 16.5783 12.4972 16.7912 11.452C17.9623 12.2359 20.5175 12.8107 21.1563 12.9675C21.6886 13.072 23.392 13.3856 24.776 13.3856C25.1487 13.3856 25.4681 13.3856 25.7342 13.3333C25.5213 14.3785 25.0422 16.5212 24.5631 18.5593ZM30.951 10.9294C33.3464 10.459 34.9434 10.5636 35.4224 10.6681C34.9966 10.9816 33.5593 11.6088 31.1639 12.0268C28.7685 12.4972 27.1715 12.4449 26.6924 12.2881C27.1182 11.9746 28.5555 11.3997 30.951 10.9294ZM21.5821 11.0339C23.9776 11.5565 25.4148 12.1836 25.7874 12.4972C25.3084 12.654 23.7114 12.654 21.316 12.1836C18.9205 11.661 17.4833 11.0339 17.1106 10.7203C17.6429 10.5636 19.1867 10.5113 21.5821 11.0339ZM17.1439 35.8573L19.2199 37.0071C18.5279 37.1638 17.4633 37.2684 16.026 36.9548C14.5355 36.6935 13.5774 36.1709 13.045 35.7528L15.334 35.4915C15.7599 35.4393 16.1325 35.1257 16.239 34.6554L18.0688 26.2938L18.4414 26.346L16.6116 34.7076C16.5051 35.2302 16.718 35.6483 17.1439 35.8573ZM35.9548 37.0593C34.5175 37.3206 33.3996 37.1638 32.7076 37.0071L34.7304 35.9096C35.1031 35.7006 35.316 35.2302 35.2627 34.8121L33.6658 26.3983L34.0384 26.346L35.6886 34.8121C35.7951 35.2825 36.1145 35.596 36.5935 35.6483L38.989 35.9096C38.4034 36.2754 37.392 36.798 35.9548 37.0593Z" fill="#FFF6EF"/>
<path d="M23.3384 6.38286C23.3916 6.48738 23.5513 6.53964 23.6578 6.53964C23.711 6.53964 23.8175 6.53964 23.8707 6.48738C24.0304 6.38286 24.0837 6.12156 23.9772 5.96478L22.2205 3.29952C22.1141 3.14274 21.8479 3.09048 21.6882 3.195C21.5285 3.29952 21.4753 3.56082 21.5818 3.7176L23.3384 6.38286Z" fill="#FFF6EF"/>
<path d="M21.6877 7.68933C21.7409 7.74159 21.8474 7.79385 21.9539 7.79385C22.0603 7.79385 22.1668 7.74159 22.2733 7.63707C22.433 7.48029 22.3797 7.21899 22.22 7.06221L19.6649 5.1286C19.452 4.97182 19.1858 5.02408 19.0261 5.18086C18.8664 5.33764 18.9196 5.59894 19.0793 5.75572L21.6877 7.68933Z" fill="#FFF6EF"/>
<path d="M30.2055 7.58483C30.2587 7.68935 30.4184 7.74161 30.5249 7.74161C30.6313 7.74161 30.6846 7.68935 30.791 7.63709L33.3462 5.70347C33.5059 5.54669 33.5591 5.33765 33.3994 5.12861C33.2397 4.97183 33.0268 4.91957 32.8139 5.07635L30.2587 7.00997C30.1523 7.16675 30.099 7.42805 30.2055 7.58483Z" fill="#FFF6EF"/>
<path d="M28.6081 6.48738C28.6614 6.53964 28.7678 6.53964 28.8211 6.53964C28.9275 6.53964 29.0872 6.48738 29.1405 6.38286L30.8971 3.7176C31.0036 3.56082 30.9503 3.29952 30.7907 3.195C30.631 3.09048 30.3648 3.14274 30.2583 3.29952L28.5017 5.96478C28.3952 6.12156 28.4484 6.38286 28.6081 6.48738Z" fill="#FFF6EF"/>
<path d="M26.2657 6.74859C26.5851 6.74859 26.798 6.53955 26.798 6.22599V1.5226C26.798 1.20904 26.5851 1 26.2657 1C25.9463 1 25.7334 1.20904 25.7334 1.5226V6.22599C25.7334 6.53955 25.9996 6.74859 26.2657 6.74859Z" fill="#FFF6EF"/>
<path d="M47.8509 6.5C47.8012 6.5 47.7019 6.5 47.6025 6.5C44.2236 6.15 43.9752 2 43.9752 2C43.9752 2 44.0248 6.25 40 6.4H40.2484C43.7267 6.8 43.9752 11 43.9752 11C43.9752 11 43.9752 6.95 48 6.5C47.9503 6.5 47.9006 6.5 47.8509 6.5Z" fill="#FFFEEB"/>
<path d="M8.8323 11C8.7764 11 8.6646 11 8.5528 11C4.75155 10.6111 4.47205 6 4.47205 6C4.47205 6 4.52795 10.7222 0 10.8889H0.279503C4.19255 11.3333 4.47205 16 4.47205 16C4.47205 16 4.47205 11.5 9 11C8.9441 11 8.8882 11 8.8323 11Z" fill="#FFFEEB"/>
<path d="M13.8882 3.5C13.8509 3.5 13.7764 3.5 13.7019 3.5C11.1677 3.22778 10.9814 0 10.9814 0C10.9814 0 11.0186 3.30556 8 3.42222H8.18634C10.795 3.73333 10.9814 7 10.9814 7C10.9814 7 10.9814 3.85 14 3.5C13.9627 3.5 13.9255 3.5 13.8882 3.5Z" fill="#FFFEEB"/>
</svg>
