<svg width="18" height="18" viewBox="0 0 18 18" fill="none" xmlns="http://www.w3.org/2000/svg">
<path d="M9 10.5557C11.3722 10.5557 13.4711 11.0084 14.9395 11.6973C16.4872 12.4234 17 13.2289 17 13.7783C16.9998 14.4746 16.6205 15.2354 15.3896 15.877C14.1255 16.5358 12.0584 17 9 17C5.94161 17 3.87454 16.5358 2.61035 15.877C1.37952 15.2354 1.00016 14.4746 1 13.7783C1 13.2289 1.51284 12.4234 3.06055 11.6973C4.52885 11.0084 6.62782 10.5557 9 10.5557ZM9 1C10.484 1 11.8184 2.4463 11.8184 4.00977C11.8183 5.52535 10.5293 6.875 9 6.875C7.4707 6.875 6.1817 5.52535 6.18164 4.00977C6.18164 2.4463 7.51601 1 9 1Z" stroke="#212121" stroke-width="2"/>
</svg>
