<svg width="180" height="183" viewBox="0 0 180 183" fill="none" xmlns="http://www.w3.org/2000/svg">
<g clip-path="url(#clip0_1580_13648)">
<path d="M176.464 182.59H3.53638L18.9195 160.431L3.53638 138.626H176.464L162.672 160.608L176.464 182.59Z" fill="#212121"/>
<path d="M90 180.463C139.706 180.463 180 140.065 180 90.2313C180 40.3979 139.706 0 90 0C40.2944 0 0 40.3979 0 90.2313C0 140.065 40.2944 180.463 90 180.463Z" fill="#212121"/>
<path d="M89.8232 144.831C58.8802 144.831 33.5953 119.658 33.5953 88.6356C33.5953 57.613 58.7034 32.2632 89.8232 32.2632C120.766 32.2632 146.051 57.4358 146.051 88.6356C145.874 119.658 120.766 144.831 89.8232 144.831ZM89.8232 33.1495C59.4107 33.1495 34.4794 57.9676 34.4794 88.6356C34.4794 119.126 59.2338 144.122 89.8232 144.122C120.236 143.944 144.99 119.126 144.99 88.6356C144.99 57.9676 120.236 33.1495 89.8232 33.1495Z" fill="white"/>
<path d="M85.5795 116.822C83.8114 115.581 82.3968 116.468 81.6896 117.177C80.9823 117.886 80.275 119.127 81.3359 121.077C82.9273 123.558 84.5186 124.267 85.5795 124.445C86.6404 124.622 87.1709 124.267 87.8782 124.445C88.2318 124.622 89.1159 125.508 89.2927 125.686C89.8231 126.217 89.8231 126.217 90.3536 126.749C90.7072 127.104 91.2377 127.636 91.5913 127.99C93.1827 129.763 94.5972 131.89 96.0118 133.84C97.2495 135.436 98.4872 135.79 99.3713 134.904C100.255 134.017 99.9017 132.599 98.3104 131.536C96.3654 130.117 94.2436 128.699 92.4754 127.104C92.1218 126.749 91.5913 126.395 91.2377 125.863C90.7072 125.331 90.7072 125.331 90.1768 124.799C90 124.622 89.1159 123.736 88.9391 123.381C88.7622 122.672 89.1159 122.14 88.9391 121.077C88.9391 120.013 88.2318 118.418 85.5795 116.822Z" fill="white"/>
<path d="M93.5363 125.154C94.2436 124.977 94.4204 124.977 95.3045 124.8C95.835 124.8 96.719 124.445 97.4263 123.736C99.0177 122.141 100.432 120.191 101.316 119.127C101.493 118.95 101.67 118.595 101.67 118.418C101.67 118.418 101.493 118.418 101.139 118.595L97.2495 122.495H97.0727V122.318L100.963 118.241C101.139 118.063 101.316 117.886 101.139 117.709C101.139 117.709 100.786 117.709 100.609 117.886L96.5422 121.609H96.3654V121.431L100.255 117.354C100.432 117.177 100.609 117 100.432 116.822C100.432 116.822 100.079 116.822 99.9018 117L95.4813 120.722H95.3045V120.545L99.1945 116.468C99.3713 116.291 99.5481 116.113 99.3713 115.936C99.1945 115.759 99.0177 116.113 98.664 116.291C97.6031 117 95.6581 118.595 94.0668 120.191C93.3595 120.9 93.0059 121.786 93.0059 122.318C92.8291 123.204 92.8291 123.559 92.6523 124.091C92.4754 124.445 91.5913 125.331 91.5913 125.509C91.0609 126.041 91.0609 126.041 90.5304 126.572C90.1768 126.927 89.8232 127.281 89.2927 127.636C87.5246 129.231 85.5796 130.472 83.8114 131.89C82.3969 132.954 82.0432 134.195 82.7505 135.081C83.6346 135.968 84.8723 135.613 85.9332 134.018C87.1709 132.245 88.5855 130.295 90.1768 128.522C90.5304 128.168 90.8841 127.636 91.2377 127.281C91.7682 126.75 91.7682 126.75 92.2986 126.218C92.4754 126.04 93.3595 125.331 93.5363 125.154Z" fill="white"/>
<path d="M45.2652 71.4407C44.5579 75.518 43.8506 79.5952 43.1434 83.6725C42.9665 84.7361 42.7897 85.977 42.6129 87.0407C42.6129 87.2179 42.6129 87.5725 42.7897 87.7497C42.9666 87.927 43.1434 88.1043 43.3202 88.1043C43.8506 88.2816 44.3811 87.927 44.3811 87.3952C45.0884 83.318 45.7956 79.2407 46.5029 75.1635C46.6797 74.0998 46.8565 72.8589 47.0333 71.7953C47.0333 71.618 47.0333 71.2635 46.8565 71.0862C46.6797 70.9089 46.5029 70.7317 46.3261 70.7317C45.9724 70.5544 45.442 70.9089 45.2652 71.4407Z" fill="white"/>
<path d="M44.0275 73.7449C45.9725 73.5676 47.7407 73.5676 49.6857 73.7449H49.5089C50.3929 73.9222 51.277 73.9222 51.9843 74.2767C51.9843 74.2767 51.8075 74.2767 51.8075 74.0994C51.9843 74.0994 52.1611 74.2767 52.1611 74.2767C52.1611 74.2767 52.3379 74.2767 52.3379 74.454L52.5148 74.6312C52.5148 74.6312 52.5148 74.6312 52.5148 74.8085C52.5148 74.8085 52.5147 74.9858 52.6916 74.9858C52.6916 74.9858 52.6916 74.8085 52.5148 74.8085C52.6916 74.9858 52.6916 75.1631 52.6916 75.5176V75.3403C52.6916 75.5176 52.6916 75.8722 52.6916 76.0494V75.8721C52.6916 76.2267 52.5148 76.5812 52.3379 76.9358C52.3379 76.9358 52.3379 76.7585 52.5148 76.7585C52.3379 77.2903 51.9843 77.8221 51.6307 78.1767C51.4538 78.354 51.277 78.7085 51.1002 78.8858C51.1002 79.063 50.9234 79.063 50.9234 79.2403C50.9234 79.2403 50.9234 79.4176 50.7466 79.4176C50.0393 80.3039 49.332 81.1903 48.6248 81.8994C47.9175 82.6085 47.0334 83.4948 46.1493 84.0267C45.9725 84.2039 45.7957 84.3812 45.4421 84.5585C45.4421 84.5585 45.2652 84.5585 45.2652 84.7357C45.4421 84.5585 45.0884 84.913 45.2652 84.7357C45.0884 84.7357 45.0884 84.913 44.9116 84.913C44.558 85.2676 44.0275 85.6221 43.4971 85.7994C42.4362 86.5085 41.3753 87.0403 40.3144 87.7494C39.9607 87.9266 39.7839 88.6357 39.9607 88.9903C40.3144 89.3448 40.8448 89.5221 41.1984 89.3448C42.9666 88.4584 44.558 87.3948 45.9725 86.3312C47.5639 85.0903 48.9784 83.8494 50.3929 82.2539C51.1002 81.5448 51.6307 80.6585 52.3379 79.9494C53.0452 79.063 53.5757 78.1767 53.9293 77.2903C54.2829 76.2267 54.2829 74.9858 53.7525 74.0994C53.222 73.2131 52.1611 72.6813 51.1002 72.504C50.0393 72.1494 48.8016 72.1494 47.7407 71.9722C46.6798 71.9722 45.4421 71.9722 44.3812 71.9722C44.0275 71.9722 43.8507 71.9722 43.4971 71.9722C43.3203 71.9722 42.9666 71.9722 42.7898 72.3267C42.613 72.504 42.4362 72.6813 42.4362 73.0358C43.1434 73.2131 43.4971 73.7449 44.0275 73.7449Z" fill="white"/>
<path d="M59.057 71.2632C58.1729 73.5678 57.2888 75.8723 56.5815 78.1768C55.8743 80.4814 55.3438 82.7859 54.8133 85.0904C54.4597 86.5086 54.2829 87.9268 54.1061 89.345C54.1061 89.5222 54.2829 89.8768 54.4597 90.054C54.6365 90.2313 54.8133 90.4086 55.167 90.4086C55.3438 90.4086 55.6974 90.2313 55.8743 90.054C56.0511 89.8768 56.0511 89.6995 56.2279 89.345C56.2279 89.1677 56.2279 89.1677 56.2279 88.9904V89.1677C56.5815 87.0404 56.9352 84.7359 57.4656 82.6086C57.9961 80.4814 58.7033 78.3541 59.4106 76.2268C59.7642 74.9859 60.2947 73.9223 60.8251 72.6814C60.8251 72.6814 60.8251 72.8587 60.6483 72.8587C60.6483 72.6814 60.8251 72.5041 60.8251 72.3269C61.002 72.1496 61.002 71.7951 61.002 71.6178C61.002 71.4405 60.8251 71.086 60.6483 71.086C60.4715 70.9087 60.1179 70.9087 59.9411 70.9087C59.2338 70.9087 59.057 71.086 59.057 71.2632Z" fill="white"/>
<path d="M62.4164 70.7316C62.2396 73.2134 62.2396 75.6952 62.2396 78.177C62.2396 80.6588 62.2396 83.1406 62.4164 85.6224C62.4164 87.0406 62.5933 88.4587 62.5933 89.8769C62.5933 90.4087 62.9469 90.7633 63.4773 90.7633C64.0078 90.7633 64.3614 90.4087 64.3614 89.8769C64.1846 87.3951 64.1846 84.9133 64.0078 82.4315C64.0078 79.9497 64.0078 77.4679 64.0078 74.9861C64.0078 73.5679 64.0078 72.1497 64.1846 70.7316C64.1846 70.1998 63.6542 69.8452 63.3005 69.8452C62.9469 69.8452 62.4164 70.1998 62.4164 70.7316Z" fill="white"/>
<path d="M54.4598 85.9769C57.6425 85.7997 60.8252 85.2678 63.8311 84.2042C64.7152 84.0269 65.4224 83.6724 66.3065 83.3179C66.4833 83.3179 66.6602 83.1406 66.837 82.9633C67.0138 82.786 67.0138 82.4315 67.0138 82.2542C66.837 81.7224 66.3065 81.3679 65.9529 81.5451C63.6543 82.4315 61.3556 82.9633 59.057 83.4951C58.3498 83.6724 57.6425 83.6724 57.112 83.8497H57.2889C56.4048 84.0269 55.5207 84.0269 54.6366 84.2042C54.4598 84.2042 54.1061 84.3815 53.9293 84.5588C53.7525 84.736 53.5757 84.9133 53.5757 85.2678C53.5757 85.6224 53.9293 85.9769 54.4598 85.9769Z" fill="white"/>
<path d="M69.666 73.2133C70.1965 74.2769 70.7269 75.3405 71.2574 76.4042C71.2574 76.4042 71.2574 76.2269 71.0806 76.2269C71.4342 77.2905 71.7878 78.1769 71.9647 79.2405V79.0632C72.1415 79.7723 72.1415 80.4814 71.9647 81.1905V81.0132C71.9647 81.1905 71.9646 81.5451 71.7878 81.7223C71.611 82.2541 71.9647 82.786 72.4951 82.786C73.0256 82.9632 73.556 82.6087 73.556 82.0769C73.9096 80.6587 73.9096 79.2405 73.556 77.9996C73.2024 76.7587 72.6719 75.5178 72.1415 74.2769C71.7878 73.5678 71.4342 73.036 71.0806 72.3269C70.9037 71.9724 70.1965 71.7951 69.8428 71.9724C69.4892 72.1496 69.3124 72.6815 69.666 73.2133Z" fill="white"/>
<path d="M76.7386 72.1495C75.6777 74.0995 74.6168 76.0495 73.5559 77.9995C72.495 79.9495 71.6109 82.0767 70.7269 84.0267C70.1964 85.2676 69.6659 86.5085 69.1355 87.5722C69.1355 87.7494 69.1355 88.104 69.3123 88.2812C69.4891 88.4585 69.666 88.6358 69.8428 88.6358C70.0196 88.6358 70.3732 88.6358 70.55 88.4585C70.7269 88.2813 70.9037 88.104 70.9037 87.9267C71.2573 87.2176 71.4341 86.5085 71.7878 85.7994C71.7878 85.7994 71.7878 85.9767 71.6109 85.9767C73.0255 82.4313 74.7937 78.8858 76.5618 75.5177C77.0923 74.6313 77.6227 73.5677 78.1532 72.6813C78.33 72.3268 78.33 71.6177 77.7995 71.4404C77.6227 71.6177 77.0923 71.6177 76.7386 72.1495Z" fill="white"/>
<path d="M85.9333 73.9225C85.9333 75.3407 85.7565 76.9361 85.5796 78.3543V78.177C85.226 80.3043 84.8724 82.6088 84.1651 84.7361C83.9883 85.2679 83.8115 85.977 83.6346 86.5088C83.6346 86.6861 83.6346 87.0406 83.8115 87.2179C83.9883 87.3951 84.1651 87.5724 84.3419 87.5724C84.8724 87.7497 85.226 87.3951 85.4028 86.8633C86.6405 83.6724 87.3478 80.127 87.7014 76.7588C87.7014 75.8725 87.8783 74.8089 87.8783 73.9225C87.8783 73.3907 87.5246 73.0361 86.9942 73.0361C86.2869 73.0361 85.9333 73.3907 85.9333 73.9225Z" fill="white"/>
<path d="M85.9332 74.0996C87.171 77.4678 88.2319 80.8359 89.4696 84.3814C89.8232 85.2677 90.1769 86.3314 90.5305 87.2177C90.7073 87.5723 91.2378 87.7496 91.5914 87.5723C91.7682 87.5723 91.945 87.395 91.945 87.395C92.1219 87.2177 92.1219 87.0405 92.2987 86.6859C92.4755 85.6223 92.4755 84.5587 92.6523 83.495V83.6723C93.0059 81.0132 93.5364 78.3541 94.2437 75.8723C94.4205 75.1633 94.7741 74.4542 94.9509 73.7451C94.9509 73.7451 94.9509 73.9224 94.7741 73.9224C94.7741 73.9224 94.7741 73.9223 94.7741 73.7451C94.9509 73.5678 94.9509 73.2133 94.9509 73.036C94.9509 72.8587 94.7741 72.5042 94.5973 72.5042C94.4205 72.3269 94.0668 72.3269 93.89 72.3269C93.7132 72.3269 93.3596 72.5042 93.3596 72.6814C92.6523 74.2769 92.1219 76.0496 91.7682 77.8223C91.4146 79.5951 91.0609 81.3678 90.8841 83.3178C90.7073 84.3814 90.7073 85.2677 90.5305 86.3314C91.0609 86.1541 91.7682 85.9768 92.2987 85.7996C92.1219 85.445 91.945 85.0905 91.7682 84.7359C91.7682 84.7359 91.7682 84.9132 91.945 84.9132C91.5914 84.2041 91.4146 83.495 91.2378 82.7859C90.8841 82.0769 90.7073 81.1905 90.3537 80.4814C89.8232 78.886 89.2928 77.4678 88.7623 75.8723C88.4087 74.986 88.2319 74.0996 87.8782 73.2133C87.7014 72.6814 87.171 72.3269 86.8173 72.5042C86.1101 73.2133 85.7564 73.5678 85.9332 74.0996Z" fill="white"/>
<path d="M97.9567 71.9725C97.4263 74.0997 96.8958 76.227 96.5422 78.3543C96.0117 80.4815 95.6581 82.7861 95.4813 84.9133C95.3044 86.1542 95.3044 87.3951 95.3044 88.636C95.3044 89.1678 95.6581 89.5224 96.1885 89.5224C96.719 89.5224 97.0726 89.1678 97.0726 88.636C97.0726 86.686 97.2494 84.7361 97.4262 82.7861V82.9633C97.7799 80.127 98.4872 77.4679 99.0176 74.6316C99.1944 73.9225 99.3712 73.0361 99.5481 72.327C99.7249 71.7952 99.3712 71.2634 98.8408 71.2634C98.664 71.0861 98.1335 71.4407 97.9567 71.9725Z" fill="white"/>
<path d="M113.34 72.3272C112.633 71.9727 111.925 71.6181 111.041 71.4409C110.157 71.2636 109.45 71.4409 108.566 71.6181C106.974 72.15 105.737 73.0363 104.676 74.2772C103.615 75.3408 102.554 76.759 101.847 77.9999C101.14 79.4181 100.609 80.8363 100.432 82.4317C100.432 83.1408 100.432 83.8499 100.432 84.559C100.609 85.2681 100.786 85.9771 101.14 86.509C101.493 87.0408 102.2 87.5726 102.731 87.9271C103.438 88.2817 104.145 88.2817 104.853 88.2817C106.267 88.2817 107.505 87.7499 108.743 87.218C109.98 86.509 111.041 85.7999 111.749 84.559C112.279 83.8499 112.456 83.1408 112.633 82.4317C112.809 81.5454 112.809 80.659 112.456 79.7726C112.102 79.0635 111.218 78.5317 110.334 78.5317C109.627 78.5317 108.919 78.8863 108.212 79.4181C108.212 79.5954 107.859 79.7726 107.682 79.7726C107.328 80.1272 107.151 80.659 107.328 81.0135C107.505 81.3681 108.212 81.7226 108.566 81.3681C109.096 81.0135 109.627 80.659 110.157 80.4817C110.157 80.4817 109.98 80.4817 109.98 80.659C110.157 80.4817 110.511 80.4817 110.688 80.4817H110.511C110.688 80.4817 110.864 80.4817 110.864 80.4817H110.688C110.864 80.4817 110.864 80.4817 111.041 80.4817C111.041 80.4817 110.864 80.4817 110.864 80.3044C110.864 80.3044 111.041 80.3045 111.041 80.4817C111.218 80.4817 110.864 80.3045 111.041 80.4817C110.864 80.3045 110.864 80.3045 111.041 80.4817C111.041 80.4817 111.041 80.659 111.218 80.659C111.218 80.659 111.218 80.4817 111.041 80.4817C111.041 80.659 111.218 80.8363 111.218 81.0135V80.8363C111.218 81.1908 111.218 81.5454 111.218 81.8999V81.7226C111.218 82.0772 111.041 82.609 110.864 82.9635C110.864 82.9635 110.864 82.7863 111.041 82.7863C110.864 82.9635 110.864 83.3181 110.688 83.4953C110.688 83.6726 110.511 83.6726 110.511 83.8499C110.511 83.8499 110.511 84.0272 110.334 84.0272C109.98 84.3817 109.804 84.559 109.45 84.9135C109.45 84.9135 109.45 84.9135 109.273 85.0908C109.45 84.9135 109.096 85.2681 109.273 85.0908L109.096 85.2681C108.919 85.4453 108.743 85.4453 108.566 85.6226C108.212 85.7999 107.682 86.1544 107.328 86.3317C107.328 86.3317 107.505 86.3317 107.505 86.1544C106.974 86.3317 106.267 86.509 105.56 86.6862H105.737C105.383 86.6862 104.853 86.6862 104.322 86.6862H104.499C104.145 86.6862 103.792 86.509 103.615 86.509C103.615 86.509 103.792 86.509 103.792 86.6862C103.615 86.6862 103.438 86.509 103.261 86.3317C103.261 86.3317 103.085 86.3317 103.085 86.1544L102.908 85.9771L102.731 85.7999C102.908 85.9771 102.554 85.6226 102.731 85.7999C102.731 85.7999 102.731 85.6226 102.554 85.6226C102.377 85.4453 102.377 85.2681 102.2 85.0908C102.2 85.0908 102.2 85.2681 102.377 85.2681C102.2 84.9135 102.2 84.3817 102.024 84.0272V84.2044C102.024 83.6726 102.024 82.9635 102.024 82.4317V82.609C102.2 81.7226 102.377 80.8363 102.731 79.9499C102.731 79.9499 102.731 80.1272 102.554 80.1272C103.085 79.0635 103.615 77.9999 104.499 76.9363C104.499 76.9363 104.499 76.9363 104.499 76.759C104.499 76.759 104.499 76.5817 104.676 76.5817C104.853 76.4045 104.853 76.4045 105.03 76.2272C105.206 76.0499 105.383 75.6954 105.737 75.5181C106.09 75.1636 106.621 74.6318 106.974 74.2772L107.151 74.0999C107.328 73.9227 107.505 73.9227 107.505 73.7454C107.859 73.5681 108.035 73.3908 108.389 73.2136C108.389 73.2136 108.212 73.2136 108.212 73.3909C108.566 73.2136 109.096 73.0363 109.45 73.0363H109.273C109.627 73.0363 110.157 73.0363 110.511 73.0363H110.334C110.688 73.0363 111.218 73.2136 111.572 73.3909C111.572 73.3909 111.395 73.3908 111.395 73.2136C111.749 73.3908 111.925 73.5681 112.279 73.7454C112.633 73.9227 113.34 73.9227 113.517 73.3909C113.87 73.0363 113.694 72.5045 113.34 72.3272Z" fill="white"/>
<path d="M136.326 93.9547C135.619 93.4229 134.735 93.0684 133.674 92.8911C132.79 92.7138 131.906 92.8911 131.198 93.2456C129.784 93.7774 128.546 94.8411 127.308 95.9047C126.248 96.9683 125.363 98.2092 124.656 99.6274C123.949 100.868 123.419 102.286 123.242 103.705C123.065 105.123 123.065 106.718 123.949 107.959C124.479 108.668 125.187 109.2 126.071 109.377C126.955 109.555 127.839 109.555 128.723 109.377C130.314 109.023 131.906 108.491 133.143 107.427C134.028 106.718 134.735 105.655 135.088 104.591C135.619 103.35 135.973 101.755 135.088 100.691C134.028 99.4501 132.259 100.159 131.022 100.868C130.845 101.046 130.668 101.046 130.491 101.223C130.138 101.577 129.961 102.109 130.138 102.464C130.314 102.818 131.022 103.173 131.375 102.818C131.906 102.464 132.436 102.109 132.967 101.932C132.967 101.932 132.79 101.932 132.79 102.109C132.967 101.932 133.32 101.932 133.497 101.932H133.32C133.497 101.932 133.674 101.932 133.674 101.932H133.497C133.674 101.932 133.674 101.932 133.851 101.932C133.851 101.932 133.674 101.932 133.674 101.755C133.674 101.755 133.674 101.755 133.851 101.755L134.028 101.932C134.028 101.932 134.028 101.932 134.028 102.109C134.028 102.109 134.028 102.286 134.204 102.286C134.204 102.286 134.204 102.109 134.028 102.109C134.028 102.286 134.204 102.464 134.204 102.641V102.464C134.204 102.641 134.204 102.996 134.204 103.173V102.996C134.204 103.35 134.028 103.882 133.851 104.236C133.851 104.236 133.851 104.059 134.028 104.059C133.851 104.591 133.497 105.123 133.143 105.655C133.143 105.655 133.143 105.832 132.967 105.832L132.79 106.009C132.613 106.186 132.436 106.364 132.259 106.541C132.259 106.541 132.259 106.541 132.083 106.718C131.906 106.718 131.906 106.896 131.729 106.896C131.375 107.25 130.845 107.427 130.491 107.605C130.491 107.605 130.668 107.605 130.668 107.427C129.961 107.782 129.077 107.959 128.193 108.136H128.369C127.839 108.136 127.485 108.136 126.955 108.136H127.132C126.778 108.136 126.601 107.959 126.248 107.959C126.248 107.959 126.424 107.959 126.424 108.136C126.248 108.136 126.071 107.959 125.894 107.782C126.071 107.959 125.717 107.605 125.894 107.782C125.894 107.782 125.894 107.782 125.717 107.605L125.54 107.427C125.54 107.427 125.54 107.427 125.54 107.25C125.54 107.25 125.54 107.25 125.717 107.427L125.54 107.25C125.363 107.073 125.364 106.896 125.364 106.718C125.364 106.718 125.363 106.896 125.54 106.896C125.363 106.541 125.364 106.186 125.187 105.832V106.009C125.187 105.477 125.187 104.946 125.187 104.414V104.591C125.364 103.527 125.717 102.641 126.071 101.577C126.071 101.577 126.071 101.755 125.894 101.755C126.424 100.691 126.955 99.4501 127.662 98.5638C127.662 98.741 127.485 98.741 127.662 98.5638L127.839 98.3865C128.016 98.2092 128.016 98.2092 128.193 98.032C128.369 97.8547 128.546 97.5001 128.723 97.3229C128.9 97.1456 129.253 96.9683 129.43 96.6138C129.607 96.4365 129.607 96.4365 129.784 96.2592C129.784 96.2592 129.784 96.2592 129.961 96.2592L130.138 96.082C130.668 95.7274 131.375 95.3729 131.906 95.0183C131.906 95.0183 131.729 95.0183 131.729 95.1956C132.083 95.0183 132.436 94.8411 132.967 94.8411H132.79C133.143 94.8411 133.497 94.8411 133.851 94.8411H133.674C134.028 94.8411 134.381 95.0183 134.735 95.1956C134.735 95.1956 134.558 95.1956 134.558 95.0183C134.912 95.1956 135.265 95.3729 135.619 95.5502C135.619 95.7274 135.973 95.7274 136.149 95.7274C136.326 95.7274 136.68 95.5502 136.68 95.3729C136.857 94.8411 136.857 94.3093 136.326 93.9547Z" fill="white"/>
<path d="M116.346 71.9723C115.815 74.2768 115.815 76.5814 115.462 78.8859C115.462 79.595 115.285 80.1268 115.285 80.8359V80.6586C115.108 82.0768 114.754 83.3177 114.401 84.7359C114.224 85.2677 114.578 85.7995 115.108 85.7995C115.638 85.9768 115.992 85.6222 116.169 85.0904C117.053 82.2541 117.23 79.4177 117.583 76.5814C117.583 75.8723 117.76 74.9859 117.76 74.2769V74.4541C117.937 73.745 117.937 73.2132 118.114 72.5041C118.291 71.9723 117.937 71.4405 117.407 71.4405C117.053 71.2632 116.523 71.4405 116.346 71.9723Z" fill="white"/>
<path d="M116.346 81.191C117.76 81.3683 119.352 81.3683 120.766 81.191C120.943 81.191 121.297 81.191 121.474 80.8364C121.65 80.6592 121.827 80.4819 121.827 80.1274C121.827 79.9501 121.65 79.5955 121.474 79.4183C121.297 79.241 121.12 79.0637 120.766 79.0637C119.352 79.241 117.76 79.241 116.346 79.0637C116.169 79.0637 115.815 79.241 115.639 79.4183C115.462 79.5955 115.285 79.7728 115.285 80.1274C115.285 80.3046 115.462 80.6592 115.639 80.8364C115.815 81.191 116.169 81.191 116.346 81.191Z" fill="white"/>
<path d="M122.888 72.1495C122.181 74.0995 121.827 76.2268 121.473 78.354C121.12 80.4813 120.943 82.6086 120.766 84.7358C120.766 85.9767 120.766 87.0403 120.766 88.2812C120.766 88.8131 121.12 89.1676 121.65 89.1676C122.181 89.1676 122.534 88.8131 122.534 88.2812C122.534 86.3313 122.534 84.204 122.711 82.254C122.711 81.7222 122.888 81.0131 122.888 80.4813V80.6586C123.242 78.5313 123.595 76.404 124.126 74.2768C124.303 73.745 124.479 73.0359 124.656 72.5041C124.833 71.9722 124.479 71.4404 123.949 71.4404C123.418 71.4404 122.888 71.6177 122.888 72.1495Z" fill="white"/>
<path d="M51.8076 92.8911C51.1003 92.7138 50.2162 92.8911 49.5089 93.0683C48.9785 93.2456 48.2712 93.4229 47.7408 93.7774C46.6799 94.3092 45.7958 94.841 44.9117 95.5501C43.1435 96.9683 41.9058 98.9183 41.0217 101.046C40.6681 102.109 40.3145 103.173 40.1376 104.236C39.9608 104.768 39.9608 105.477 39.9608 106.186C39.9608 106.718 39.9608 107.427 40.3144 107.959C40.4913 108.491 40.8449 109.2 41.3754 109.555C41.9058 109.909 42.4363 110.264 42.9667 110.441C44.0276 110.796 45.2653 110.796 46.5031 110.618C47.564 110.441 48.8017 110.086 49.6858 109.377C50.7467 108.668 51.6308 107.782 52.338 106.718C52.5148 106.541 52.6917 106.186 52.8685 106.009C53.0453 105.832 53.2221 105.655 53.2221 105.3C53.2221 105.123 53.0453 104.768 52.8685 104.591C52.5148 104.236 51.8076 104.236 51.6308 104.591C50.9235 105.3 50.393 106.186 49.6858 106.718C49.5089 106.896 49.3321 107.073 49.1553 107.25C48.9785 107.25 48.9785 107.427 48.8017 107.427C48.9785 107.25 48.6249 107.605 48.8017 107.427C48.8017 107.427 48.6249 107.427 48.6249 107.605C48.2712 107.959 47.7408 108.136 47.3871 108.314C47.3871 108.314 47.564 108.314 47.564 108.136C47.0335 108.314 46.3262 108.491 45.619 108.668H45.7958C45.0885 108.668 44.5581 108.846 43.8508 108.668H44.0276C43.4972 108.668 43.1435 108.491 42.7899 108.314C42.7899 108.314 42.9667 108.314 42.9667 108.491C42.7899 108.491 42.6131 108.314 42.4363 108.136L42.2594 107.959C42.4363 108.136 42.0826 107.782 42.2594 107.959C42.2594 107.959 42.2594 107.959 42.0826 107.782L41.9058 107.605L41.729 107.427C41.5522 107.25 41.5522 107.073 41.3754 106.896C41.3754 106.896 41.3754 107.073 41.5522 107.073C41.3754 106.718 41.3754 106.364 41.3754 106.009V106.186C41.1985 105.477 41.3754 104.768 41.3754 104.059V104.236C41.5522 102.996 41.9058 101.755 42.4363 100.691C42.4363 100.691 42.4363 100.868 42.2594 100.868C42.4363 100.336 42.7899 99.8047 43.1435 99.2728C43.3203 99.0956 43.4972 98.741 43.674 98.5637C43.674 98.3865 43.8508 98.3865 43.8508 98.2092C43.8508 98.2092 43.8508 98.2092 43.674 98.3865L43.8508 98.2092C44.2044 97.6774 44.5581 97.3228 45.0885 96.9683C45.2653 96.791 45.2653 96.791 45.4422 96.6138L45.619 96.4365C45.619 96.4365 45.619 96.4365 45.7958 96.4365C45.7958 96.4365 45.9726 96.4365 45.9726 96.2592C46.1494 96.0819 46.1494 96.0819 46.3262 96.0819C46.8567 95.7274 47.564 95.3729 48.0944 95.1956C48.0944 95.1956 47.9176 95.1956 47.9176 95.3729C48.6249 95.0183 49.5089 94.841 50.393 94.6638H50.2162C50.393 94.6638 50.5699 94.6638 50.7467 94.6638C51.2771 94.841 51.8076 94.4865 51.8076 93.9547C52.6917 93.6001 52.338 93.0683 51.8076 92.8911Z" fill="white"/>
<path d="M60.4716 93.954C59.5875 96.4358 58.8802 98.7403 58.1729 101.222C57.4657 103.704 56.7584 106.186 56.2279 108.668C55.8743 110.086 55.5207 111.504 55.3438 112.922C55.167 113.454 55.5207 113.986 56.0511 113.986C56.5816 114.163 57.112 113.808 57.112 113.277C57.6425 110.795 58.1729 108.313 58.8802 105.831C59.5875 103.349 60.2947 100.868 61.002 98.3858C61.3556 96.9676 61.8861 95.7267 62.4165 94.3085C62.5934 93.7767 62.2397 93.2449 61.7093 93.2449C61.1788 93.2449 60.6484 93.4221 60.4716 93.954Z" fill="white"/>
<path d="M63.6543 93.0679C63.6543 95.727 63.6543 98.2088 63.6543 100.868C63.6543 103.527 63.4775 106.009 63.3007 108.668C63.1238 110.086 63.1238 111.504 62.947 113.1C62.947 113.277 63.1238 113.631 63.3007 113.809C63.4775 113.986 63.6543 114.163 64.0079 114.163C64.5384 114.163 64.892 113.809 64.892 113.277C65.0688 110.618 65.2456 108.136 65.4225 105.477C65.5993 102.818 65.5993 100.336 65.5993 97.677C65.5993 96.2588 65.5993 94.6634 65.5993 93.2452C65.5993 92.7134 65.2456 92.3589 64.7152 92.3589C64.1847 92.1816 63.6543 92.5361 63.6543 93.0679Z" fill="white"/>
<path d="M56.228 109.023C59.5875 108.491 62.947 107.604 66.3065 106.363C67.1906 106.009 68.0747 105.654 69.1356 105.3C69.3124 105.123 69.4893 105.123 69.6661 104.945C69.8429 104.768 69.8429 104.413 69.8429 104.236C69.8429 104.059 69.6661 103.882 69.4893 103.704C69.3124 103.527 68.9588 103.527 68.782 103.527C65.5993 104.945 62.2397 105.832 58.8802 106.541C57.9961 106.718 56.9352 106.895 56.0511 107.073C55.8743 107.073 55.5207 107.25 55.5207 107.427C55.3439 107.604 55.3439 107.959 55.3439 108.136C55.3439 108.313 55.5207 108.491 55.6975 108.668C55.6975 109.023 56.0511 109.023 56.228 109.023Z" fill="white"/>
<path d="M70.9037 96.0813C73.7328 95.904 76.385 95.5495 79.0373 95.0177C79.7445 94.8404 80.4518 94.6631 81.3359 94.4859C81.8663 94.3086 82.0432 93.7768 82.0432 93.4222C81.8664 92.8904 81.3359 92.7131 80.9823 92.7131C79.0373 93.0677 76.9155 93.4222 74.7937 93.7768H74.9705C73.5559 93.954 72.3182 94.1313 70.9037 94.3086C70.7269 94.3086 70.3732 94.4859 70.1964 94.6631C70.0196 94.8404 69.8428 95.0177 69.8428 95.3722C70.0196 95.5495 70.3732 96.0813 70.9037 96.0813Z" fill="white"/>
<path d="M75.1473 93.9541C74.6169 96.0813 74.4401 98.2086 74.2632 100.336C74.0864 102.463 73.9096 104.768 73.7328 106.895C73.556 108.136 73.556 109.377 73.3792 110.618C73.3792 111.149 73.9096 111.504 74.2632 111.504C74.7937 111.504 75.1473 111.149 75.1473 110.618C75.501 107.072 75.6778 103.349 76.0314 99.804C76.0314 98.7404 76.2082 97.854 76.385 96.7904V96.9677C76.5619 96.0813 76.7387 95.195 76.9155 94.4859C77.0923 93.9541 76.7387 93.4223 76.2082 93.4223C75.6778 93.0677 75.3241 93.4223 75.1473 93.9541Z" fill="white"/>
<path d="M127.485 74.4548C130.314 74.2776 132.967 73.923 135.619 73.3912C136.326 73.2139 137.033 73.0367 137.917 72.8594C138.448 72.6821 138.625 72.1503 138.625 71.7958C138.448 71.2639 137.917 71.0867 137.564 71.0867C135.619 71.4412 133.497 71.7958 131.375 72.1503H131.552C130.137 72.3276 128.9 72.5048 127.485 72.6821C127.308 72.6821 126.955 72.8594 126.778 73.0367C126.601 73.2139 126.424 73.3912 126.424 73.7457C126.601 73.923 126.955 74.4548 127.485 74.4548Z" fill="white"/>
<path d="M131.729 72.3271C131.199 74.4543 131.022 76.5816 130.845 78.7088C130.668 80.8361 130.491 83.1406 130.314 85.2679C130.138 86.5088 130.138 87.7497 129.961 88.9906C129.961 89.5224 130.491 89.877 130.845 89.877C131.375 89.877 131.729 89.5224 131.729 88.9906C132.083 85.4452 132.259 81.7225 132.613 78.177C132.613 77.1134 132.79 76.227 132.967 75.1634V75.3407C133.144 74.4543 133.32 73.568 133.497 72.8589C133.674 72.327 133.32 71.7952 132.79 71.7952C132.436 71.618 131.906 71.7952 131.729 72.3271Z" fill="white"/>
<path d="M84.6954 94.6635C84.3418 98.0317 84.165 101.577 83.9882 104.945C83.9882 105.832 83.9882 106.895 83.9882 107.782C83.9882 108.313 84.3418 108.668 84.8722 108.668C85.4027 108.668 85.7563 108.313 85.7563 107.782C85.7563 104.413 85.9332 100.868 86.11 97.4998C86.11 96.6135 86.2868 95.5498 86.4636 94.6635C86.4636 94.4862 86.2868 94.1317 86.11 93.9544C85.9332 93.7771 85.7563 93.5999 85.4027 93.5999C85.2259 93.5999 84.8722 93.7771 84.6954 93.9544C84.6954 94.3089 84.6954 94.4862 84.6954 94.6635Z" fill="white"/>
<path d="M85.4028 95.7268C87.8783 95.3722 90.5305 95.0177 93.006 94.4859C93.5364 94.3086 93.7132 93.7768 93.7132 93.4222C93.5364 92.8904 93.006 92.7131 92.6523 92.7131C90.7073 93.0677 88.7623 93.4222 86.8174 93.7768H86.9942C86.4637 93.7768 85.9333 93.954 85.4028 93.954C85.226 93.954 84.8724 93.954 84.6956 94.3086C84.5187 94.4859 84.3419 94.6631 84.3419 95.0177C84.3419 95.1949 84.5187 95.5495 84.6956 95.7268C85.0492 95.5495 85.226 95.7268 85.4028 95.7268Z" fill="white"/>
<path d="M84.3418 102.995C86.8173 102.463 89.1159 101.754 91.4145 100.691C91.5914 100.513 91.7682 100.336 91.7682 100.159C91.7682 99.9816 91.7682 99.627 91.5914 99.4498C91.4145 99.2725 91.2377 99.0952 91.0609 99.0952C90.8841 99.0952 90.5304 99.0952 90.3536 99.2725C90.1768 99.2725 90 99.2725 89.6464 99.4498C89.6464 99.4498 89.8232 99.4498 89.8232 99.2725C87.8782 100.159 85.7564 100.691 83.6346 101.045C83.4578 101.045 83.1041 101.222 83.1041 101.4C83.1041 101.754 83.1041 102.109 83.1041 102.286C83.2809 102.818 83.8114 102.995 84.3418 102.995Z" fill="white"/>
<path d="M83.9882 109.909C86.2869 109.377 88.5855 108.668 90.7073 107.604C90.8841 107.604 91.0609 107.25 91.0609 107.072C91.0609 106.895 91.0609 106.541 90.8841 106.363C90.7073 106.186 90.5305 106.009 90.3537 106.009C90.1768 106.009 89.8232 106.009 89.6464 106.186C89.4696 106.186 89.4696 106.363 89.2928 106.363C89.2928 106.363 89.4696 106.363 89.4696 106.186C87.5246 107.072 85.4028 107.604 83.281 108.136C82.7505 108.313 82.3969 108.845 82.5737 109.2C83.1042 109.731 83.4578 109.909 83.9882 109.909Z" fill="white"/>
<path d="M96.7191 94.3085C95.6582 97.8539 94.9509 101.399 94.4205 104.945C94.2437 106.008 94.0668 107.072 93.89 108.136C93.89 108.313 94.0668 108.668 94.2437 108.845C94.4205 109.022 94.5973 109.199 94.9509 109.199C95.1277 109.199 95.4814 109.022 95.6582 108.845C95.835 108.668 95.835 108.49 96.0118 108.136C96.0118 107.958 96.0118 107.604 96.1886 107.427V107.604C96.7191 104.236 97.2495 100.868 98.1336 97.6767C98.3104 96.7903 98.6641 95.9039 98.8409 94.8403C99.0177 94.3085 98.6641 93.7767 98.1336 93.7767C97.4264 93.5994 96.8959 93.7767 96.7191 94.3085Z" fill="white"/>
<path d="M97.9569 95.3727C99.0178 95.0182 100.255 94.6636 101.493 94.4864H101.316C101.847 94.4864 102.377 94.3091 102.908 94.4864H102.731C103.085 94.4864 103.438 94.6636 103.615 94.6636C103.615 94.6636 103.438 94.6636 103.438 94.4864C103.615 94.4864 103.792 94.6636 103.792 94.6636C103.969 94.6636 103.615 94.4864 103.792 94.6636V94.8409C103.792 94.8409 103.792 94.6636 103.615 94.6636C103.615 94.8409 103.615 94.8409 103.615 95.0182V94.8409C103.615 95.3727 103.438 95.9045 103.085 96.4364C103.085 96.4364 103.085 96.2591 103.261 96.2591C102.908 96.9682 102.554 97.5 102.2 98.0318L102.024 98.2091C102.024 98.2091 102.024 98.2091 101.847 98.3863C102.024 98.2091 101.847 98.2091 101.847 98.3863C101.67 98.5636 101.67 98.7409 101.493 98.7409C101.316 99.0954 100.963 99.2727 100.786 99.45C99.725 100.514 98.4873 101.577 97.2496 102.464C96.5423 102.995 95.835 103.527 95.1278 104.236C94.7741 104.591 94.7741 105.3 95.1278 105.477C95.4814 105.832 96.0119 105.832 96.3655 105.477C98.4873 103.527 100.963 101.932 102.908 99.6272C103.792 98.5636 104.676 97.3227 105.03 95.9045C105.206 95.55 105.206 95.1955 105.206 94.6636C105.206 93.9546 104.853 93.6 104.322 93.2455C103.969 93.0682 103.615 92.8909 103.261 92.7136C102.908 92.5364 102.377 92.5364 102.024 92.5364C101.14 92.5364 100.255 92.7137 99.5482 92.8909C98.6641 93.0682 97.78 93.2455 97.0728 93.6C96.5423 93.7773 96.1887 94.3091 96.3655 94.6636C96.8959 95.1955 97.4264 95.55 97.9569 95.3727Z" fill="white"/>
<path d="M98.664 102.463C99.0177 103.704 99.5481 104.768 100.079 106.009C100.609 107.072 101.139 108.136 101.847 109.022C102.2 109.554 102.731 109.909 103.438 110.263C103.792 110.44 104.499 110.44 104.676 109.909C104.853 109.554 104.853 108.845 104.322 108.668C104.145 108.49 103.969 108.49 103.792 108.313C103.969 108.49 103.969 108.49 103.792 108.313C103.792 108.313 103.792 108.313 103.615 108.136C103.438 108.136 103.438 107.959 103.438 107.959C103.261 107.781 103.084 107.604 102.908 107.427C102.908 107.427 102.908 107.427 102.908 107.604C102.908 107.604 102.908 107.427 102.731 107.427C102.731 107.25 102.554 107.25 102.554 107.072C102.024 106.186 101.67 105.122 101.139 104.236C101.139 104.236 101.139 104.413 101.316 104.413C100.963 103.704 100.609 102.818 100.432 102.109C100.255 101.577 99.7249 101.222 99.3713 101.4C98.8409 101.4 98.4872 101.931 98.664 102.463Z" fill="white"/>
<path d="M110.157 92.8905C109.45 94.8404 108.919 96.7904 108.212 98.7404C107.682 100.69 107.151 102.818 106.798 104.768C106.621 106.009 106.444 107.249 106.444 108.49C106.444 109.022 106.974 109.377 107.328 109.377C107.859 109.377 108.212 109.022 108.212 108.49C108.212 107.604 108.389 106.895 108.389 106.009V106.186C108.919 102.64 109.803 99.2722 110.864 96.0813C111.218 95.195 111.395 94.1314 111.748 93.245C111.925 92.7132 111.572 92.1814 111.041 92.1814C110.688 92.0041 110.334 92.3586 110.157 92.8905Z" fill="white"/>
<path d="M114.401 95.727C114.224 96.7906 114.224 97.677 114.047 98.5633V98.3861C113.694 101.222 113.163 104.059 112.456 106.895C112.279 107.604 112.102 108.491 111.925 109.2C111.749 109.731 112.102 110.263 112.633 110.263C113.163 110.441 113.694 110.086 113.694 109.554C114.578 106.009 115.285 102.463 115.815 98.7406C115.992 97.677 116.169 96.6133 116.169 95.5497C116.169 95.3724 115.992 95.0179 115.815 94.8406C115.639 94.6634 115.462 94.4861 115.108 94.4861C114.931 94.4861 114.578 94.6634 114.401 94.8406C114.578 95.3724 114.401 95.5497 114.401 95.727Z" fill="white"/>
<path d="M114.401 96.0818C115.108 99.45 116.169 102.641 117.583 105.654C117.937 106.541 118.468 107.25 118.998 108.136C119.175 108.491 119.882 108.668 120.236 108.491C120.589 108.136 120.766 107.604 120.589 107.25C120.589 107.25 120.589 107.427 120.766 107.427V107.604C120.766 107.073 121.12 106.541 121.297 106.009C121.473 105.3 121.65 104.414 121.827 103.704C122.004 102.641 122.181 101.577 122.534 100.336C122.711 99.2727 123.065 98.2091 123.242 97.1454C123.595 95.9045 123.949 94.8409 124.126 93.6C124.126 93.4227 124.126 93.0682 123.949 92.8909C123.772 92.7137 123.595 92.5364 123.418 92.5364C123.242 92.5364 122.888 92.5364 122.711 92.7136C122.534 92.8909 122.358 93.0682 122.358 93.2455C122.181 94.4864 121.827 95.55 121.65 96.6136C121.297 97.6773 121.12 98.9182 120.766 99.9818C120.589 101.223 120.236 102.286 120.059 103.527C119.882 104.059 119.882 104.591 119.705 105.123C119.705 105.3 119.528 105.477 119.528 105.832C119.352 106.186 119.352 106.541 119.175 106.895C118.998 107.25 118.998 107.782 119.175 108.136C119.705 107.782 120.236 107.427 120.766 107.25C119.882 105.832 118.998 104.236 118.468 102.641C118.468 102.641 118.468 102.818 118.644 102.818C117.937 101.045 117.23 99.0954 116.876 97.3227C116.699 96.7909 116.699 96.2591 116.523 95.7273C116.346 95.1955 115.815 95.0182 115.462 95.0182C114.578 95.0182 114.401 95.55 114.401 96.0818Z" fill="white"/>
<path d="M76.2083 62.4001C76.0314 62.4001 75.8546 62.4001 75.8546 62.2229C75.6778 62.0456 75.501 61.8683 75.501 57.9684C75.3242 57.9684 74.9705 57.7911 74.9705 57.6138C74.9705 57.4365 74.7937 57.4365 74.9705 57.2593C72.6719 56.9047 70.9037 55.3093 69.666 52.4729C69.1356 51.232 69.1356 50.1684 69.666 49.282C70.5501 47.6866 72.4951 46.8002 73.556 46.623C73.556 46.0911 73.556 45.2048 73.9096 44.1412C74.4401 42.3684 75.501 40.9503 77.0923 40.2412C80.2751 39.0003 83.281 40.2412 84.3419 40.9503C85.0491 39.8866 87.1709 37.7594 90.1768 37.5821C93.5364 37.4048 97.2495 40.9503 98.3104 42.0139C99.3713 41.6594 102.554 40.9503 105.206 42.723C107.859 44.4957 107.682 47.6866 107.505 48.9275C108.743 49.282 109.804 49.9911 110.334 50.5229C110.864 51.0548 111.218 51.7638 111.395 52.4729C111.572 54.0684 111.041 55.3093 109.98 56.0184C108.919 56.7275 107.505 56.9047 105.737 56.7275C104.322 56.5502 103.438 56.1956 103.261 56.1956C102.908 56.0184 102.731 55.6638 102.908 55.4865C103.084 55.132 103.438 54.9547 103.615 55.132C104.676 55.4865 107.682 56.3729 109.096 55.132C109.804 54.6002 109.98 53.8911 109.98 52.6502C109.98 52.1184 109.804 51.7638 109.45 51.4093C108.919 50.8775 107.859 50.1684 106.621 49.9911C106.444 49.9911 106.267 49.8139 106.09 49.6366C105.914 49.4593 105.914 49.282 106.09 49.1048C106.267 48.573 106.974 45.3821 104.499 43.7866C101.847 42.0139 98.6641 43.2548 98.4872 43.2548C98.3104 43.4321 97.9568 43.2548 97.78 43.0775C96.1886 41.3048 93.0059 38.4685 90.3536 38.6457C87.1709 38.823 85.4028 41.6594 85.0491 41.8366C84.8723 42.0139 84.8723 42.0139 84.6955 42.1912C84.5187 42.1912 84.3419 42.1912 84.165 42.0139C83.8114 41.8366 80.8055 39.7094 77.6228 41.1275C74.6169 42.3684 74.7937 46.2684 74.9705 46.623C74.9705 46.9775 74.7937 47.332 74.4401 47.332C74.0865 47.332 71.7878 48.0411 70.9037 49.4593C70.5501 49.9911 70.5501 50.7002 71.0806 51.5866C72.3183 54.2456 74.0865 55.6638 76.3851 55.6638H76.5619C83.281 52.1184 90.5305 51.9411 90.8841 51.9411C97.78 52.2957 102.024 53.8911 103.438 56.3729C104.499 58.5002 103.438 60.4502 103.084 60.8047C102.908 61.1592 102.554 61.1592 102.2 60.982C96.8959 58.8547 91.5914 57.9684 86.2869 58.6774C82.0432 59.2093 78.8605 60.6274 77.6228 61.1592C76.7387 62.2229 76.3851 62.4001 76.2083 62.4001ZM76.5619 57.2593C76.5619 58.8547 76.5619 60.0956 76.7387 60.8047C78.1533 60.2729 81.336 58.8547 85.7564 58.1456C91.0609 57.4365 96.5423 58.1456 101.847 60.2729C102.2 59.7411 102.377 58.6774 101.847 57.4365C101.14 55.8411 98.4872 54.0684 90.3536 53.5366C90 53.7138 82.9273 53.8911 76.5619 57.2593Z" fill="white"/>
<path d="M90.1768 50.6999C89.8231 50.6999 89.4695 50.3454 89.6463 49.9909C89.6463 49.9909 90.5304 44.4954 89.4695 41.3045C89.2927 40.95 89.4695 40.5954 89.8231 40.4182C90.1768 40.2409 90.5304 40.4182 90.7072 40.7727C91.2377 41.8364 92.2986 43.9636 92.2986 45.5591C92.2986 45.9136 91.945 46.0909 91.7681 46.0909C91.5913 46.0909 91.4145 45.9136 91.2377 45.9136C91.2377 48.0409 90.8841 49.9909 90.8841 50.1681C90.7072 50.3454 90.5304 50.6999 90.1768 50.6999Z" fill="white"/>
<path d="M83.1041 52.2948H82.9273C79.7446 51.0539 78.3301 45.5585 78.3301 45.3812C78.3301 45.0267 78.5069 44.6721 78.8605 44.6721C79.2142 44.6721 79.5678 44.8494 79.5678 45.2039C79.5678 45.2039 80.8055 50.1675 83.4578 51.2312C83.8114 51.4084 83.9882 51.763 83.8114 52.1175C83.6346 52.2948 83.4578 52.2948 83.1041 52.2948Z" fill="white"/>
<path d="M85.9332 52.1181C85.7564 52.1181 85.7564 52.1181 85.9332 52.1181C81.336 50.8772 80.4519 48.0409 80.4519 47.8636C80.2751 47.5091 80.6287 47.1545 80.8055 47.1545C81.1591 46.9772 81.5128 47.3318 81.5128 47.5091C81.5128 47.6863 82.22 49.8136 85.9332 50.8772C86.2868 51.0545 86.4637 51.2318 86.2868 51.5863C86.2868 51.9409 86.11 52.1181 85.9332 52.1181Z" fill="white"/>
<path d="M77.4458 54.5996C76.0313 54.5996 74.6168 53.8905 73.5559 52.4723C72.6718 51.4087 72.3181 50.3451 72.3181 50.3451C72.1413 49.9905 72.3181 49.636 72.6718 49.4587C73.0254 49.2814 73.379 49.4587 73.5559 49.8132C73.5559 49.8132 73.9095 50.6996 74.6168 51.586C75.1472 52.2951 75.6777 52.6496 76.3849 53.0041C76.2081 52.8269 75.8545 52.4723 75.6777 52.1178C75.5009 51.7632 75.5009 51.4087 75.8545 51.2314C76.2081 51.0542 76.5618 51.0542 76.7386 51.4087C77.269 52.1178 77.6227 52.2951 78.1531 52.6496H78.3299C78.6836 52.8269 78.8604 53.1814 78.6836 53.536C78.5067 53.8905 78.3299 54.245 77.7995 54.245C77.6227 54.5996 77.6227 54.5996 77.4458 54.5996Z" fill="white"/>
<path d="M97.0727 51.409C96.8959 51.409 96.719 51.409 96.719 51.2317C96.5422 51.0545 96.5422 50.5226 96.719 50.3454C97.7799 49.2817 98.3104 47.6863 98.3104 47.6863C98.4872 47.3317 98.8408 47.1545 99.1945 47.3318C99.5481 47.509 99.7249 47.8636 99.5481 48.2181C99.5481 48.2181 98.8408 49.9908 97.6031 51.2317C97.4263 51.409 97.2495 51.409 97.0727 51.409Z" fill="white"/>
<path d="M98.1336 52.1186C97.78 52.1186 97.6031 51.9413 97.6031 51.5868C97.6031 51.2322 97.78 50.8777 98.1336 50.8777C101.493 50.1686 100.963 46.6232 100.963 46.4459C100.963 46.0914 101.139 45.7368 101.493 45.7368C101.847 45.7368 102.2 45.9141 102.2 46.2686C102.2 46.2686 102.377 47.5095 102.024 48.7504C101.67 49.9913 100.609 51.5868 98.1336 52.1186C98.3104 52.1186 98.3104 52.1186 98.1336 52.1186Z" fill="white"/>
<path d="M104.499 54.6002C104.145 54.6002 103.969 54.4229 103.969 54.0684C103.969 53.7138 104.145 53.3593 104.499 53.3593C106.621 53.0047 106.798 52.2957 106.798 52.2957L108.035 52.4729C108.035 52.6502 107.858 53.0047 107.505 53.5366C106.798 54.0684 105.913 54.4229 104.499 54.6002C104.676 54.6002 104.676 54.6002 104.499 54.6002Z" fill="white"/>
<path d="M95.6581 67.009C94.9508 67.009 94.2436 67.009 93.3595 67.009C93.0058 67.009 92.829 66.6544 92.829 66.2999C92.829 65.9454 93.1827 65.7681 93.5363 65.7681C98.8408 66.1226 100.079 65.4135 100.609 63.8181C100.609 63.8181 100.609 63.6408 100.609 63.4635C100.432 63.2863 99.7249 62.5772 97.2495 61.8681C95.8349 61.5136 94.4204 61.3363 94.4204 61.3363C84.165 60.0954 78.1532 63.9954 78.1532 63.9954C77.7996 64.1726 77.4459 64.1726 77.2691 63.8181C77.0923 63.4635 77.0923 63.109 77.4459 62.9317C77.6227 62.7545 83.9882 58.8545 94.5972 60.0954C95.6581 60.2727 100.432 60.9817 101.67 62.7545C102.024 63.109 102.024 63.6408 101.847 63.9954C101.493 65.2363 100.609 66.1226 99.1944 66.4772C98.1335 66.8317 97.0726 67.009 95.6581 67.009Z" fill="white"/>
<path d="M77.9764 65.5905C77.7996 65.5905 77.6227 65.4132 77.4459 65.236C77.2691 64.8814 77.4459 64.5269 77.6227 64.3496C77.7996 64.1723 83.1041 61.1587 91.4145 60.9814C91.7681 60.9814 91.9449 61.336 91.9449 61.5133C91.9449 61.8678 91.5913 62.2223 91.4145 62.2223C83.4577 62.3996 78.33 65.4132 78.33 65.4132C78.1532 65.5905 78.1532 65.5905 77.9764 65.5905Z" fill="white"/>
<path d="M34.3026 126.04C35.0099 127.104 35.3635 128.168 35.0099 128.877C34.8331 129.408 34.4794 129.94 33.7722 130.295C33.4185 130.472 33.2417 130.649 32.8881 130.827L29.8822 132.068C27.5836 132.954 25.8154 132.422 24.4008 130.118C23.8704 129.231 23.5168 128.345 23.6936 127.636C23.6936 126.927 24.224 126.218 24.9313 125.863C25.2849 125.686 25.6386 125.508 25.9922 125.331C26.3458 125.154 26.6995 125.154 26.8763 125.154H27.2299L28.6445 127.281C28.114 127.281 27.5836 127.281 27.0531 127.636C26.6995 127.813 26.5227 127.99 26.5227 128.345C26.5227 128.522 26.5227 128.877 26.6995 129.231C27.2299 130.118 27.9372 130.295 28.9981 129.763L31.6504 128.699C31.8272 128.522 32.1808 128.522 32.3576 128.345C32.8881 127.99 32.8881 127.458 32.5344 126.927C32.004 126.218 31.2967 126.04 30.4126 126.395L28.9981 124.268L29.3517 124.09C31.1199 123.204 32.8881 123.736 34.3026 126.04Z" fill="white"/>
<path d="M18.0354 117.531C17.1513 115.404 17.6818 113.986 19.2731 113.277C19.6267 113.1 19.8036 113.1 20.334 112.922L23.1631 112.391C24.4008 112.036 25.6385 112.213 26.5226 112.568C27.4067 113.1 28.114 113.986 28.6444 115.227C29.1749 116.468 29.1749 117.531 28.8212 118.24C28.4676 118.772 28.114 119.127 27.4067 119.481C27.0531 119.659 26.6994 119.659 26.3458 119.836L23.3399 120.545C20.8645 121.077 19.0963 120.013 18.0354 117.531ZM26.3458 115.759C26.169 115.404 25.9922 115.05 25.6385 114.872C25.2849 114.695 24.7544 114.695 24.224 114.872L21.5717 115.404C21.3949 115.404 21.2181 115.581 21.0413 115.581C20.334 115.936 20.1572 116.468 20.334 117.177C20.6877 118.063 21.3949 118.418 22.6326 118.24L25.2849 117.709C25.4617 117.709 25.8154 117.531 25.9922 117.531C26.5226 117 26.6994 116.468 26.3458 115.759Z" fill="white"/>
<path d="M14.1454 103.527C13.9686 102.463 13.9686 101.577 14.3223 101.045C14.6759 100.69 15.0295 100.336 15.56 100.336C15.7368 100.336 15.9136 100.336 16.0904 100.336H17.1513C17.8586 100.336 18.3891 100.336 18.7427 100.69C19.0963 100.868 19.45 101.222 19.8036 101.399L23.6936 99.2722L24.224 102.109L20.6877 104.059L20.8645 104.945L24.7545 104.768L25.2849 107.427L14.8527 107.781L14.1454 103.527ZM16.4441 103.881L16.6209 104.945L19.0963 104.768L18.9195 103.704C18.7427 103.172 18.5659 102.818 18.3891 102.64C18.0354 102.463 17.6818 102.463 17.3282 102.463C16.6209 102.818 16.4441 103.349 16.4441 103.881Z" fill="white"/>
<path d="M19.9804 90.4083V92.181L23.1631 92.7128V95.3719L12.7309 93.7764L12.5541 89.3447C12.5541 88.281 12.7309 87.5719 13.2613 87.0401C13.615 86.6856 14.1454 86.5083 14.6759 86.5083C14.8527 86.5083 15.0295 86.5083 15.3832 86.5083L16.9745 86.6856C17.8586 86.8628 18.389 87.2174 18.9195 87.9265C19.6268 88.4583 19.9804 89.3447 19.9804 90.4083ZM15.0295 90.0537V91.2946L17.6818 91.6492V90.4083C17.6818 89.6992 17.3281 89.1674 16.6209 88.9901H16.0904C16.0904 88.9901 15.9136 88.9901 15.7368 88.9901C15.56 88.9901 15.3832 88.9901 15.2063 89.1674C15.0295 89.3446 15.0295 89.6992 15.0295 90.0537Z" fill="white"/>
<path d="M13.7918 76.0492C14.1454 73.7447 15.2063 72.681 17.1513 73.0356C17.5049 73.0356 17.8586 73.2128 18.2122 73.2128L21.0413 74.0992C22.279 74.4537 23.1631 75.1628 23.6935 76.0492C24.224 76.9356 24.4008 77.9992 24.224 79.4174C24.0472 80.8355 23.5167 81.7219 22.8095 82.0764C22.279 82.431 21.7485 82.431 20.8645 82.431C20.5108 82.431 20.1572 82.2537 19.8036 82.0764L16.9745 81.1901C14.499 80.481 13.4381 78.7083 13.7918 76.0492ZM21.9254 78.7083C21.9254 78.1765 21.9254 77.8219 21.7485 77.4674C21.5717 77.1128 21.0413 76.9356 20.5108 76.581L17.8586 75.6947C17.6818 75.6947 17.5049 75.5174 17.3281 75.5174C16.6208 75.3401 16.0904 75.6947 15.9136 76.581C15.7368 77.6446 16.2672 78.1765 17.3281 78.531L19.9804 79.4174C20.1572 79.4174 20.5108 79.5946 20.6876 79.5946C21.3949 79.9492 21.7485 79.5946 21.9254 78.7083Z" fill="white"/>
<path d="M17.8585 61.8676C18.2121 60.804 18.7426 60.2722 19.273 59.9176C19.8035 59.7404 20.1571 59.7404 20.6876 59.9176C20.8644 59.9176 21.0412 60.0949 21.218 60.0949L22.2789 60.6267C22.8094 60.9813 23.163 61.3358 23.5167 61.6903C23.6935 62.0449 23.8703 62.3994 24.0471 62.9312L28.4675 63.1085L27.5835 65.7676L23.3398 65.5903L22.9862 66.4767L26.3457 68.2494L25.4616 70.9085L16.444 65.7676L17.8585 61.8676ZM19.6267 63.4631L19.273 64.5267L21.5717 65.7676L21.9253 64.8812C22.1021 64.3494 22.1021 63.9949 21.9253 63.8176C21.7485 63.4631 21.5717 63.2858 21.0412 63.1085C20.3339 62.5767 19.8035 62.754 19.6267 63.4631Z" fill="white"/>
<path d="M32.3576 55.1315L30.4126 53.8905L29.1749 56.0178L30.7663 57.7905L29.3517 60.0951L22.2791 51.7633L24.5777 47.686L33.5954 52.8269L32.3576 55.1315ZM25.2849 51.7633L27.9372 54.5996L28.8213 53.0042L25.8154 51.0542L25.2849 51.7633Z" fill="white"/>
<path d="M36.0707 36.8728L33.7721 39.5319L39.0766 45.7364L37.3085 47.8637L32.0039 41.6592L29.8821 44.3182L28.2908 42.5455L34.4794 35.1001L36.0707 36.8728Z" fill="white"/>
<path d="M49.6858 35.6314L44.2044 40.2405L38.8999 31.1996L44.3812 26.5906L45.4421 28.5406L41.9058 31.5542L42.9667 33.3269L45.9726 30.8451L47.0335 32.7951L44.2044 35.0996L45.0885 36.5178L48.6249 33.5042L49.6858 35.6314Z" fill="white"/>
<path d="M57.4657 25.5271C57.1121 24.9953 57.1121 24.4634 57.2889 24.1089C57.4657 23.7544 57.6425 23.3998 58.173 23.2225C58.8802 22.868 59.4107 23.0453 59.7643 23.5771C60.1179 24.1089 60.118 24.6407 59.9411 24.9953C59.7643 25.3498 59.4107 25.7043 59.057 25.8816C58.3498 26.2362 57.8193 26.2362 57.4657 25.5271Z" fill="white"/>
<path d="M78.5069 23.0455L71.4342 24.6409L71.0806 14.1819L78.1533 12.5864V14.891L73.7328 15.9546L73.9096 17.9046L77.6228 17.0182V19.3228L73.9096 20.2091V21.9818L78.3301 20.9182L78.5069 23.0455Z" fill="white"/>
<path d="M87.171 19.6775L89.6465 11.7002L92.4756 11.5229L88.9392 21.982L84.342 22.1593L83.8115 11.8775H86.6406L86.9942 19.6775H87.171Z" fill="white"/>
<path d="M102.377 23.2223L95.3046 22.1587L98.4873 12.2314L105.56 13.2951L104.853 15.4223L100.255 14.7133L99.725 16.6632L103.438 17.1951L102.731 19.3223L99.0177 18.7905L98.4873 20.3859L103.085 21.095L102.377 23.2223Z" fill="white"/>
<path d="M119.175 17.3725L114.224 26.5906L111.749 25.7042V19.677L109.096 24.8179L106.621 23.9315L111.572 14.7134L114.047 15.5997V21.0952L116.699 16.4861L119.175 17.3725Z" fill="white"/>
<path d="M131.552 26.4133L128.546 24.6406L123.419 31.0224L121.12 29.7815L126.248 23.3997L123.242 21.627L124.656 19.8542L133.143 24.6406L131.552 26.4133Z" fill="white"/>
<path d="M138.094 36.3409C138.448 35.8091 138.978 35.6318 139.332 35.6318C139.686 35.6318 140.039 35.8091 140.57 36.1636C141.1 36.6955 141.277 37.2273 140.747 37.7591C140.393 38.1136 139.862 38.4682 139.509 38.4682C139.155 38.4682 138.802 38.2909 138.271 37.9364C137.741 37.4046 137.741 36.8727 138.094 36.3409Z" fill="white"/>
<path d="M145.697 52.4723C144.99 51.2314 144.813 50.345 144.99 49.6359C145.167 49.1041 145.521 48.5723 146.228 48.2178C146.582 48.0405 146.758 47.8632 147.112 47.6859L150.118 46.445C152.416 45.5587 154.185 46.0905 155.599 48.395C156.13 49.2814 156.483 50.1678 156.306 50.8768C156.13 51.5859 155.776 52.295 155.069 52.6496C154.715 52.8268 154.361 53.0041 154.008 53.1814C153.831 53.1814 153.654 53.1814 153.477 53.1814H153.124L151.709 51.0541C152.24 51.0541 152.77 51.0541 153.301 50.6996C153.654 50.5223 153.831 50.345 153.831 49.9905C153.831 49.8132 153.831 49.4587 153.654 49.1041C153.124 48.2178 152.416 48.0405 151.356 48.5723L148.703 49.6359C148.527 49.8132 148.173 49.8132 147.996 49.9905C147.466 50.345 147.466 50.8768 147.819 51.4087C148.35 52.1177 149.057 52.295 149.941 51.9405L151.356 54.0677L151.002 54.245C148.88 55.3086 147.112 54.5995 145.697 52.4723Z" fill="white"/>
<path d="M152.063 64.1725L154.185 63.4634L153.301 61.3361L151.002 61.5134L149.941 59.0316L160.904 58.4998L162.672 62.9316L153.124 67.0088L152.063 64.1725ZM159.136 60.8043L155.422 61.1588L156.13 62.9316L159.489 61.6906L159.136 60.8043Z" fill="white"/>
<path d="M164.44 78.1767L163.733 74.8085L155.599 75.1631L154.892 72.6813L163.026 72.3267L162.318 68.7813L164.617 68.604L166.739 77.9994L164.44 78.1767Z" fill="white"/>
<path d="M157.014 89.8763L156.66 82.6082L167.092 84.0263L167.446 91.2945L165.147 90.9399L164.971 86.3309L163.026 86.1536L163.202 90.0536L160.904 89.5218L160.727 85.6218L158.959 85.4445L159.136 90.0536L157.014 89.8763Z" fill="white"/>
<path d="M166.208 101.754C166.031 102.818 165.678 103.527 165.147 103.881C164.794 104.236 164.263 104.236 163.733 104.236C163.556 104.236 163.379 104.236 163.202 104.059L162.141 103.704C161.611 103.527 161.081 103.172 160.727 102.818C160.373 102.463 160.196 102.109 160.02 101.754L155.776 102.463L156.13 99.6267L160.196 98.9177L160.373 98.0313L156.66 96.9677L157.014 94.3086L166.915 97.4995L166.208 101.754ZM164.086 100.513L164.263 99.4495L161.788 98.7404L161.611 99.804C161.611 100.336 161.611 100.69 161.788 100.868C161.965 101.045 162.318 101.222 162.672 101.399C163.556 101.399 164.086 101.222 164.086 100.513Z" fill="white"/>
<path d="M163.379 113.631L154.008 108.845L154.715 106.363L164.086 111.149L163.379 113.631Z" fill="white"/>
<path d="M157.544 126.927L149.057 120.899L150.118 118.595L155.953 119.304L151.356 115.936L152.416 113.631L160.904 119.659L159.843 122.318L154.361 121.609L158.782 124.799L157.544 126.927Z" fill="white"/>
<path d="M144.283 127.99C145.167 126.926 145.874 126.395 146.758 126.217C147.289 126.217 147.996 126.395 148.526 126.926C148.88 127.104 149.057 127.458 149.411 127.635L151.356 129.763C153.124 131.713 153.301 133.663 151.709 135.79C151.002 136.676 150.295 137.208 149.587 137.385C148.88 137.563 148.173 137.385 147.466 136.854C147.112 136.676 146.935 136.499 146.758 136.145C146.581 135.79 146.405 135.613 146.228 135.435L146.051 135.081L147.466 132.954C147.642 133.308 147.819 133.663 148.173 134.017C148.88 134.549 149.411 134.549 149.764 133.84C150.295 133.131 150.295 132.245 149.411 131.535L147.466 129.585C147.289 129.408 147.112 129.231 146.935 129.054C146.405 128.699 145.874 128.699 145.521 129.408C144.99 130.117 145.167 130.649 145.521 131.358L146.228 130.472L147.289 131.713L144.99 134.726L144.106 133.84L143.752 133.485C142.868 132.067 142.868 130.117 144.283 127.99Z" fill="white"/>
<path d="M53.0452 167.344C51.4538 167.344 49.8625 167.167 48.0943 166.635C47.387 166.458 46.8566 166.281 46.3261 165.926C45.7957 165.572 45.0884 165.394 44.558 165.217C43.8507 165.749 42.7898 166.281 41.7289 166.635C40.668 166.99 39.6071 167.167 38.5462 167.167C37.3084 167.167 36.2475 166.812 35.7171 166.281C35.1866 165.749 34.833 165.04 34.833 164.331C34.833 163.622 35.1866 162.912 35.7171 162.381C36.2475 161.672 37.1316 161.494 38.0157 161.494C38.8998 161.494 39.6071 161.672 40.4912 162.026C41.3752 162.381 42.0825 162.735 42.9666 163.09C43.1434 163.267 43.3202 163.267 43.6739 163.444C43.8507 163.622 44.2043 163.622 44.3811 163.799C45.0884 163.09 45.7957 162.381 46.6798 161.317C47.5638 160.253 48.2711 159.19 49.1552 157.949C50.0393 156.708 50.9234 155.467 51.8075 154.049C52.6915 152.631 53.5756 151.567 54.6365 150.326C55.5206 149.085 56.4047 148.022 57.4656 147.135C56.7583 146.958 56.0511 146.603 55.3438 146.603C54.6365 146.426 53.7525 146.426 53.0452 146.426C50.7466 146.426 48.8016 146.603 47.2102 147.135C45.6189 147.49 44.2043 148.199 43.1434 148.908C42.0825 149.617 41.1984 150.326 40.4912 151.213C39.7839 152.099 39.4303 152.808 39.2534 153.517C39.2534 153.872 39.0766 154.049 39.0766 154.226C39.0766 154.403 39.0766 154.758 39.0766 154.935C39.0766 155.644 39.2534 156.176 39.7839 156.531C40.3143 156.885 40.8448 157.063 41.5521 157.063C42.2593 157.063 43.1434 156.885 44.0275 156.531C44.9116 156.176 45.7957 155.467 46.8566 154.581C47.7407 153.694 48.6248 152.631 49.5088 151.213C49.6857 151.035 49.8625 150.858 50.0393 150.858C50.2161 150.858 50.3929 150.858 50.3929 151.035C50.5697 151.213 50.5697 151.213 50.5697 151.39C50.5697 151.567 50.5697 151.567 50.3929 151.744C49.5088 153.34 48.6248 154.403 47.5638 155.467C46.5029 156.353 45.442 157.24 44.3811 157.594C43.3202 157.949 42.4361 158.303 41.3752 158.303C40.3143 158.303 39.6071 157.949 38.8998 157.417C38.1925 156.885 37.8389 155.999 37.8389 154.935C37.8389 154.403 38.0157 153.694 38.1925 153.163C38.5462 152.276 38.8998 151.39 39.6071 150.503C40.3143 149.617 41.3752 148.731 42.4361 148.022C43.6739 147.313 45.0884 146.603 46.8566 146.249C48.6248 145.717 50.5697 145.54 53.0452 145.54C54.1061 145.54 54.9902 145.717 55.8743 145.894C56.7583 146.072 57.6424 146.426 58.3497 146.781C59.057 146.249 59.5874 145.717 60.2947 145.54C61.002 145.185 61.5324 145.008 62.0629 145.008C62.2397 145.008 62.4165 145.008 62.4165 145.185C62.4165 145.363 62.5933 145.363 62.5933 145.54C62.5933 145.717 62.5933 145.894 62.4165 145.894C62.4165 146.072 62.2397 146.072 62.0629 146.072C61.3556 146.072 60.4715 146.426 59.4106 147.313C61.1788 148.376 62.4165 149.794 63.3006 151.39C64.1847 152.985 64.5383 154.935 64.5383 156.708C64.5383 158.481 64.1847 160.076 63.4774 161.494C62.5933 163.267 61.3556 164.685 59.5874 165.926C57.8193 167.167 55.5206 167.344 53.0452 167.344ZM35.7171 164.331C35.7171 164.685 35.8939 165.04 36.2475 165.394C36.6012 165.749 37.3084 165.926 38.1925 165.926C38.8998 165.926 39.7839 165.749 40.668 165.572C41.5521 165.394 42.2593 165.04 42.9666 164.508C42.4361 164.331 41.9057 163.976 41.3752 163.799C40.8448 163.622 40.3143 163.267 39.7839 163.09C39.4303 162.912 39.2534 162.735 38.8998 162.735C38.5462 162.735 38.5462 162.558 38.3694 162.558C38.1925 162.558 38.1925 162.558 38.0157 162.558C37.8389 162.558 37.8389 162.558 37.6621 162.558C36.9548 162.558 36.4244 162.735 36.0707 163.09C35.7171 163.444 35.7171 163.799 35.7171 164.331ZM48.2711 165.394C49.8625 165.926 51.4538 166.103 52.8684 166.103C55.167 166.103 57.112 165.572 58.7033 164.508C60.2947 163.444 61.5324 162.203 62.2397 160.608C62.947 159.19 63.1238 157.772 63.1238 156.353C63.1238 154.581 62.7701 152.985 61.886 151.39C61.002 149.794 59.7642 148.553 58.1729 147.667C57.4656 148.199 56.7583 148.908 56.2279 149.794C55.5206 150.503 54.8134 151.39 54.2829 152.453C53.7525 153.163 53.222 154.049 52.5147 155.113C51.8075 156.176 50.9234 157.24 50.2161 158.481C49.5088 159.722 48.4479 160.785 47.7407 161.849C47.0334 162.913 46.1493 163.799 45.442 164.508C45.9725 164.685 46.5029 164.862 46.8566 165.04C47.387 165.04 47.9175 165.217 48.2711 165.394Z" fill="#D2A167"/>
<path d="M67.3674 165.571C66.837 165.571 66.3065 165.394 65.9529 165.039C65.5992 164.685 65.5992 164.153 65.5992 163.621C65.5992 163.089 65.7761 162.38 66.1297 161.494C66.4833 160.608 67.0138 159.899 67.5442 159.012C68.0747 158.126 68.782 157.417 69.4892 156.53C70.1965 155.821 70.9038 155.112 71.611 154.758C72.3183 154.226 73.0256 154.049 73.556 154.049C73.9097 154.049 74.4401 154.049 74.7937 154.226C75.1474 154.403 75.501 154.58 75.6778 154.935C75.8546 155.289 76.0315 155.821 76.0315 156.53C76.0315 156.708 76.0315 156.885 75.8547 157.062C75.6778 157.239 75.6778 157.239 75.501 157.239C75.3242 157.239 75.1474 157.239 75.1474 157.062C74.9706 156.353 74.7937 155.999 74.4401 155.644C74.0865 155.467 73.7328 155.289 73.556 155.289C73.2024 155.289 72.6719 155.467 71.9647 155.999C71.4342 156.353 70.7269 157.062 70.1965 157.594C69.666 158.303 68.9588 159.012 68.4283 159.721C67.8979 160.43 67.5442 161.139 67.1906 161.849C66.837 162.558 66.6602 163.089 66.6602 163.621C66.6602 163.799 66.6601 163.976 66.837 164.153C66.837 164.33 67.0138 164.33 67.1906 164.33C67.5442 164.33 67.8979 164.153 68.4283 163.799C68.9588 163.444 69.4892 163.089 70.0197 162.38C70.5501 161.849 71.2574 161.317 71.7878 160.608C72.3183 160.076 72.8488 159.367 73.3792 158.835C73.9097 158.303 74.2633 157.949 74.4401 157.594C74.6169 157.417 74.7937 157.239 74.9706 157.239C75.1474 157.239 75.3242 157.239 75.3242 157.417C75.501 157.594 75.501 157.594 75.501 157.771C75.501 157.771 75.501 157.949 75.3242 158.126C75.1474 158.303 74.9706 158.658 74.7937 159.189C74.6169 159.721 74.4401 160.076 74.2633 160.608C74.0865 161.139 73.9097 161.494 73.7328 162.026C73.556 162.558 73.556 162.735 73.556 162.912C73.556 163.089 73.556 163.267 73.7328 163.267C73.9097 163.267 73.9097 163.267 74.0865 163.089C74.2633 162.912 74.4401 162.912 74.4401 162.735C74.9706 162.38 75.501 161.849 75.8547 161.317C76.3851 160.785 76.7387 160.43 77.0924 159.899C77.0924 159.721 77.2692 159.721 77.446 159.721C77.6228 159.721 77.6228 159.721 77.7996 159.899C77.9765 160.076 77.9765 160.076 77.9765 160.253C77.9765 160.43 77.9765 160.608 77.7996 160.785C77.446 161.317 77.0924 161.671 76.3851 162.203C75.8547 162.735 75.3242 163.267 74.9706 163.444C74.6169 163.621 74.4401 163.799 73.9097 163.976C73.3792 164.153 73.7328 164.862 73.3792 164.862C73.2024 164.862 72.8488 164.862 72.6719 164.685C72.4951 164.508 72.4951 164.33 72.4951 163.799C72.4951 163.444 72.4951 163.089 72.6719 162.735C72.8488 162.38 72.8488 161.849 73.0256 161.494C72.4951 162.203 71.7879 162.735 71.0806 163.444C70.3733 164.153 69.666 164.508 69.1356 165.039C68.6051 165.571 67.8979 165.571 67.3674 165.571Z" fill="#D2A167"/>
<path d="M77.9763 165.217C77.4459 165.217 77.0922 165.04 76.9154 164.686C76.7386 164.331 76.5618 163.976 76.5618 163.445C76.5618 163.09 76.5618 162.736 76.7386 162.381C76.9154 161.672 77.269 161.14 77.6227 160.431C77.9763 159.722 78.5068 159.19 78.8604 158.481C78.8604 158.304 79.0372 158.126 79.214 157.772C79.3908 157.417 79.5677 157.063 79.7445 156.708C79.9213 156.354 79.9213 155.999 79.9213 155.822C79.9213 155.467 79.9213 155.113 80.0981 154.936C80.2749 154.758 80.4518 154.758 80.6286 154.758C80.8054 154.758 80.9822 154.936 81.159 155.113C81.159 155.29 81.3358 155.467 81.3358 155.822C81.3358 156.176 81.3358 156.531 81.159 157.063C80.9822 157.595 80.8054 158.126 80.4518 158.658C80.0981 159.19 79.7445 159.722 79.3909 160.254C79.0372 160.786 78.6836 161.317 78.3299 162.026C77.9763 162.558 77.9763 163.09 77.9763 163.445C77.9763 163.799 78.1531 163.976 78.3299 163.976C78.5068 163.976 78.6836 163.976 78.8604 163.799C79.214 163.622 79.7445 163.267 80.2749 162.913C80.9822 162.381 81.6895 161.849 82.3967 161.317C83.104 160.786 83.8113 160.076 84.3417 159.545C84.8722 159.013 85.4026 158.481 85.5795 158.126C85.7563 157.949 85.9331 157.772 86.1099 157.772C86.2867 157.772 86.4635 157.772 86.6404 157.949C86.8172 158.126 86.8172 158.126 86.6404 158.304C86.4635 159.19 86.1099 160.254 85.5795 161.495C85.049 162.736 84.5186 163.976 83.8113 165.217C84.1649 165.217 84.5186 165.217 84.8722 165.395C85.049 165.395 85.2258 165.572 85.2258 165.926C85.2258 166.104 85.2258 166.281 85.049 166.458C84.8722 166.636 84.6954 166.636 84.5186 166.636C84.3417 166.636 84.1649 166.636 83.9881 166.458C83.8113 166.458 83.6345 166.458 83.4576 166.458C83.2808 166.458 83.104 166.458 83.104 166.458C82.3967 167.699 81.6895 168.94 80.9822 170.181C80.2749 171.422 79.5677 172.308 79.0372 173.195C78.5068 173.904 77.7995 174.79 77.0922 175.499C76.385 176.208 75.6777 176.74 74.9704 177.272C74.2632 177.804 73.3791 177.981 72.6718 177.981C71.7877 177.981 71.2573 177.804 70.7268 177.449C70.1964 177.095 70.0195 176.563 70.0195 175.854C70.0195 175.145 70.1964 174.435 70.55 173.549C70.9036 172.663 71.4341 171.954 71.9645 171.067C72.6718 170.181 73.5559 169.295 74.6168 168.585C75.6777 167.876 76.9154 167.167 78.1531 166.636C79.3909 166.104 80.8054 165.749 82.0431 165.572C82.3967 164.863 82.7504 164.154 83.104 163.445C83.4576 162.736 83.8113 162.026 83.9881 161.495C83.104 162.381 82.2199 163.09 81.159 163.622C80.0981 164.154 79.3908 164.863 78.8604 165.04C78.6836 165.04 78.3299 165.217 77.9763 165.217ZM72.8486 176.563C73.5559 176.563 74.2632 176.208 74.9704 175.676C75.6777 175.145 76.5618 174.258 77.269 173.372C77.9763 172.308 78.8604 171.245 79.5677 170.181C80.2749 169.117 80.9822 167.699 81.6895 166.458C79.9213 166.636 78.3299 167.345 76.7386 168.231C75.1472 169.117 73.9095 170.181 73.0254 171.422C72.8486 171.599 72.6718 171.954 72.3182 172.485C71.9645 173.017 71.7877 173.372 71.6109 173.904C71.4341 174.435 71.2573 174.79 71.2573 175.322C71.2573 175.676 71.4341 176.031 71.6109 176.208C71.7877 176.385 72.1413 176.563 72.8486 176.563Z" fill="#D2A167"/>
<path d="M87.8781 166.103C87.7013 166.103 87.5245 166.103 87.5245 165.926C87.3477 165.749 87.3477 165.749 87.3477 165.572V165.394C87.7013 164.508 88.2317 163.622 88.5854 162.912C88.939 162.203 89.4695 161.317 89.8231 160.608C89.9999 160.253 90.1767 159.899 90.5304 159.367C90.884 158.835 91.0608 158.303 91.2376 157.772C91.4144 157.24 91.5913 156.708 91.7681 156.176C91.9449 155.644 91.9449 155.29 91.9449 154.935C91.9449 154.758 91.9449 154.581 91.9449 154.581C91.9449 154.581 91.9449 154.581 91.9449 154.403C91.9449 154.226 91.9449 154.049 92.1217 154.049C92.2985 153.872 92.4754 153.872 92.6522 153.872C92.829 153.872 93.0058 153.872 93.1826 154.049C93.3594 154.226 93.3594 154.403 93.3594 154.935C93.3594 155.29 93.3594 155.644 93.1826 156.176C93.0058 156.708 92.829 157.417 92.4754 158.126C92.2985 158.481 92.1217 158.835 91.9449 159.19C91.7681 159.544 91.5913 159.722 91.4145 160.076C92.2985 159.19 93.1826 158.481 94.0667 157.772C94.9508 157.062 95.6581 156.531 96.3653 156.176C97.0726 155.822 97.6031 155.644 97.7799 155.644C97.9567 155.644 98.1335 155.644 98.3103 155.822C98.4871 155.999 98.4871 156.176 98.4871 156.353C98.4871 156.708 98.4871 156.885 98.3103 157.24C98.1335 157.594 97.9567 157.949 97.7799 158.126C97.6031 158.481 97.4262 158.658 97.4262 158.658C97.2494 159.012 96.8958 159.544 96.5422 160.253C96.1885 160.962 95.8349 161.672 95.4812 162.381C95.4812 162.558 95.3044 162.912 95.3044 163.09C95.3044 163.267 95.1276 163.622 95.1276 163.799C95.1276 164.153 95.3044 164.153 95.4812 164.153C95.6581 164.153 96.0117 163.976 96.3653 163.799C96.8958 163.444 97.4262 163.09 97.7799 162.735C98.1335 162.381 98.664 161.849 98.8408 161.672C98.8408 161.672 99.0176 161.494 99.1944 161.317C99.3712 161.14 99.7249 160.785 100.078 160.431C100.078 160.253 100.255 160.253 100.432 160.253C100.609 160.253 100.609 160.253 100.786 160.431C100.963 160.608 100.963 160.608 100.963 160.785C100.963 160.962 100.963 161.14 100.786 161.317C100.432 161.849 100.078 162.203 99.548 162.735C99.0176 163.267 98.4871 163.799 98.1335 163.976C97.6031 164.331 97.2494 164.508 96.719 164.862C96.1885 165.04 95.8349 165.217 95.3044 165.217C94.9508 165.217 94.5972 165.217 94.4203 165.04C94.2435 164.862 94.0667 164.508 94.0667 163.799C94.0667 162.912 94.2435 162.203 94.774 161.317C95.1276 160.608 95.6581 159.722 96.1885 159.012C96.719 158.303 97.0726 157.417 97.4262 156.885C96.8958 157.24 96.1885 157.772 95.3044 158.303C94.4203 159.012 93.5363 159.722 92.4754 160.608C91.4145 161.494 90.5304 162.558 89.8231 163.622C89.6463 163.976 89.4695 164.153 89.2926 164.508C89.1158 164.862 88.939 165.217 88.7622 165.572C88.5854 165.926 88.2317 166.103 87.8781 166.103Z" fill="#D2A167"/>
<path d="M101.67 165.039C101.316 165.039 101.14 165.039 100.963 164.862C100.786 164.685 100.786 164.33 100.786 163.975C100.786 163.444 100.963 162.912 101.14 162.38C101.316 161.671 101.67 160.962 102.024 160.43C102.377 159.721 102.731 159.012 103.085 158.48C103.438 157.948 103.792 157.416 104.145 157.062C104.322 156.885 104.499 156.885 104.676 156.885C104.853 156.885 105.03 156.885 105.206 157.062C105.383 157.062 105.383 157.239 105.383 157.416C105.383 157.594 105.383 157.594 105.206 157.771C105.03 157.948 104.853 158.125 104.676 158.48C104.499 158.835 104.145 159.189 103.969 159.544C103.792 159.898 103.615 160.253 103.438 160.43C103.261 160.785 103.085 161.316 102.731 161.848C102.554 162.38 102.377 162.735 102.2 163.089C102.2 163.266 102.024 163.444 102.024 163.621C102.024 163.798 102.024 163.975 102.2 163.975C102.377 163.975 102.554 163.975 102.731 163.798C102.908 163.621 103.085 163.621 103.261 163.444C103.792 163.089 104.322 162.557 104.676 162.025C105.206 161.494 105.56 161.139 105.914 160.607C105.914 160.43 106.09 160.43 106.267 160.43C106.444 160.43 106.444 160.43 106.621 160.607C106.798 160.785 106.798 160.785 106.798 160.962C106.798 161.139 106.798 161.316 106.621 161.494C106.267 162.025 105.914 162.38 105.206 162.912C104.676 163.444 104.145 163.975 103.792 164.153C103.438 164.33 103.085 164.507 102.731 164.862C102.554 165.039 102.024 165.039 101.67 165.039ZM106.444 155.289C106.267 155.289 105.914 155.112 105.737 154.935C105.56 154.757 105.383 154.58 105.383 154.225C105.383 153.871 105.56 153.694 105.737 153.516C105.914 153.339 106.09 153.162 106.444 153.162C106.798 153.162 106.974 153.339 107.151 153.516C107.328 153.694 107.505 153.871 107.505 154.225C107.505 154.58 107.328 154.757 107.151 154.935C106.974 155.289 106.798 155.289 106.444 155.289Z" fill="#D2A167"/>
<path d="M107.328 165.216C106.798 165.216 106.267 165.039 105.914 164.684C105.56 164.33 105.56 163.798 105.56 163.266C105.56 162.734 105.737 162.025 106.09 161.139C106.444 160.253 106.974 159.544 107.505 158.657C108.035 157.771 108.743 157.062 109.45 156.175C110.157 155.466 110.864 154.757 111.572 154.403C112.279 154.048 112.986 153.694 113.517 153.694C115.108 153.694 115.992 154.403 115.992 155.998C115.992 156.353 115.992 156.53 115.815 156.53C115.639 156.707 115.639 156.707 115.462 156.707C115.285 156.707 115.108 156.707 115.108 156.53C115.108 155.821 114.754 155.466 114.401 155.112C114.047 154.935 113.694 154.757 113.517 154.757C113.163 154.757 112.633 154.935 111.925 155.466C111.218 155.998 110.688 156.53 110.157 157.062C109.627 157.771 108.919 158.48 108.389 159.189C107.859 159.898 107.505 160.607 107.151 161.316C106.798 162.025 106.621 162.557 106.621 163.089C106.621 163.266 106.621 163.444 106.798 163.621C106.798 163.798 106.974 163.798 107.151 163.798C107.505 163.798 107.859 163.621 108.389 163.266C108.919 162.912 109.45 162.557 109.98 162.025C110.511 161.494 111.218 160.962 111.749 160.253C112.279 159.721 112.809 159.012 113.34 158.48C113.87 157.948 114.224 157.416 114.401 157.239C114.578 157.062 114.578 157.062 114.754 157.062C115.108 157.062 115.285 157.239 115.285 157.594V157.771V157.948C115.108 158.834 114.754 159.721 114.401 160.784C114.047 161.848 113.517 163.089 112.986 164.33C113.163 164.33 113.34 164.33 113.517 164.507C113.87 164.507 113.87 164.684 113.87 165.039C113.87 165.216 113.87 165.394 113.694 165.571C113.517 165.748 113.34 165.748 113.163 165.748C112.986 165.748 112.809 165.748 112.809 165.571C112.633 165.571 112.633 165.571 112.456 165.571C111.749 166.989 111.218 168.407 110.511 169.648C109.804 170.889 109.096 172.13 108.566 173.016C108.035 173.725 107.505 174.612 106.798 175.321C106.09 176.03 105.383 176.562 104.676 177.093C103.969 177.625 103.085 177.803 102.377 177.803C101.493 177.803 100.786 177.625 100.432 177.093C99.9018 176.739 99.725 176.03 99.725 175.321C99.725 174.612 99.9018 173.903 100.255 173.193C100.609 172.307 100.963 171.598 101.67 170.889C102.377 170.003 103.261 168.939 104.322 168.053C105.383 167.166 106.621 166.28 107.859 165.748C109.096 165.216 110.511 164.862 111.925 164.684C112.279 163.975 112.633 163.089 112.809 162.38C113.163 161.671 113.34 160.962 113.517 160.43C112.102 162.025 111.041 163.089 109.804 163.975C108.743 164.862 107.859 165.216 107.328 165.216ZM100.963 175.321C100.963 175.675 101.14 176.03 101.316 176.207C101.493 176.384 102.024 176.562 102.554 176.562C103.261 176.562 103.969 176.207 104.853 175.675C105.56 174.966 106.444 174.257 107.151 173.193C107.859 172.13 108.566 170.889 109.273 169.648C109.98 168.407 110.688 167.166 111.218 165.748C109.98 165.925 108.919 166.28 107.859 166.812C106.798 167.344 105.737 168.053 104.853 168.939C103.969 169.825 103.085 170.534 102.554 171.421C102.377 171.598 102.2 171.953 101.847 172.484C101.67 172.839 101.316 173.371 101.14 173.903C100.963 174.434 100.963 174.789 100.963 175.321Z" fill="#D2A167"/>
<path d="M116.876 165.749C116.699 165.749 116.523 165.749 116.523 165.572C116.523 165.395 116.346 165.394 116.346 165.217C116.346 164.154 116.699 162.913 117.23 161.495C117.76 160.076 118.468 158.658 119.175 157.063C118.998 157.063 118.644 157.063 118.468 156.885C118.291 156.885 118.114 156.708 118.114 156.708C118.114 156.531 117.937 156.531 117.937 156.354C117.937 156.176 117.937 156.176 118.114 155.999C118.114 155.822 118.291 155.822 118.468 155.822C118.644 155.822 118.821 155.822 118.821 155.822C118.998 155.822 119.175 155.822 119.352 155.822C119.528 155.822 119.528 155.822 119.705 155.822C120.412 154.404 121.297 152.985 122.181 151.745C123.065 150.504 123.772 149.44 124.479 148.554C124.833 148.022 125.363 147.49 125.894 147.136C126.424 146.604 126.778 146.249 127.308 145.895C127.839 145.54 128.369 145.363 128.723 145.363C129.43 145.363 129.784 145.54 129.961 145.895C130.137 146.249 130.314 146.604 130.314 147.136C130.314 147.845 130.137 148.554 129.784 149.263C129.43 149.795 128.9 150.504 128.369 151.39C127.662 152.099 126.955 152.985 126.071 153.695C125.187 154.404 124.302 155.113 123.242 155.645C122.181 156.176 121.297 156.531 120.236 156.708C119.705 157.595 119.352 158.481 118.998 159.19C118.644 160.076 118.291 160.785 118.114 161.495C118.291 161.317 118.468 161.14 118.644 160.785C119.175 160.076 119.705 159.367 120.236 158.835C120.766 158.304 121.473 157.595 122.357 157.063C123.242 156.531 123.949 155.999 124.656 155.645C125.363 155.29 125.717 155.113 126.071 155.113C126.601 155.113 126.778 155.467 126.778 155.822C126.778 156.176 126.778 156.354 126.601 156.708C126.424 157.063 126.247 157.417 126.071 157.595C125.894 157.949 125.717 158.126 125.717 158.126C125.54 158.481 125.187 159.013 124.833 159.722C124.479 160.431 124.126 161.14 123.772 161.849C123.772 162.026 123.595 162.381 123.595 162.558C123.595 162.735 123.418 163.09 123.418 163.267C123.418 163.622 123.595 163.622 123.772 163.622C123.949 163.622 124.302 163.445 124.656 163.267C125.187 162.913 125.717 162.558 126.071 162.204C126.424 161.849 126.955 161.317 127.132 161.14C127.132 161.14 127.308 160.963 127.485 160.785C127.662 160.608 128.016 160.254 128.369 159.899C128.369 159.722 128.546 159.722 128.723 159.722C128.9 159.722 128.9 159.722 129.077 159.899C129.253 160.076 129.253 160.076 129.253 160.254C129.253 160.431 129.253 160.608 129.077 160.785C128.723 161.317 128.369 161.672 127.839 162.204C127.308 162.735 126.778 163.267 126.424 163.445C125.894 163.799 125.54 163.976 125.01 164.331C124.479 164.508 124.126 164.685 123.772 164.685C123.418 164.685 123.065 164.508 122.711 164.331C122.357 164.154 122.357 163.799 122.357 163.267C122.357 162.735 122.534 162.204 122.711 161.672C123.065 160.785 123.418 159.899 124.126 159.013C124.656 158.126 125.187 157.24 125.54 156.531C123.949 157.417 122.534 158.658 121.12 159.899C119.705 161.14 118.468 163.09 117.407 164.685C117.407 164.863 117.407 165.04 117.407 165.217C117.407 165.394 117.407 165.572 117.23 165.572C117.053 165.572 117.053 165.749 116.876 165.749ZM128.723 146.604C128.369 146.604 127.839 146.781 127.308 147.313C126.778 147.845 126.247 148.376 125.54 149.085C125.01 149.795 124.302 150.504 123.772 151.39C123.242 152.276 122.711 152.985 122.181 153.695C121.65 154.404 121.297 155.113 121.12 155.645C122.004 155.29 122.888 154.935 123.949 154.226C125.01 153.517 125.894 152.808 126.778 151.922C127.662 151.035 128.369 149.972 128.9 148.908C129.077 148.554 129.253 148.199 129.253 148.022C129.253 147.845 129.43 147.49 129.43 147.313C129.43 146.958 129.43 146.781 129.253 146.781C128.9 146.604 128.723 146.604 128.723 146.604Z" fill="#D2A167"/>
<path d="M130.668 165.749C129.43 165.749 128.9 165.217 128.9 163.976C128.9 163.444 129.077 162.912 129.254 162.38C129.607 161.494 130.138 160.43 130.668 159.367C131.199 158.303 132.083 157.239 132.613 156.176H131.375C131.199 156.176 131.022 156.176 131.022 155.999C130.845 155.821 130.845 155.821 130.845 155.644C130.845 155.467 130.845 155.467 131.022 155.289C131.199 155.112 131.199 155.112 131.375 155.112H133.32C133.497 154.758 133.851 154.58 134.028 154.226C134.204 153.871 134.381 153.694 134.558 153.339C134.912 152.63 135.265 151.744 135.619 151.035C135.973 150.326 136.68 149.794 137.21 149.262C137.387 149.262 137.387 149.085 137.564 149.085C137.741 149.085 137.918 149.085 138.094 149.262C138.271 149.44 138.271 149.617 138.271 149.794C138.271 149.971 138.271 150.149 138.094 150.326C138.094 150.326 137.741 150.68 137.564 151.212C137.21 151.744 136.857 152.276 136.326 152.808C135.796 153.517 135.442 154.226 134.912 154.935H138.094C138.271 154.935 138.448 154.935 138.448 155.112C138.448 155.289 138.625 155.289 138.625 155.467C138.625 155.644 138.625 155.821 138.448 155.821C138.448 155.999 138.271 155.999 138.094 155.999H134.204L133.851 156.53C133.674 156.885 133.32 157.239 132.967 157.949C132.613 158.658 132.259 159.189 131.729 160.076C131.375 160.785 131.022 161.494 130.668 162.203C130.314 162.912 130.314 163.444 130.314 163.976C130.314 164.508 130.491 164.862 131.022 164.862C131.375 164.862 131.906 164.685 132.613 164.33C133.32 163.976 134.028 163.444 134.735 162.912C135.088 162.558 135.619 162.203 135.973 161.671C136.326 161.317 136.68 160.962 137.033 160.608C137.033 160.43 137.21 160.43 137.387 160.43C137.564 160.43 137.564 160.43 137.741 160.608C137.918 160.785 137.918 160.785 137.918 160.962C137.918 161.139 137.918 161.317 137.741 161.494C137.387 162.026 137.033 162.38 136.326 162.912C135.796 163.444 135.265 163.976 134.912 164.153C134.028 164.685 133.144 165.217 132.259 165.571C131.729 165.571 131.199 165.749 130.668 165.749Z" fill="#D2A167"/>
</g>
<defs>
<clipPath id="clip0_1580_13648">
<rect width="180" height="182.59" fill="white"/>
</clipPath>
</defs>
</svg>
