<svg width="88" height="88" viewBox="0 0 88 88" fill="none" xmlns="http://www.w3.org/2000/svg">
<path d="M44 88C68.3005 88 88 68.3005 88 44C88 19.6995 68.3005 0 44 0C19.6995 0 0 19.6995 0 44C0 68.3005 19.6995 88 44 88Z" fill="#212121"/>
<path d="M44.1628 84.3333C21.8369 84.3333 3.6665 66.163 3.6665 43.837C3.6665 21.5111 21.8369 3.42222 44.1628 3.42222C66.4887 3.42222 84.6591 21.5926 84.6591 43.9185C84.6591 66.2445 66.4887 84.3333 44.1628 84.3333ZM44.1628 4.07407C22.2443 4.07407 4.31836 21.9185 4.31836 43.9185C4.31836 65.9185 22.1628 83.763 44.1628 83.763C66.0813 83.763 84.0073 65.9185 84.0073 43.9185C84.0073 21.9185 66.0813 4.07407 44.1628 4.07407Z" fill="white"/>
<path d="M41.1481 64.2074C39.8444 63.3111 38.8666 64.0444 38.2962 64.5333C37.8073 65.1036 37.237 65.9999 38.1333 67.3036C39.3555 69.1777 40.4147 69.6666 41.1481 69.7481C41.8814 69.8296 42.3703 69.5851 42.8592 69.7481C43.1036 69.8296 43.7555 70.4814 43.9184 70.6444C44.3259 71.0518 44.3259 71.0518 44.7333 71.4592C45.0592 71.7851 45.3036 72.1111 45.6296 72.3555C46.8518 73.6592 47.8296 75.1259 48.8888 76.5925C49.7036 77.7333 50.6814 77.9777 51.3333 77.4074C51.9851 76.7555 51.7407 75.7777 50.5184 74.9629C49.1333 73.9851 47.6666 72.9259 46.2814 71.7037C45.9555 71.3777 45.6296 71.1333 45.3851 70.8074C44.9777 70.3999 44.9777 70.3999 44.5703 69.9925C44.4073 69.8296 43.7555 69.1777 43.674 68.9333C43.511 68.4444 43.7555 68.037 43.674 67.3036C43.511 66.4888 42.9407 65.3481 41.1481 64.2074Z" fill="white"/>
<path d="M46.9334 70.1555C47.3408 69.9925 47.5852 69.9925 48.2371 69.911C48.6445 69.8296 49.2963 69.5851 49.7852 69.0962C50.926 67.9555 51.9852 66.4888 52.5556 65.7555C52.6371 65.5925 52.8815 65.3481 52.8 65.2666C52.7186 65.2666 52.6371 65.2666 52.4741 65.4296L49.5408 68.1999C49.4593 68.2814 49.4593 68.2814 49.3778 68.1999C49.2963 68.1184 49.2963 68.1184 49.3778 68.037L52.1482 65.1036C52.3112 64.9407 52.3112 64.7777 52.3112 64.7777C52.2297 64.6962 52.0667 64.7777 51.9852 64.9407L48.8889 67.6296C48.8074 67.711 48.8074 67.711 48.726 67.6296C48.6445 67.5481 48.6445 67.5481 48.726 67.4666L51.4963 64.5333C51.6593 64.3703 51.6593 64.2073 51.6593 64.2073C51.5778 64.1259 51.4149 64.2073 51.3334 64.3703L48.4 67.1407C48.3186 67.2221 48.3186 67.2221 48.2371 67.1407C48.1556 67.0592 48.1556 67.0592 48.2371 66.9777L51.0074 64.0444C51.1704 63.8814 51.1704 63.7999 51.1704 63.7184C51.0889 63.637 50.8445 63.7999 50.6815 63.9629C49.9482 64.5333 48.563 65.5925 47.3408 66.7333C46.8519 67.2221 46.6074 67.874 46.526 68.2814C46.4445 68.9333 46.4445 69.1777 46.2815 69.5851C46.2 69.8296 45.5482 70.3999 45.4667 70.5629C45.0593 70.9703 45.1408 70.8888 44.7334 71.2962C44.4889 71.5407 44.163 71.8666 43.8371 72.111C42.6149 73.2518 41.2297 74.1481 39.926 75.1258C38.8667 75.9407 38.6223 76.837 39.1926 77.4073C39.8445 77.9777 40.7408 77.7333 41.4741 76.674C42.4519 75.3703 43.3482 73.9851 44.4889 72.7629C44.7334 72.437 45.0593 72.1925 45.3037 71.8666C45.7112 71.4592 45.6297 71.5407 46.0371 71.1333C46.1186 70.8888 46.6889 70.237 46.9334 70.1555Z" fill="white"/>
<path d="M12.1405 31.5333C11.6516 34.4666 11.0812 37.3999 10.5923 40.2518C10.4294 41.0666 10.2664 41.8814 10.1849 42.6962C10.1849 42.8592 10.1849 43.0222 10.2664 43.1851C10.3479 43.3481 10.5109 43.4296 10.6738 43.511C10.9998 43.5925 11.4072 43.4296 11.4886 43.0222C11.9775 40.0888 12.5479 37.1555 13.0368 34.3036C13.1998 33.4888 13.3627 32.674 13.4442 31.8592C13.4442 31.6962 13.4442 31.5333 13.3627 31.3703C13.2812 31.2073 13.1183 31.1259 12.9553 31.0444C12.6294 30.9629 12.222 31.1259 12.1405 31.5333Z" fill="white"/>
<path d="M11.1629 33.2444C12.5481 33.0815 13.8518 33.1629 15.237 33.3259C15.1555 33.3259 15.1555 33.3259 15.0741 33.3259C15.6444 33.4074 16.2963 33.4889 16.8667 33.7333C16.7852 33.7333 16.7852 33.6518 16.7037 33.6518C16.7852 33.7333 16.8667 33.7333 17.0296 33.8148C17.1111 33.8148 17.1111 33.8963 17.1926 33.8963C17.2741 33.8963 17.2741 33.9778 17.2741 33.9778C17.2741 33.9778 17.437 34.1407 17.3555 34.0592C17.3555 34.0592 17.3555 34.1407 17.437 34.1407C17.5185 34.3037 17.5185 34.4666 17.6 34.6296C17.6 34.5481 17.6 34.5481 17.6 34.4666C17.6 34.6296 17.6 34.874 17.6 35.037C17.6 34.9555 17.6 34.9555 17.6 34.874C17.6 35.1185 17.5185 35.3629 17.437 35.6074C17.437 35.5259 17.5185 35.5259 17.5185 35.4444C17.3555 35.8518 17.1111 36.1778 16.8667 36.5037C16.7852 36.6666 16.6222 36.8296 16.5407 36.9926C16.4592 37.0741 16.4592 37.1555 16.3778 37.237C16.3778 37.237 16.4592 37.074 16.3778 37.1555C16.3778 37.1555 16.3778 37.1555 16.2963 37.237L16.2148 37.3185C15.7259 37.9703 15.237 38.5407 14.6667 39.1111C14.0963 39.6815 13.5259 40.1703 12.9555 40.7407C12.7926 40.9037 12.6296 40.9852 12.4667 41.1481L12.3852 41.2296C12.2222 41.3111 12.4667 41.1481 12.3852 41.2296C12.3037 41.3111 12.2222 41.3926 12.1407 41.3926C11.8148 41.637 11.4889 41.8815 11.1629 42.0444C10.4296 42.5333 9.69628 43.0222 8.88147 43.4296C8.55554 43.5926 8.47406 44.0815 8.63702 44.3259C8.88147 44.6518 9.20739 44.7333 9.53332 44.5703C10.7555 43.9185 11.8963 43.1852 13.037 42.3703C14.1778 41.474 15.237 40.5778 16.2148 39.5185C16.7037 38.9481 17.1926 38.3778 17.6 37.8074C18.0889 37.237 18.4963 36.5852 18.8222 35.8518C19.0667 35.1185 19.1481 34.2222 18.6592 33.4889C18.2518 32.837 17.5185 32.5111 16.7852 32.2666C15.9704 32.1037 15.1555 31.9407 14.3407 31.9407C13.5259 31.8592 12.7111 31.8592 11.8963 31.9407C11.7333 31.9407 11.4889 31.9407 11.3259 32.0222C11.1629 32.0222 11 32.1037 10.837 32.1852C10.7555 32.2666 10.6741 32.5111 10.6741 32.674C10.5111 32.9185 10.837 33.2444 11.1629 33.2444Z" fill="white"/>
<path d="M21.9184 31.4518C21.1851 33.0814 20.6147 34.7111 20.0444 36.4222C19.5555 38.0518 19.1481 39.6814 18.8221 41.3925C18.6592 42.3703 18.4962 43.4296 18.3333 44.4074C18.3333 44.5703 18.4147 44.7333 18.4962 44.8963C18.5777 44.9777 18.8221 45.0592 18.9851 45.0592C19.1481 45.0592 19.311 44.9777 19.474 44.8963C19.637 44.7333 19.637 44.5703 19.637 44.4074C19.637 44.3259 19.637 44.2444 19.637 44.1629C19.637 44.2444 19.637 44.2444 19.637 44.3259C19.8814 42.6963 20.1258 41.1481 20.5333 39.6C20.9407 38.0518 21.3481 36.5037 21.9184 34.9555C22.2444 34.1407 22.5703 33.2444 22.8962 32.4296C22.8962 32.5111 22.8147 32.5111 22.8147 32.5925C22.8962 32.4296 22.8962 32.3481 22.9777 32.1851C23.0592 32.0222 23.0592 31.8592 23.0592 31.6963C22.9777 31.5333 22.8962 31.3703 22.7333 31.2888C22.5703 31.2074 22.4073 31.1259 22.2444 31.2074C22.1629 31.2074 21.9999 31.2888 21.9184 31.4518Z" fill="white"/>
<path d="M24.4446 31.1259C24.3631 32.9185 24.2816 34.7111 24.2816 36.5037C24.2816 38.2963 24.2816 40.0889 24.3631 41.8815C24.3631 42.8593 24.4446 43.9185 24.5261 44.8963C24.5261 45.2222 24.852 45.5481 25.1779 45.5481C25.5038 45.5481 25.8298 45.2222 25.8298 44.8963C25.7483 43.1037 25.6668 41.3111 25.5853 39.5185C25.5853 37.7259 25.5853 35.9333 25.5853 34.1407C25.5853 33.163 25.6668 32.1037 25.6668 31.1259C25.6668 30.8 25.3409 30.4741 25.015 30.4741C24.7705 30.4741 24.4446 30.7185 24.4446 31.1259Z" fill="white"/>
<path d="M18.6593 42.0444C20.9408 41.8815 23.2223 41.4741 25.4223 40.8222C25.9926 40.6592 26.6445 40.4148 27.2149 40.2518C27.3778 40.1704 27.5408 40.0889 27.6223 39.9259C27.7037 39.763 27.7037 39.6 27.7037 39.437C27.6223 39.1111 27.2149 38.8667 26.8889 38.9481C25.2593 39.5185 23.6297 40.0074 21.9186 40.3333C21.4297 40.4148 20.9408 40.4963 20.4519 40.5778C20.5334 40.5778 20.5334 40.5778 20.6149 40.5778C19.963 40.6592 19.3111 40.7407 18.6593 40.7407C18.4963 40.7407 18.3334 40.8222 18.1704 40.9037C18.0889 40.9852 18.0074 41.2296 18.0074 41.3926C18.0074 41.7185 18.3334 42.0444 18.6593 42.0444Z" fill="white"/>
<path d="M29.6595 32.837C30.0669 33.5703 30.4743 34.3036 30.8003 35.1184C30.8003 35.037 30.7188 35.037 30.7188 34.9555C31.0447 35.6888 31.2077 36.4221 31.3706 37.1555C31.3706 37.074 31.3706 37.074 31.3706 36.9925C31.4521 37.4814 31.4521 38.0518 31.3706 38.5407C31.3706 38.4592 31.3706 38.4592 31.3706 38.3777C31.3706 38.5407 31.2892 38.7036 31.2892 38.8666C31.2077 39.1925 31.3706 39.5999 31.778 39.6814C32.104 39.7629 32.5114 39.5999 32.5929 39.1925C32.8373 38.2147 32.7558 37.237 32.5929 36.2592C32.4299 35.3629 32.0225 34.4666 31.6151 33.5703C31.3706 33.0814 31.1262 32.674 30.8818 32.1851C30.7188 31.8592 30.2299 31.7777 29.9855 31.9407C29.578 32.1036 29.4151 32.511 29.6595 32.837Z" fill="white"/>
<path d="M34.7924 32.1038C33.9776 33.489 33.2442 34.8741 32.5109 36.3408C31.7776 37.726 31.1257 39.1927 30.4739 40.6593C30.0665 41.5556 29.7405 42.3704 29.4146 43.2667C29.3331 43.4297 29.4146 43.6741 29.4961 43.7556C29.5776 43.9186 29.7405 44.0001 29.9035 44.0815C30.0665 44.0815 30.2294 44.0815 30.3924 44.0001C30.5554 43.9186 30.6368 43.7556 30.7183 43.5927C30.8813 43.1038 31.1257 42.6149 31.3702 42.0445C31.3702 42.126 31.2887 42.126 31.2887 42.2075C32.3479 39.6815 33.5702 37.1556 34.8739 34.7927C35.2813 34.1408 35.6072 33.4075 36.0146 32.7556C36.1776 32.4297 36.0961 32.0223 35.7702 31.8593C35.3628 31.6964 34.9554 31.7778 34.7924 32.1038Z" fill="white"/>
<path d="M41.3113 33.4074C41.3113 34.4666 41.2298 35.5259 41.0668 36.5851C41.0668 36.5037 41.0668 36.5037 41.0668 36.4222C40.8224 37.9703 40.4965 39.6 40.0076 41.0666C39.8446 41.474 39.7631 41.9629 39.6002 42.3703C39.5187 42.5333 39.6002 42.7777 39.6816 42.8592C39.7631 43.0222 39.9261 43.1037 40.089 43.1851C40.4965 43.2666 40.7409 43.1037 40.9039 42.6963C41.8002 40.3333 42.289 37.8888 42.5335 35.4444C42.615 34.7925 42.615 34.0592 42.615 33.4074C42.615 33.0814 42.289 32.7555 41.9631 32.7555C41.6372 32.7555 41.3113 33.0814 41.3113 33.4074Z" fill="white"/>
<path d="M41.3927 33.4889C42.2076 35.9333 43.1039 38.3777 43.9187 40.8222C44.1631 41.474 44.4076 42.2074 44.7335 42.7777C44.8964 43.0222 45.2224 43.1852 45.4668 43.1037C45.5483 43.1037 45.7113 43.0222 45.7927 42.9407C45.9557 42.7777 45.9557 42.6148 45.9557 42.4518C46.0372 41.7185 46.1187 40.9037 46.2002 40.1703C46.2002 40.2518 46.2002 40.2518 46.2002 40.3333C46.4446 38.4592 46.7705 36.5852 47.3409 34.7111C47.5039 34.2222 47.6668 33.7333 47.9113 33.1629C47.9113 33.2444 47.8298 33.2444 47.8298 33.3259V33.2444C47.9113 33.0814 47.9113 32.9185 47.9113 32.7555C47.8298 32.5926 47.7483 32.4296 47.5853 32.3481C47.4224 32.2666 47.2594 32.1852 47.0964 32.2666C46.9335 32.3481 46.7705 32.4296 46.689 32.5926C46.2001 33.8148 45.7927 35.037 45.4668 36.3407C45.1409 37.6444 44.9779 38.9481 44.815 40.2518C44.7335 40.9852 44.652 41.7185 44.5705 42.4518C44.9779 42.3703 45.3853 42.2074 45.7927 42.1259C45.6298 41.8814 45.5483 41.637 45.4668 41.3926C45.4668 41.474 45.5483 41.474 45.5483 41.5555C45.3039 41.0666 45.1409 40.4963 44.9779 40.0074C44.815 39.437 44.5705 38.8666 44.4076 38.2963C44.0001 37.1555 43.6742 36.0963 43.2668 34.9555C43.0224 34.3037 42.8594 33.7333 42.615 33.0814C42.5335 32.7555 42.1261 32.5111 41.8001 32.5926C41.5557 32.837 41.2298 33.1629 41.3927 33.4889Z" fill="white"/>
<path d="M50.1109 31.9407C49.7035 33.4888 49.3776 35.037 49.0516 36.5036C48.7257 38.0518 48.4813 39.6814 48.3183 41.2296C48.2368 42.1259 48.2368 43.0222 48.2368 43.9185C48.2368 44.2444 48.5627 44.5703 48.8887 44.5703C49.2146 44.5703 49.5405 44.2444 49.5405 43.9185C49.5405 42.5333 49.622 41.1481 49.785 39.7629C49.785 39.8444 49.785 39.8444 49.785 39.9259C50.0294 37.8888 50.5183 35.9333 51.0072 33.9777C51.1701 33.4073 51.2516 32.837 51.4146 32.2666C51.4961 31.9407 51.3331 31.5333 50.9257 31.4518C50.5183 31.3703 50.1924 31.5333 50.1109 31.9407Z" fill="white"/>
<path d="M61.0294 32.1851C60.5405 31.8592 59.9702 31.6148 59.3998 31.5333C58.8294 31.4518 58.2591 31.4518 57.6887 31.6148C56.5479 31.9407 55.6517 32.674 54.8368 33.4888C54.022 34.3036 53.3702 35.1999 52.7998 36.1777C52.2294 37.1555 51.822 38.2962 51.7405 39.3555C51.6591 39.8444 51.7405 40.3333 51.822 40.8222C51.9035 41.311 52.0665 41.7999 52.3924 42.2073C52.7183 42.6148 53.1257 43.0222 53.6146 43.1851C54.1035 43.4296 54.5924 43.5111 55.0813 43.5111C56.0591 43.5111 57.0368 43.1851 57.8516 42.6962C58.6665 42.2073 59.4813 41.637 60.0516 40.8222C60.3776 40.3333 60.622 39.8444 60.7035 39.274C60.8665 38.6222 60.8665 37.9703 60.622 37.3999C60.3776 36.8296 59.7257 36.5036 59.1554 36.5851C58.585 36.6666 58.0961 36.911 57.6072 37.1555C57.4442 37.237 57.2813 37.3999 57.1183 37.4814C56.7924 37.6444 56.7109 38.0518 56.8739 38.3777C57.0368 38.7036 57.4442 38.7851 57.7702 38.6222C58.0961 38.3777 58.5035 38.1333 58.8294 37.9703C58.7479 37.9703 58.7479 38.0518 58.6665 38.0518C58.8294 37.9703 58.9924 37.8888 59.1554 37.8888C59.0739 37.8888 59.0739 37.8888 58.9924 37.8888C59.0739 37.8888 59.2368 37.8888 59.3183 37.8888C59.2368 37.8888 59.2368 37.8888 59.1554 37.8888C59.2368 37.8888 59.3183 37.8888 59.3998 37.9703C59.4813 38.0518 59.3183 37.8888 59.3183 37.8888C59.3183 37.8888 59.3183 37.8888 59.3998 37.9703C59.3998 37.9703 59.3998 37.9703 59.3998 38.0518C59.2368 37.8888 59.3183 37.9703 59.3183 37.9703C59.3998 38.1333 59.3998 38.2148 59.3998 38.3777C59.3998 38.2962 59.3998 38.2962 59.3998 38.2148C59.3998 38.4592 59.3998 38.7036 59.3998 38.9481C59.3998 38.8666 59.3998 38.8666 59.3998 38.7851C59.3183 39.111 59.2368 39.3555 59.1554 39.6814C59.1554 39.5999 59.2368 39.5999 59.2368 39.5185C59.1554 39.6814 59.0739 39.8444 58.9924 40.0073C58.9109 40.0888 58.9109 40.1703 58.8294 40.2518C58.6665 40.4148 58.8294 40.3333 58.8294 40.2518L58.7479 40.3333C58.585 40.5777 58.3405 40.7407 58.0961 40.9851L58.0146 41.0666C57.9331 41.1481 58.1776 40.9851 58.0146 41.0666C57.9331 41.1481 57.8516 41.1481 57.8516 41.2296C57.6887 41.311 57.6072 41.3925 57.4442 41.474C57.1998 41.637 56.8739 41.7999 56.5479 41.9629C56.6294 41.9629 56.6294 41.8814 56.7109 41.8814C56.3035 42.0444 55.8146 42.2073 55.3257 42.2888C55.4072 42.2888 55.4072 42.2888 55.4887 42.2888C55.1628 42.3703 54.8368 42.3703 54.5109 42.2888C54.5924 42.2888 54.5924 42.2888 54.6739 42.2888C54.4294 42.2888 54.185 42.2073 54.022 42.1259C54.1035 42.1259 54.1035 42.2073 54.185 42.2073C54.022 42.1259 53.9405 42.1259 53.7776 42.0444L53.6961 41.9629C53.6146 41.9629 53.6146 41.8814 53.7776 41.9629C53.6961 41.8814 53.6961 41.8814 53.6146 41.7999C53.5331 41.7185 53.5331 41.7185 53.4516 41.637C53.3702 41.5555 53.5331 41.7999 53.4516 41.637L53.3702 41.5555C53.2887 41.3925 53.2072 41.3111 53.1257 41.1481C53.1257 41.2296 53.2072 41.2296 53.2072 41.3111C53.1257 41.0666 53.0442 40.7407 52.9628 40.4148C52.9628 40.4962 52.9628 40.4962 52.9628 40.5777C52.8813 40.1703 52.8813 39.7629 52.9628 39.3555C52.9628 39.437 52.9628 39.437 52.9628 39.5185C53.0442 38.8666 53.2887 38.2148 53.5331 37.6444C53.5331 37.7259 53.4516 37.7259 53.4516 37.8073C53.7776 36.9925 54.2665 36.2592 54.7554 35.5259C54.7554 35.5259 54.7554 35.4444 54.8368 35.4444C54.8368 35.4444 54.7554 35.6073 54.8368 35.5259L54.9183 35.4444C54.9998 35.3629 55.0813 35.2814 55.1628 35.1999C55.3257 35.037 55.4887 34.874 55.5702 34.711C55.8961 34.3851 56.222 34.1407 56.5479 33.8148C56.5479 33.8148 56.6294 33.8148 56.6294 33.7333C56.4665 33.8962 56.5479 33.7333 56.6294 33.7333C56.7109 33.7333 56.7109 33.6518 56.7924 33.6518C56.8739 33.5703 57.0368 33.4888 57.1183 33.4073C57.3628 33.2444 57.5257 33.1629 57.7702 33.0814C57.6887 33.0814 57.6887 33.1629 57.6072 33.1629C57.9331 32.9999 58.2591 32.9185 58.585 32.9185C58.5035 32.9185 58.5035 32.9185 58.422 32.9185C58.7479 32.9185 58.9924 32.9185 59.3183 32.9185C59.2368 32.9185 59.2368 32.9185 59.1554 32.9185C59.4813 32.9999 59.7257 33.0814 60.0516 33.1629C59.9702 33.1629 59.9702 33.0814 59.8887 33.0814C60.1331 33.1629 60.2961 33.3259 60.5405 33.4073C60.8665 33.5703 61.2739 33.4888 61.4368 33.1629C61.5183 32.7555 61.3554 32.4296 61.0294 32.1851Z" fill="white"/>
<path d="M77.7331 47.8295C77.1628 47.4221 76.5109 47.1777 75.8591 47.0962C75.2887 47.0147 74.6368 47.0962 74.0665 47.3407C73.0072 47.7481 72.1109 48.4814 71.2961 49.2962C70.5628 50.111 69.9109 51.0073 69.422 51.9036C68.9331 52.7999 68.5257 53.8592 68.3628 54.9184C68.1998 55.9777 68.2813 57.1184 68.9331 57.9332C69.3405 58.4221 69.8294 58.8295 70.4813 58.9925C71.1331 59.1555 71.785 59.1555 72.4368 58.9925C73.5776 58.8295 74.7183 58.3407 75.6146 57.5258C76.2665 57.037 76.7554 56.3036 77.0813 55.5703C77.4887 54.674 77.7331 53.6147 76.9998 52.7999C76.2665 51.9036 74.9628 52.3925 74.148 52.9629C73.985 53.0444 73.822 53.1258 73.7405 53.2888C73.4146 53.4518 73.3331 53.8592 73.4961 54.1851C73.6591 54.511 74.0665 54.5925 74.3924 54.4295C74.7183 54.1851 75.1257 53.9407 75.5331 53.7777C75.4517 53.7777 75.4517 53.8592 75.3702 53.8592C75.5331 53.7777 75.7776 53.6962 75.9405 53.6962C75.8591 53.6962 75.8591 53.6962 75.7776 53.6962C75.8591 53.6962 75.9405 53.6962 76.1035 53.6962C76.022 53.6962 76.022 53.6962 75.9405 53.6962C76.022 53.6962 76.1035 53.6962 76.185 53.7777C76.1035 53.7777 76.1035 53.6962 76.022 53.6962C76.022 53.6962 76.1035 53.6962 76.1035 53.7777C76.185 53.8592 76.1035 53.7777 76.022 53.6962C76.022 53.7777 76.1035 53.7777 76.185 53.7777C76.2665 53.8592 76.2665 53.8592 76.1035 53.6962C76.1035 53.6962 76.1035 53.7777 76.185 53.7777C76.2665 53.8592 76.2665 54.0221 76.2665 54.1036C76.2665 54.0221 76.2665 54.0221 76.2665 53.9407C76.2665 54.1036 76.2665 54.2666 76.2665 54.4295C76.2665 54.3481 76.2665 54.3481 76.2665 54.2666C76.185 54.5925 76.1035 54.837 76.022 55.1629C76.022 55.0814 76.1035 55.0814 76.1035 54.9999C75.9405 55.4073 75.6961 55.8147 75.4517 56.2221L75.3702 56.3036C75.2887 56.3851 75.2887 56.3851 75.2072 56.4666C75.1257 56.5481 74.9628 56.711 74.8813 56.7925C74.8813 56.7925 74.8813 56.7925 74.7998 56.7925C74.7183 56.874 74.6368 56.874 74.5554 56.9555C74.2294 57.1184 73.9035 57.2814 73.5776 57.4444C73.6591 57.4444 73.6591 57.3629 73.7405 57.3629C73.1702 57.6073 72.5998 57.7703 72.0294 57.8518C72.1109 57.8518 72.1109 57.8518 72.1924 57.8518C71.8665 57.9333 71.5405 57.9333 71.2146 57.8518C71.2961 57.8518 71.2961 57.8518 71.3776 57.8518C71.1331 57.8518 70.9702 57.7703 70.7257 57.6888C70.8072 57.6888 70.8072 57.7703 70.8887 57.7703C70.7257 57.6888 70.6442 57.6073 70.4813 57.5258C70.3998 57.4444 70.5628 57.6073 70.4813 57.5258L70.3998 57.4444C70.3183 57.3629 70.3183 57.3629 70.2368 57.2814C70.2368 57.2814 70.2368 57.1999 70.1554 57.1999C70.1554 57.1999 70.1554 57.1999 70.1554 57.1184L70.2368 57.1999C70.1554 57.1999 70.1554 57.037 70.1554 57.037C70.0739 56.9555 69.9924 56.7925 69.9924 56.711C69.9924 56.7925 70.0739 56.7925 70.0739 56.874C69.9924 56.6295 69.9109 56.3036 69.8294 56.0592C69.8294 56.1407 69.8294 56.1407 69.8294 56.2221C69.748 55.8147 69.748 55.4073 69.8294 55.0814C69.8294 55.1629 69.8294 55.1629 69.8294 55.2444C69.9109 54.511 70.1554 53.7777 70.4813 53.1258C70.4813 53.2073 70.3998 53.2073 70.3998 53.2888C70.7257 52.474 71.2146 51.6592 71.7035 51.0073C71.7035 51.0073 71.7035 51.0073 71.785 50.9258C71.7035 51.0073 71.7035 51.0888 71.785 50.9258C71.785 50.8444 71.8665 50.8444 71.8665 50.8444C71.948 50.7629 72.0294 50.6814 72.1109 50.5999C72.2739 50.437 72.4368 50.274 72.5183 50.111C72.6813 49.9481 72.8442 49.7851 73.0072 49.6221C73.0887 49.5407 73.1702 49.4592 73.2517 49.4592C73.2517 49.4592 73.3331 49.4592 73.3331 49.3777C73.4146 49.2962 73.2517 49.3777 73.2517 49.4592C73.3331 49.4592 73.3331 49.3777 73.4146 49.3777C73.822 49.0518 74.2294 48.8073 74.7183 48.6444C74.6368 48.6444 74.6368 48.7258 74.5554 48.7258C74.7998 48.6444 75.1257 48.5629 75.3702 48.4814C75.2887 48.4814 75.2887 48.4814 75.2072 48.4814C75.4517 48.4814 75.7776 48.4814 76.022 48.4814C75.9405 48.4814 75.9405 48.4814 75.8591 48.4814C76.1035 48.4814 76.4294 48.5629 76.6739 48.7258C76.5924 48.7258 76.5924 48.6444 76.5109 48.6444C76.7554 48.7258 76.9998 48.8888 77.2443 49.0518C77.4072 49.1333 77.5702 49.1332 77.7331 49.1332C77.8961 49.0518 78.0591 48.9703 78.1405 48.8073C78.1405 48.3999 77.9776 48.074 77.7331 47.8295Z" fill="white"/>
<path d="M63.3111 32.0222C62.9852 33.6518 62.9037 35.363 62.7408 37.0741C62.6593 37.563 62.6593 37.9704 62.5778 38.4593C62.5778 38.3778 62.5778 38.3778 62.5778 38.2963C62.4148 39.2741 62.2519 40.2518 61.9259 41.2296C61.8445 41.5555 62.0889 41.963 62.4148 42.0444C62.8222 42.1259 63.1482 41.963 63.2297 41.5555C63.8815 39.6 64.0445 37.4815 64.2074 35.363C64.2889 34.7926 64.2889 34.2222 64.3704 33.6518C64.3704 33.7333 64.3704 33.7333 64.3704 33.8148C64.4519 33.3259 64.5334 32.837 64.6148 32.4296C64.6963 32.1037 64.5334 31.6963 64.1259 31.6148C63.8 31.4518 63.3926 31.6148 63.3111 32.0222Z" fill="white"/>
<path d="M63.311 38.6222C64.3703 38.7852 65.4295 38.7037 66.4888 38.6222C66.6518 38.6222 66.8147 38.5408 66.9777 38.4593C67.0592 38.3778 67.1407 38.1333 67.1407 37.9704C67.1407 37.8074 67.0592 37.6445 66.9777 37.4815C66.8962 37.4 66.6518 37.2371 66.4888 37.3185C65.4295 37.4815 64.3703 37.4815 63.311 37.3185C63.1481 37.3185 62.9851 37.4 62.8221 37.4815C62.7407 37.563 62.6592 37.8074 62.6592 37.9704C62.6592 38.1333 62.7407 38.2963 62.8221 38.4593C62.9851 38.5408 63.1481 38.5408 63.311 38.6222Z" fill="white"/>
<path d="M67.9555 32.1037C67.548 33.5703 67.1406 35.037 66.8962 36.5037C66.6518 38.0518 66.4888 39.6 66.4073 41.1481C66.4073 41.9629 66.3258 42.8592 66.4073 43.674C66.4073 44 66.7332 44.3259 67.0592 44.3259C67.3851 44.3259 67.711 44 67.711 43.674C67.711 42.2074 67.711 40.7407 67.874 39.274C67.9555 38.8666 67.9555 38.4592 68.0369 38.0518C68.0369 38.1333 68.0369 38.1333 68.0369 38.2148C68.2814 36.6666 68.5258 35.2 68.9332 33.6518C69.0147 33.2444 69.1777 32.837 69.2592 32.4296C69.3406 32.1037 69.1777 31.6963 68.7703 31.6148C68.4443 31.5333 68.0369 31.6963 67.9555 32.1037Z" fill="white"/>
<path d="M16.8667 47.0148C16.2963 46.8518 15.7259 47.0148 15.237 47.1778C14.8296 47.2593 14.4222 47.4222 14.0148 47.6667C13.2815 47.9926 12.6296 48.4815 11.9778 48.9704C10.7555 50.0296 9.85925 51.4148 9.20739 52.8815C8.96295 53.6148 8.71851 54.3481 8.63702 55.0815C8.55554 55.4889 8.55554 55.9778 8.55554 56.3852C8.55554 56.7926 8.63702 57.2815 8.79999 57.6889C8.96295 58.0963 9.20739 58.5037 9.53332 58.8296C9.85925 59.1555 10.2667 59.3185 10.7555 59.4815C11.5704 59.7259 12.4667 59.7259 13.2815 59.6444C14.0963 59.563 14.9111 59.237 15.5629 58.7481C16.2963 58.1778 16.9481 57.5259 17.5185 56.8741C17.6815 56.7111 17.7629 56.5481 17.9259 56.3852C18.0074 56.2222 18.0889 56.1407 18.0889 55.8963C18.0889 55.7333 18.0074 55.5704 17.9259 55.4074C17.6815 55.163 17.1926 55.163 16.9481 55.4074C16.4592 55.9778 16.0518 56.4667 15.5629 56.9556C15.4 57.037 15.3185 57.2 15.1555 57.2815C15.0741 57.363 14.9926 57.363 14.9926 57.4444C14.9111 57.5259 15.1555 57.363 14.9926 57.4444L14.9111 57.5259C14.5852 57.7704 14.3407 57.9333 14.0148 58.0148C14.0963 58.0148 14.0963 57.9333 14.1778 57.9333C13.7704 58.0963 13.2815 58.2593 12.7926 58.2593C12.8741 58.2593 12.8741 58.2593 12.9555 58.2593C12.4667 58.3407 12.0592 58.3407 11.5704 58.2593C11.6518 58.2593 11.6518 58.2593 11.7333 58.2593C11.4074 58.1778 11.0815 58.0963 10.7555 58.0148C10.837 58.0148 10.837 58.0963 10.9185 58.0963C10.7555 58.0148 10.6741 58.0148 10.5111 57.9333C10.4296 57.9333 10.4296 57.8518 10.3481 57.8518C10.2667 57.7704 10.5111 57.9333 10.4296 57.8518L10.3481 57.7704C10.2667 57.6889 10.2667 57.6889 10.1852 57.6074L10.1037 57.5259C10.0222 57.363 9.94073 57.2815 9.85925 57.1185C9.85925 57.2 9.94073 57.2 9.94073 57.2815C9.85925 57.037 9.77776 56.7926 9.77776 56.5481C9.77776 56.6296 9.77776 56.6296 9.77776 56.7111C9.69628 56.2222 9.77776 55.7333 9.77776 55.2444C9.77776 55.3259 9.77776 55.3259 9.77776 55.4074C9.85925 54.5111 10.1037 53.6148 10.5111 52.8C10.5111 52.8815 10.4296 52.8815 10.4296 52.963C10.5926 52.5556 10.837 52.1481 11 51.8222C11.0815 51.6593 11.2444 51.4963 11.3259 51.2518C11.4074 51.1704 11.4889 51.0889 11.4889 51.0074C11.4889 51.0074 11.4889 51.0074 11.5704 50.9259L11.4889 51.0074C11.4889 51.0074 11.4889 51.0074 11.4889 50.9259C11.4889 50.8444 11.5704 50.8444 11.5704 50.763C11.8148 50.437 12.1407 50.1111 12.4667 49.8667C12.5481 49.7852 12.6296 49.7037 12.7111 49.7037C12.7926 49.7037 12.7926 49.6222 12.8741 49.6222C12.8741 49.6222 12.8741 49.6222 12.9555 49.5407C12.9555 49.5407 13.037 49.5407 13.037 49.4593L13.1185 49.3778C13.2 49.2963 13.2815 49.2148 13.3629 49.2148C13.7704 48.9704 14.1778 48.7259 14.6667 48.563C14.5852 48.563 14.5852 48.6444 14.5037 48.6444C15.0741 48.4 15.6444 48.237 16.2148 48.1555C16.1333 48.1555 16.1333 48.1555 16.0518 48.1555C16.1333 48.1555 16.2963 48.1555 16.3778 48.1555C16.2963 48.1555 16.2963 48.1555 16.2148 48.1555H16.2963C16.6222 48.237 17.0296 48.0741 17.1111 47.6667C17.3555 47.5037 17.1926 47.0963 16.8667 47.0148Z" fill="white"/>
<path d="M23.0594 47.7481C22.489 49.4592 21.9186 51.2518 21.4297 52.963C20.9408 54.7555 20.4519 56.4667 20.0445 58.2593C19.8001 59.237 19.5556 60.2963 19.3927 61.2741C19.3112 61.6 19.4742 62.0074 19.8816 62.0889C20.2075 62.1704 20.6149 62.0074 20.6964 61.6C21.1038 59.8074 21.5112 58.0148 21.9186 56.2222C22.4075 54.4296 22.8964 52.7185 23.4668 50.9259C23.7927 49.9481 24.1186 48.9704 24.4445 47.9926C24.526 47.6667 24.2816 47.2593 23.9556 47.1778C23.5482 47.2593 23.2223 47.4222 23.0594 47.7481Z" fill="white"/>
<path d="M25.3407 47.1777C25.3407 49.0518 25.3407 50.9259 25.3407 52.7999C25.2592 54.674 25.1777 56.5481 25.0963 58.4222C25.0148 59.4814 24.9333 60.5407 24.8518 61.5999C24.8518 61.7629 24.9333 61.9259 25.0148 62.0888C25.0963 62.1703 25.3407 62.2518 25.5037 62.2518C25.9111 62.2518 26.1555 61.9259 26.1555 61.5999C26.3185 59.7259 26.4814 57.8518 26.5629 55.9777C26.6444 54.1036 26.7259 52.2296 26.7259 50.3555C26.7259 49.2962 26.7259 48.237 26.7259 47.1777C26.7259 46.8518 26.4 46.5259 26.074 46.5259C25.6666 46.5259 25.3407 46.7703 25.3407 47.1777Z" fill="white"/>
<path d="M19.9631 58.5852C22.4075 58.1777 24.852 57.6074 27.2149 56.7111C27.8668 56.4666 28.5186 56.2222 29.1705 55.9777C29.3334 55.8963 29.4964 55.8148 29.5779 55.6518C29.6594 55.4889 29.6594 55.3259 29.6594 55.1629C29.5779 55 29.4964 54.837 29.3334 54.7555C29.1705 54.674 29.0075 54.5926 28.8446 54.674C26.5631 55.6518 24.1186 56.3852 21.6742 56.874C20.9408 57.037 20.289 57.1185 19.5557 57.2814C19.3927 57.2814 19.2297 57.4444 19.1483 57.6074C19.0668 57.7703 19.0668 57.9333 19.0668 58.0963C19.1483 58.2592 19.2297 58.4222 19.3927 58.5037C19.6371 58.5852 19.8001 58.5852 19.9631 58.5852Z" fill="white"/>
<path d="M30.474 49.2148C32.4296 49.0518 34.4666 48.8074 36.4222 48.4C36.9925 48.3185 37.4814 48.1555 38.0518 48.0741C38.3777 47.9926 38.6222 47.5852 38.5407 47.2593C38.4592 46.9333 38.0518 46.6889 37.7259 46.7704C36.2592 47.0963 34.7925 47.3407 33.3259 47.5037C33.4074 47.5037 33.4074 47.5037 33.4888 47.5037C32.5111 47.6667 31.5333 47.7481 30.5555 47.8296C30.3925 47.8296 30.2296 47.9111 30.0666 47.9926C29.9851 48.0741 29.9037 48.3185 29.9037 48.4815C29.8222 48.8889 30.1481 49.2963 30.474 49.2148Z" fill="white"/>
<path d="M33.5706 47.7481C33.1631 49.2147 33.0817 50.8444 32.9187 52.3925C32.8372 53.9407 32.6743 55.4888 32.5928 57.1184C32.5113 58.0147 32.4298 58.911 32.4298 59.7258C32.4298 60.0518 32.7557 60.3777 33.0817 60.3777C33.4891 60.3777 33.7335 60.0518 33.7335 59.7258C33.8965 57.1184 34.1409 54.511 34.3039 51.9036C34.3854 51.1703 34.3854 50.5184 34.5483 49.7851C34.5483 49.8666 34.5483 49.8666 34.5483 49.9481C34.6298 49.2962 34.7113 48.7258 34.8743 48.074C34.9557 47.7481 34.7928 47.3407 34.3854 47.2592C34.0594 47.1777 33.652 47.3407 33.5706 47.7481Z" fill="white"/>
<path d="M71.2962 33.7333C73.2517 33.5703 75.2888 33.3259 77.2443 32.9185C77.8147 32.837 78.3036 32.674 78.8739 32.5926C79.1999 32.5111 79.4443 32.1037 79.3628 31.7777C79.2814 31.4518 78.8739 31.2074 78.548 31.2889C77.0814 31.6148 75.6147 31.8592 74.148 32.0222C74.2295 32.0222 74.2295 32.0222 74.311 32.0222C73.3332 32.1851 72.3554 32.2666 71.3776 32.3481C71.2147 32.3481 71.0517 32.4296 70.8888 32.5111C70.8073 32.5926 70.7258 32.837 70.7258 33C70.6443 33.4074 70.9702 33.7333 71.2962 33.7333Z" fill="white"/>
<path d="M74.3925 32.1852C73.985 33.6518 73.9036 35.2815 73.7406 36.8296C73.6591 38.3778 73.4962 39.9259 73.4147 41.5555C73.3332 42.4518 73.2517 43.3481 73.2517 44.163C73.2517 44.4889 73.5776 44.8148 73.9036 44.8148C74.311 44.8148 74.5554 44.4889 74.5554 44.163C74.7184 41.5555 74.9628 38.9481 75.1258 36.3407C75.2073 35.6074 75.2073 34.9555 75.3702 34.2222C75.3702 34.3037 75.3702 34.3037 75.3702 34.3852C75.4517 33.7333 75.5332 33.163 75.6962 32.5111C75.7776 32.1852 75.6147 31.7778 75.2073 31.6963C74.8813 31.6963 74.4739 31.8592 74.3925 32.1852Z" fill="white"/>
<path d="M40.4963 48.3185C40.2519 50.763 40.0889 53.2889 40.0074 55.7333C40.0074 56.4667 40.0074 57.1185 40.0074 57.8518C40.0074 58.1778 40.3334 58.5037 40.6593 58.5037C40.9852 58.5037 41.3112 58.1778 41.3112 57.8518C41.3112 55.4074 41.3926 52.8815 41.5556 50.437C41.6371 49.7037 41.7186 49.0518 41.7186 48.3185C41.7186 48.1555 41.6371 47.9926 41.5556 47.8296C41.4741 47.7481 41.2297 47.6667 41.0667 47.6667C40.9037 47.6667 40.7408 47.7481 40.5778 47.8296C40.4963 47.9926 40.4963 48.1555 40.4963 48.3185Z" fill="white"/>
<path d="M41.0665 49.0518C42.9406 48.8074 44.7332 48.5629 46.5258 48.1555C46.8517 48.074 47.0962 47.6666 47.0147 47.3407C46.9332 47.0148 46.5258 46.7703 46.1999 46.8518C44.8147 47.1777 43.4295 47.4222 42.0443 47.5852C42.1258 47.5852 42.1258 47.5852 42.2073 47.5852C41.7999 47.6666 41.3925 47.6666 41.0665 47.7481C40.9036 47.7481 40.7406 47.8296 40.5776 47.9111C40.4962 47.9926 40.4147 48.237 40.4147 48.4C40.4147 48.5629 40.4962 48.7259 40.5776 48.8889C40.6591 48.9703 40.9036 49.0518 41.0665 49.0518Z" fill="white"/>
<path d="M40.1705 54.2666C41.9631 53.9407 43.6742 53.3703 45.3039 52.637C45.4668 52.5555 45.5483 52.3926 45.6298 52.2296C45.7113 52.0666 45.6298 51.8222 45.5483 51.7407C45.4668 51.5778 45.3039 51.4963 45.1409 51.4148C44.9779 51.3333 44.815 51.4148 44.652 51.4963C44.489 51.5778 44.3261 51.6592 44.1631 51.7407C44.2446 51.7407 44.2446 51.6592 44.3261 51.6592C42.8594 52.2296 41.3928 52.7185 39.8446 52.9629C39.6816 52.9629 39.5187 53.1259 39.4372 53.2889C39.3557 53.4518 39.3557 53.6148 39.3557 53.7778C39.4372 54.1852 39.8446 54.3481 40.1705 54.2666Z" fill="white"/>
<path d="M40.0072 59.237C41.6369 58.8296 43.2665 58.3407 44.8147 57.6074C44.9776 57.5259 45.0591 57.3629 45.1406 57.1999C45.2221 57.037 45.1406 56.7925 45.0591 56.7111C44.9776 56.5481 44.8147 56.4666 44.6517 56.3851C44.4887 56.3037 44.3258 56.3851 44.1628 56.4666C44.0813 56.4666 43.9998 56.5481 43.9184 56.5481C43.9998 56.5481 43.9998 56.4666 44.0813 56.4666C42.6147 57.037 41.148 57.5259 39.6813 57.9333C39.3554 58.0148 39.1109 58.4222 39.1924 58.7481C39.2739 59.074 39.5998 59.3185 40.0072 59.237Z" fill="white"/>
<path d="M49.1334 47.9926C48.4 50.5185 47.8296 53.0444 47.4222 55.5703C47.2593 56.3037 47.1778 57.1185 47.0963 57.8518C47.0963 58.0148 47.1778 58.1777 47.2593 58.3407C47.3408 58.4222 47.5852 58.5037 47.7482 58.5037C47.9111 58.5037 48.0741 58.4222 48.2371 58.3407C48.4 58.1777 48.4 58.0148 48.4 57.8518C48.4 57.6889 48.4815 57.4444 48.4815 57.2815C48.4815 57.3629 48.4815 57.3629 48.4815 57.4444C48.8074 55 49.2963 52.637 49.8667 50.274C50.0296 49.6222 50.1926 48.9703 50.4371 48.3185C50.5185 47.9926 50.3556 47.5852 49.9482 47.5037C49.6222 47.5037 49.2148 47.6666 49.1334 47.9926Z" fill="white"/>
<path d="M50.0295 48.7259C50.8443 48.4815 51.7406 48.237 52.5554 48.0741C52.4739 48.0741 52.4739 48.0741 52.3924 48.0741C52.7998 47.9926 53.2072 47.9926 53.6146 48.0741C53.5332 48.0741 53.5332 48.0741 53.4517 48.0741C53.6961 48.0741 53.9406 48.1556 54.185 48.237C54.1035 48.237 54.1035 48.1556 54.022 48.1556C54.1035 48.237 54.185 48.237 54.348 48.3185C54.4295 48.3185 54.2665 48.237 54.2665 48.237C54.2665 48.237 54.2665 48.237 54.348 48.3185C54.4295 48.4 54.2665 48.237 54.2665 48.237L54.348 48.3185C54.348 48.237 54.2665 48.237 54.2665 48.1556C54.2665 48.237 54.2665 48.3185 54.2665 48.3185C54.2665 48.237 54.2665 48.237 54.2665 48.1556C54.185 48.563 54.1035 48.8889 53.9406 49.2148C53.9406 49.1333 54.022 49.1333 54.022 49.0519C53.8591 49.5407 53.5332 49.9482 53.2887 50.3556C53.2887 50.437 53.2072 50.437 53.2072 50.5185L53.1257 50.6C53.2072 50.437 53.2072 50.5185 53.1257 50.6C53.0443 50.6815 52.9628 50.763 52.8813 50.9259C52.7183 51.0889 52.5554 51.3333 52.3924 51.4963C51.5776 52.3111 50.6813 52.963 49.785 53.6963C49.2961 54.1037 48.8072 54.5111 48.3183 55C48.0739 55.2445 48.0739 55.7333 48.3183 55.9778C48.5628 56.2222 48.9702 56.2222 49.2961 55.9778C50.8443 54.5926 52.6369 53.4519 53.9406 51.8222C54.5924 51.0074 55.1628 50.1111 55.4887 49.1333C55.5702 48.8889 55.6517 48.563 55.6517 48.3185C55.6517 47.9111 55.4072 47.5037 55.0813 47.2593C54.8369 47.0963 54.5924 47.0148 54.348 46.9333C54.1035 46.8519 53.7776 46.8519 53.4517 46.7704C52.7998 46.7704 52.2295 46.8519 51.5776 47.0148C50.9258 47.1778 50.3554 47.3407 49.785 47.5037C49.4591 47.5852 49.2146 47.9926 49.2961 48.3185C49.2961 48.6445 49.622 48.8889 50.0295 48.7259Z" fill="white"/>
<path d="M50.6001 53.8593C50.8445 54.7556 51.2519 55.5704 51.5779 56.3853C51.9038 57.2001 52.3112 57.9334 52.8816 58.5853C53.2075 58.9112 53.5334 59.2371 54.0223 59.4001C54.3482 59.563 54.7556 59.4815 54.9186 59.1556C55.0816 58.8297 55.0001 58.4223 54.6742 58.2593C54.5112 58.1778 54.3482 58.0964 54.2667 58.0149C54.2667 58.0149 54.2668 58.0149 54.1853 57.9334C54.2668 58.0149 54.2667 58.0149 54.2667 57.9334L54.1853 57.8519C54.1038 57.7704 54.0223 57.7704 54.0223 57.689C53.9408 57.6075 53.7779 57.4445 53.6964 57.2816C53.6964 57.2816 53.6964 57.363 53.7779 57.363C53.7779 57.363 53.7779 57.363 53.6964 57.2816L53.6149 57.2001C53.5334 57.1186 53.5334 57.0371 53.4519 56.9556C53.0445 56.3038 52.8001 55.5704 52.4742 54.9186C52.4742 55.0001 52.5556 55.0001 52.5556 55.0815C52.3112 54.5112 52.0667 53.9408 51.9853 53.3704C51.9038 53.0445 51.4964 52.8001 51.1705 52.8816C50.6816 53.126 50.4371 53.4519 50.6001 53.8593Z" fill="white"/>
<path d="M58.7484 46.9333C58.2595 48.3184 57.7706 49.7851 57.4447 51.1703C57.0373 52.637 56.7114 54.0221 56.4669 55.4888C56.304 56.3851 56.2225 57.2814 56.141 58.0962C56.141 58.4222 56.4669 58.7481 56.7928 58.7481C57.2002 58.7481 57.4447 58.4222 57.4447 58.0962C57.4447 57.5259 57.5262 56.9555 57.6077 56.3851C57.6077 56.4666 57.6077 56.4666 57.6077 56.5481C57.9336 54.0222 58.5854 51.6592 59.4003 49.2147C59.6447 48.5629 59.8077 47.8296 60.0521 47.1777C60.1336 46.8518 59.8891 46.4444 59.5632 46.3629C59.2373 46.4444 58.9114 46.6073 58.7484 46.9333Z" fill="white"/>
<path d="M61.926 49.0518C61.8445 49.7851 61.763 50.437 61.6816 51.1703C61.6816 51.0888 61.6816 51.0888 61.6816 51.0074C61.4371 53.0444 61.0297 55.0814 60.5408 57.1185C60.3779 57.6888 60.2964 58.2592 60.1334 58.8296C60.0519 59.1555 60.2149 59.5629 60.6223 59.6444C60.9482 59.7259 61.3556 59.5629 61.4371 59.1555C62.089 56.6296 62.6593 54.0222 62.9853 51.4148C63.0667 50.5999 63.1482 49.8666 63.2297 49.0518C63.2297 48.8888 63.1482 48.7259 63.0667 48.5629C62.9853 48.4814 62.7408 48.3999 62.5779 48.3999C62.4149 48.3999 62.2519 48.4814 62.089 48.5629C61.926 48.7259 61.926 48.8888 61.926 49.0518Z" fill="white"/>
<path d="M61.9259 49.2963C62.4148 51.6592 63.1481 53.9407 64.2889 56.1407C64.6148 56.7111 64.9407 57.3629 65.2666 57.9333C65.4296 58.2592 65.837 58.3407 66.1629 58.1777C66.4888 58.0148 66.5703 57.6074 66.4074 57.2815C66.4074 57.3629 66.4889 57.3629 66.4889 57.4444C66.4889 57.5259 66.4889 57.5259 66.4889 57.6074V57.5259C66.4889 57.6074 66.4889 57.6074 66.4889 57.6889C66.5703 57.2815 66.7333 56.874 66.8148 56.5481C66.9777 55.9777 67.0592 55.4889 67.2222 54.9185C67.3851 54.1037 67.5481 53.2889 67.7111 52.5555C67.874 51.7407 68.037 51.0074 68.2814 50.274C68.5259 49.4592 68.7703 48.5629 68.8518 47.6666C68.8518 47.5037 68.8518 47.3407 68.7703 47.1777C68.6889 47.0148 68.5259 46.9333 68.3629 46.8518C68.2 46.8518 68.037 46.8518 67.874 46.9333C67.7111 47.0148 67.6296 47.1777 67.5481 47.3407C67.4666 48.1555 67.2222 48.9703 66.9777 49.7852C66.7333 50.6 66.5703 51.4148 66.4074 52.2296C66.2444 53.0444 66.0814 53.9407 65.9185 54.7555C65.837 55.1629 65.7555 55.5703 65.674 55.8963C65.674 56.0592 65.5926 56.2222 65.5111 56.3852C65.4296 56.6296 65.3481 56.874 65.2666 57.1185C65.1851 57.4444 65.1037 57.7703 65.2666 58.0148C65.674 57.7703 66 57.5259 66.4074 57.3629C65.7555 56.3037 65.1851 55.2444 64.6963 54.1037C64.6963 54.1852 64.7777 54.1852 64.7777 54.2666C64.2074 52.9629 63.8 51.6592 63.474 50.274C63.3926 49.8666 63.3111 49.4592 63.2296 49.1333C63.1481 48.8074 62.7407 48.5629 62.4148 48.6444C62.0074 48.5629 61.8444 48.8889 61.9259 49.2963Z" fill="white"/>
<path d="M34.3035 25.0148C34.222 25.0148 34.0591 24.9333 33.9776 24.8518C33.8146 24.6889 33.7331 24.6074 33.6517 21.837C33.4887 21.837 33.3257 21.7555 33.2442 21.5926C33.1628 21.5111 33.1628 21.4296 33.1628 21.3481C31.5331 21.0222 30.3109 19.8814 29.4146 17.9259C29.0072 17.1111 29.0072 16.2963 29.3331 15.6444C29.9035 14.5037 31.3702 13.9333 32.1035 13.6888C32.1035 13.2814 32.1035 12.6296 32.2665 11.8963C32.5924 10.5926 33.4072 9.61478 34.6294 9.12589C36.9109 8.14811 39.0294 9.12589 39.9257 9.69626C40.4961 8.96292 41.9628 7.41478 44.1628 7.25181C46.6072 7.08885 49.2961 9.69626 50.0294 10.5111C50.8442 10.2666 53.0442 9.69626 54.9998 11C56.9554 12.3037 56.7924 14.5037 56.6294 15.4814C57.5257 15.7259 58.2591 16.2963 58.7479 16.7037C59.1554 17.1111 59.3998 17.6 59.4813 18.1703C59.5628 19.3926 59.2368 20.2074 58.5035 20.7777C57.7702 21.2666 56.7924 21.5111 55.4072 21.2666C54.4294 21.1037 53.6961 20.8592 53.6961 20.8592C53.4517 20.7777 53.3702 20.5333 53.4516 20.2888C53.5331 20.0444 53.7776 19.9629 54.022 20.0444C54.7554 20.2888 56.9554 20.8592 58.0146 20.1259C58.5035 19.8 58.6665 19.1481 58.585 18.2518C58.585 17.9259 58.422 17.6 58.1776 17.437C57.7702 17.0296 57.0368 16.5407 56.1405 16.3777C55.9776 16.3777 55.8961 16.2963 55.8146 16.1333C55.7331 16.0518 55.7331 15.8888 55.7331 15.7259C55.8146 15.3185 56.3035 13.037 54.5924 11.8148C52.7183 10.5111 50.4368 11.4074 50.1924 11.4889C50.0294 11.5703 49.785 11.4888 49.622 11.3259C48.4813 10.1037 46.1183 8.06663 44.2442 8.14811C41.9628 8.31107 40.6591 10.2666 40.4961 10.5111C40.4146 10.5926 40.3331 10.674 40.1702 10.7555C40.0072 10.7555 39.9257 10.7555 39.7628 10.674C39.5183 10.5111 37.3183 9.04441 35.0368 10.0222C32.8368 10.9185 32.9998 13.6889 33.0813 14.0148C33.0813 14.2592 32.9183 14.5037 32.6739 14.5851C32.5109 14.6666 30.7183 15.074 30.1479 16.1333C29.9035 16.5407 29.985 17.1111 30.2294 17.6814C31.1257 19.637 32.4294 20.6963 34.0591 20.6963H34.1405C39.0294 18.0889 44.2442 18.0889 44.4887 18.0889C49.5405 18.3333 52.5554 19.474 53.5331 21.3481C54.2665 22.8148 53.5331 24.2814 53.2887 24.5259C53.1257 24.6889 52.8813 24.7703 52.7183 24.6888C48.8887 23.1407 45.0591 22.5703 41.2294 23.0592C38.1331 23.4666 35.9331 24.4444 34.9554 24.8518C34.7109 24.9333 34.5479 25.0148 34.3035 25.0148ZM34.6294 21.4296C34.6294 22.4888 34.6294 23.4666 34.7109 23.9555C35.6887 23.5481 37.9702 22.4888 41.2294 22.0814C45.1405 21.5926 48.9702 22.0814 52.8813 23.6296C53.0442 23.2222 53.2887 22.4074 52.8813 21.674C52.3109 20.6148 50.4368 19.2296 44.5702 18.9037C44.3257 18.9037 39.1924 18.9851 34.6294 21.4296Z" fill="white"/>
<path d="M44.4887 16.6221C44.1628 16.5406 43.9998 16.3777 44.0813 16.1332C44.0813 16.1332 44.6517 12.2221 43.9998 9.94062C43.9183 9.69617 44.0813 9.45173 44.2443 9.37024C44.4887 9.28876 44.7332 9.37024 44.8146 9.61469C45.222 10.4295 45.9554 11.8962 45.9554 13.0369C45.9554 13.2814 45.7924 13.4443 45.548 13.4443C45.385 13.4443 45.3035 13.3628 45.222 13.2814C45.222 14.8295 44.9776 16.2147 44.9776 16.2962C44.8961 16.4591 44.6517 16.6221 44.4887 16.6221Z" fill="white"/>
<path d="M39.3553 17.8444C39.2739 17.8444 39.2739 17.8444 39.1924 17.8444C36.8294 16.9481 35.9331 13.037 35.8516 12.874C35.7702 12.6296 35.9331 12.3851 36.1776 12.3036C36.422 12.2222 36.6665 12.3851 36.7479 12.6296C36.7479 12.7111 37.6442 16.2148 39.5183 16.9481C39.7628 17.0296 39.8442 17.274 39.7628 17.5185C39.6813 17.7629 39.5183 17.8444 39.3553 17.8444Z" fill="white"/>
<path d="M41.3108 17.6814H41.2294C38.0516 16.7851 37.4812 14.748 37.3997 14.6666C37.3183 14.4221 37.4812 14.1777 37.7257 14.0962C37.9701 14.0147 38.2145 14.1777 38.296 14.4221C38.296 14.5036 38.7849 16.0517 41.4738 16.7851C41.7183 16.8666 41.8812 17.111 41.7997 17.3554C41.7183 17.5184 41.4738 17.6814 41.3108 17.6814Z" fill="white"/>
<path d="M35.2815 19.5554C34.2222 19.5554 33.2444 19.0666 32.4296 18.0888C31.7777 17.3554 31.5333 16.5406 31.4518 16.5406C31.3703 16.2962 31.4518 16.0517 31.6963 15.9703C31.9407 15.8888 32.1852 15.9703 32.2666 16.2147C32.2666 16.2147 32.5111 16.8666 33.0814 17.5184C33.4889 18.0073 33.8963 18.3332 34.3037 18.4962C34.1407 18.3332 33.9777 18.1703 33.8148 17.9258C33.6518 17.7629 33.7333 17.4369 33.8963 17.274C34.0592 17.111 34.3852 17.1925 34.5481 17.3554C34.9555 17.9258 35.2 18.0888 35.6074 18.3332L35.6889 18.4147C35.9333 18.5777 36.0148 18.8221 35.9333 19.0666C35.8518 19.311 35.6074 19.5554 35.3629 19.5554C35.4444 19.5554 35.3629 19.5554 35.2815 19.5554Z" fill="white"/>
<path d="M49.3776 17.1925C49.2961 17.1925 49.1331 17.111 49.0517 17.0295C48.8887 16.8666 48.8887 16.5407 49.0517 16.3777C49.785 15.6444 50.2739 14.5036 50.2739 14.5036C50.3554 14.2592 50.5998 14.1777 50.8443 14.2592C51.0887 14.3407 51.1702 14.5851 51.0887 14.8295C51.0887 14.911 50.5998 16.1333 49.7035 17.0295C49.622 17.1925 49.5406 17.1925 49.3776 17.1925Z" fill="white"/>
<path d="M50.1924 17.6814C49.948 17.6814 49.785 17.5184 49.785 17.3554C49.7035 17.111 49.8665 16.8665 50.1109 16.8665C52.5554 16.3777 52.2294 13.7703 52.148 13.6073C52.148 13.3628 52.3109 13.1184 52.5554 13.1184C52.7998 13.1184 53.0442 13.2814 53.0442 13.5258C53.0442 13.5258 53.1257 14.4221 52.8813 15.3999C52.6368 16.2962 51.985 17.4369 50.2739 17.7628C50.2739 17.6814 50.2739 17.6814 50.1924 17.6814Z" fill="white"/>
<path d="M54.8369 19.5556C54.5924 19.5556 54.4294 19.3926 54.4294 19.1482C54.4294 18.9037 54.5924 18.6593 54.8369 18.6593C56.3035 18.4149 56.4665 17.926 56.4665 17.926L57.3628 18.0889C57.3628 18.1704 57.2813 18.4963 56.9554 18.8223C56.385 19.1482 55.7331 19.3926 54.8369 19.5556Z" fill="white"/>
<path d="M48.3997 28.3555C47.9108 28.3555 47.3405 28.3555 46.7701 28.274C46.5256 28.274 46.3627 28.0296 46.3627 27.7851C46.3627 27.5407 46.6071 27.3777 46.8516 27.3777C50.6812 27.6222 51.5775 27.0518 51.9034 25.9926C51.9034 25.9111 51.9034 25.9111 51.8219 25.7481C51.7404 25.5851 51.2516 25.0963 49.459 24.6074C48.3997 24.3629 47.4219 24.2 47.4219 24.2C40.0886 23.3037 35.6886 26.074 35.6071 26.074C35.3627 26.237 35.1182 26.1555 34.9553 25.9111C34.7923 25.6666 34.8738 25.4222 35.1182 25.2592C35.2812 25.1777 39.7627 22.3259 47.5034 23.2222C48.2367 23.3037 51.7404 23.874 52.5553 25.1777C52.7182 25.5037 52.7997 25.8296 52.7182 26.1555C52.4738 27.0518 51.8219 27.7037 50.7627 27.9481C50.1923 28.274 49.459 28.3555 48.3997 28.3555Z" fill="white"/>
<path d="M35.6074 27.3777C35.4445 27.3777 35.2815 27.2963 35.2 27.1333C35.0371 26.8889 35.1185 26.6444 35.363 26.5629C35.5259 26.4815 39.2741 24.2 45.2222 24.1185C45.4667 24.1185 45.6296 24.2815 45.6296 24.5259C45.6296 24.7703 45.4667 24.9333 45.2222 25.0148C39.5185 25.0963 35.8519 27.2963 35.7704 27.2963C35.7704 27.3777 35.6889 27.3777 35.6074 27.3777Z" fill="white"/>
</svg>
