<svg width="22" height="21" viewBox="0 0 22 21" fill="none" xmlns="http://www.w3.org/2000/svg">
<path d="M17.08 14.9201H20.2V9.64006H17.08C15.622 9.64006 14.44 10.822 14.44 12.2801C14.44 13.7381 15.622 14.9201 17.08 14.9201Z" fill="#FFC300"/>
<path d="M20.2 14.9201V15.9201C20.7523 15.9201 21.2 15.4723 21.2 14.9201H20.2ZM20.2 9.64006H21.2C21.2 9.08778 20.7523 8.64006 20.2 8.64006V9.64006ZM5.73924 4.47888C5.27467 4.77754 5.14017 5.39625 5.43882 5.86082C5.73747 6.32539 6.35619 6.45989 6.82076 6.16124L6.28 5.32006L5.73924 4.47888ZM13 1.00006L13.7894 0.38612C13.4716 -0.022424 12.8946 -0.120997 12.4592 0.158883L13 1.00006ZM15.5706 5.934C15.9097 6.36995 16.538 6.44848 16.9739 6.10941C17.4099 5.77034 17.4884 5.14207 17.1493 4.70612L16.36 5.32006L15.5706 5.934ZM20.2 14.9201V13.9201H17.08V14.9201V15.9201H20.2V14.9201ZM17.08 9.64006V10.6401H20.2V9.64006V8.64006H17.08V9.64006ZM20.2 9.64006H19.2V14.9201H20.2H21.2V9.64006H20.2ZM14.44 12.2801H15.44C15.44 11.3743 16.1743 10.6401 17.08 10.6401V9.64006V8.64006C15.0697 8.64006 13.44 10.2697 13.44 12.2801H14.44ZM17.08 14.9201V13.9201C16.1743 13.9201 15.44 13.1858 15.44 12.2801H14.44H13.44C13.44 14.2904 15.0697 15.9201 17.08 15.9201V14.9201ZM6.28 5.32006L6.82076 6.16124L13.5408 1.84124L13 1.00006L12.4592 0.158883L5.73924 4.47888L6.28 5.32006ZM13 1.00006L12.2106 1.614L15.5706 5.934L16.36 5.32006L17.1493 4.70612L13.7894 0.38612L13 1.00006ZM1.96 5.32006V6.32006H18.28V5.32006V4.32006H1.96V5.32006ZM18.28 19.7201V18.7201H1.96V19.7201V20.7201H18.28V19.7201ZM1 18.7601H2V6.28006H1H0V18.7601H1ZM1.96 19.7201V18.7201C1.98209 18.7201 2 18.738 2 18.7601H1H0C0 19.8425 0.87752 20.7201 1.96 20.7201V19.7201ZM19.24 18.7601H18.24C18.24 18.738 18.2579 18.7201 18.28 18.7201V19.7201V20.7201C19.3625 20.7201 20.24 19.8425 20.24 18.7601H19.24ZM18.28 5.32006V6.32006C18.2579 6.32006 18.24 6.30215 18.24 6.28006H19.24H20.24C20.24 5.19759 19.3625 4.32006 18.28 4.32006V5.32006ZM1.96 5.32006V4.32006C0.877522 4.32006 0 5.19758 0 6.28006H1H2C2 6.30215 1.98209 6.32006 1.96 6.32006V5.32006ZM19.24 15.6401H18.24V18.7601H19.24H20.24V15.6401H19.24ZM19.24 6.28006H18.24V8.80006H19.24H20.24V6.28006H19.24Z" fill="#333333"/>
</svg>
