<svg width="36" height="36" viewBox="0 0 36 36" fill="none" xmlns="http://www.w3.org/2000/svg">
<path d="M31.2 0H4.8C2.149 0 0 2.149 0 4.8V31.2C0 33.851 2.149 36 4.8 36H31.2C33.851 36 36 33.851 36 31.2V4.8C36 2.149 33.851 0 31.2 0ZM18.0006 30.0004H17.996C15.8426 29.9996 13.7302 29.4218 11.8884 28.3282L11.4496 28.0684L6.9078 29.259L8.1206 24.8328L7.8348 24.3788C6.63306 22.4663 5.99696 20.2529 6 17.9942C6.003 11.3802 11.386 5.9996 18.0044 5.9996C21.2102 6.0004 24.2224 7.2498 26.4882 9.5172C28.7542 11.7846 30.0006 14.799 30 18.004C29.9976 24.6192 24.6148 30.0004 18.0006 30.0004Z" fill="#40C351"/>
<path d="M24.5819 21.016C24.2213 20.8352 22.4475 19.9628 22.1167 19.843C21.7859 19.7232 21.5457 19.663 21.3045 20.0238C21.0641 20.3844 20.3731 21.1972 20.1623 21.4374C19.9517 21.6784 19.7413 21.7088 19.3805 21.528C19.0203 21.3468 17.8583 20.9666 16.4797 19.7378C15.4075 18.782 14.6837 17.6012 14.4729 17.24C14.2623 16.8796 14.4501 16.6842 14.6311 16.504C14.7931 16.342 14.9915 16.0828 15.1725 15.872C15.3527 15.6614 15.4129 15.5108 15.5329 15.2706C15.6531 15.0294 15.5929 14.819 15.5025 14.6386C15.4135 14.4576 14.7125 12.6738 14.3915 11.9604C14.1215 11.3598 13.8371 11.3476 13.5793 11.3368C13.3687 11.3278 13.1285 11.3284 12.8881 11.3284C12.6479 11.3284 12.2571 11.419 11.9261 11.7802C11.5953 12.1414 10.6631 13.0136 10.6631 14.7884C10.6631 16.5634 11.9557 18.2784 12.1359 18.519C12.3161 18.7592 14.6317 22.5178 18.2981 23.964C21.3451 25.1656 21.9657 24.9268 22.6273 24.8668C23.2891 24.807 24.7617 23.995 25.0621 23.152C25.3627 22.3098 25.3627 21.588 25.2729 21.4376C25.1825 21.2868 24.9423 21.1972 24.5819 21.016Z" fill="#40C351"/>
</svg>
